%TF.GenerationSoftware,KiCad,Pcbnew,(5.1.4)-1*%
%TF.CreationDate,2022-06-24T00:08:52+02:00*%
%TF.ProjectId,Stop_BBM_3PIC,53746f70-5f42-4424-9d5f-335049432e6b,1.1*%
%TF.SameCoordinates,Original*%
%TF.FileFunction,Copper,L1,Top*%
%TF.FilePolarity,Positive*%
%FSLAX46Y46*%
G04 Gerber Fmt 4.6, Leading zero omitted, Abs format (unit mm)*
G04 Created by KiCad (PCBNEW (5.1.4)-1) date 2022-06-24 00:08:52*
%MOMM*%
%LPD*%
G04 APERTURE LIST*
%TA.AperFunction,EtchedComponent*%
%ADD10C,0.010000*%
%TD*%
%TA.AperFunction,ComponentPad*%
%ADD11O,1.700000X1.700000*%
%TD*%
%TA.AperFunction,ComponentPad*%
%ADD12R,1.700000X1.700000*%
%TD*%
%TA.AperFunction,SMDPad,CuDef*%
%ADD13R,2.500000X5.000000*%
%TD*%
%TA.AperFunction,Conductor*%
%ADD14C,0.500000*%
%TD*%
%TA.AperFunction,Conductor*%
%ADD15C,0.200000*%
%TD*%
G04 APERTURE END LIST*
D10*
%TO.C,G\002A\002A\002A*%
G36*
X95741658Y-163088311D02*
G01*
X95755557Y-163126980D01*
X95762872Y-163153395D01*
X95786067Y-163242772D01*
X95805210Y-163314980D01*
X95821215Y-163373427D01*
X95834736Y-163420625D01*
X95841596Y-163444669D01*
X95853128Y-163485917D01*
X95868440Y-163541149D01*
X95886643Y-163607145D01*
X95906847Y-163680686D01*
X95928162Y-163758553D01*
X95929809Y-163764583D01*
X95951172Y-163842559D01*
X95971509Y-163916370D01*
X95989932Y-163982815D01*
X96005548Y-164038692D01*
X96017467Y-164080800D01*
X96024796Y-164105937D01*
X96025155Y-164107111D01*
X96033254Y-164131777D01*
X96039483Y-164151587D01*
X96041915Y-164167070D01*
X96038625Y-164178754D01*
X96027687Y-164187166D01*
X96007175Y-164192835D01*
X95975164Y-164196288D01*
X95929726Y-164198053D01*
X95868938Y-164198658D01*
X95790871Y-164198631D01*
X95693602Y-164198500D01*
X95691750Y-164198500D01*
X95596330Y-164198433D01*
X95519973Y-164198159D01*
X95460575Y-164197568D01*
X95416033Y-164196552D01*
X95384243Y-164195001D01*
X95363101Y-164192805D01*
X95350504Y-164189855D01*
X95344348Y-164186041D01*
X95342529Y-164181255D01*
X95342500Y-164180332D01*
X95346309Y-164158751D01*
X95356445Y-164123810D01*
X95370974Y-164081638D01*
X95385189Y-164045041D01*
X95391318Y-164028319D01*
X95402837Y-163995279D01*
X95418455Y-163949687D01*
X95436879Y-163895309D01*
X95452357Y-163849250D01*
X95472424Y-163789664D01*
X95497682Y-163715210D01*
X95526379Y-163631014D01*
X95556766Y-163542204D01*
X95587093Y-163453908D01*
X95607688Y-163394166D01*
X95633163Y-163320123D01*
X95656520Y-163251699D01*
X95676809Y-163191715D01*
X95693084Y-163142990D01*
X95704395Y-163108347D01*
X95709796Y-163090605D01*
X95709968Y-163089895D01*
X95718371Y-163069177D01*
X95729098Y-163068846D01*
X95741658Y-163088311D01*
X95741658Y-163088311D01*
G37*
X95741658Y-163088311D02*
X95755557Y-163126980D01*
X95762872Y-163153395D01*
X95786067Y-163242772D01*
X95805210Y-163314980D01*
X95821215Y-163373427D01*
X95834736Y-163420625D01*
X95841596Y-163444669D01*
X95853128Y-163485917D01*
X95868440Y-163541149D01*
X95886643Y-163607145D01*
X95906847Y-163680686D01*
X95928162Y-163758553D01*
X95929809Y-163764583D01*
X95951172Y-163842559D01*
X95971509Y-163916370D01*
X95989932Y-163982815D01*
X96005548Y-164038692D01*
X96017467Y-164080800D01*
X96024796Y-164105937D01*
X96025155Y-164107111D01*
X96033254Y-164131777D01*
X96039483Y-164151587D01*
X96041915Y-164167070D01*
X96038625Y-164178754D01*
X96027687Y-164187166D01*
X96007175Y-164192835D01*
X95975164Y-164196288D01*
X95929726Y-164198053D01*
X95868938Y-164198658D01*
X95790871Y-164198631D01*
X95693602Y-164198500D01*
X95691750Y-164198500D01*
X95596330Y-164198433D01*
X95519973Y-164198159D01*
X95460575Y-164197568D01*
X95416033Y-164196552D01*
X95384243Y-164195001D01*
X95363101Y-164192805D01*
X95350504Y-164189855D01*
X95344348Y-164186041D01*
X95342529Y-164181255D01*
X95342500Y-164180332D01*
X95346309Y-164158751D01*
X95356445Y-164123810D01*
X95370974Y-164081638D01*
X95385189Y-164045041D01*
X95391318Y-164028319D01*
X95402837Y-163995279D01*
X95418455Y-163949687D01*
X95436879Y-163895309D01*
X95452357Y-163849250D01*
X95472424Y-163789664D01*
X95497682Y-163715210D01*
X95526379Y-163631014D01*
X95556766Y-163542204D01*
X95587093Y-163453908D01*
X95607688Y-163394166D01*
X95633163Y-163320123D01*
X95656520Y-163251699D01*
X95676809Y-163191715D01*
X95693084Y-163142990D01*
X95704395Y-163108347D01*
X95709796Y-163090605D01*
X95709968Y-163089895D01*
X95718371Y-163069177D01*
X95729098Y-163068846D01*
X95741658Y-163088311D01*
G36*
X96887667Y-164812333D02*
G01*
X94432334Y-164812333D01*
X94432334Y-164439813D01*
X94780882Y-164439813D01*
X94781386Y-164479339D01*
X94784342Y-164508088D01*
X94788639Y-164519527D01*
X94800055Y-164520599D01*
X94831077Y-164521621D01*
X94880148Y-164522581D01*
X94945706Y-164523468D01*
X95026193Y-164524268D01*
X95120048Y-164524969D01*
X95225713Y-164525560D01*
X95341628Y-164526029D01*
X95466233Y-164526362D01*
X95597969Y-164526547D01*
X95687850Y-164526583D01*
X95845868Y-164526572D01*
X95984067Y-164526518D01*
X96103792Y-164526392D01*
X96206391Y-164526161D01*
X96293210Y-164525797D01*
X96365597Y-164525269D01*
X96424897Y-164524545D01*
X96472458Y-164523595D01*
X96509627Y-164522389D01*
X96537749Y-164520897D01*
X96558173Y-164519087D01*
X96572244Y-164516930D01*
X96581310Y-164514394D01*
X96586718Y-164511449D01*
X96589813Y-164508065D01*
X96590961Y-164506112D01*
X96600660Y-164472017D01*
X96603051Y-164424258D01*
X96598631Y-164368846D01*
X96587895Y-164311791D01*
X96571340Y-164259105D01*
X96570374Y-164256708D01*
X96564128Y-164240238D01*
X96551591Y-164206207D01*
X96533620Y-164156977D01*
X96511071Y-164094911D01*
X96484801Y-164022369D01*
X96455667Y-163941714D01*
X96424525Y-163855309D01*
X96394750Y-163772520D01*
X96366416Y-163693729D01*
X96342882Y-163628483D01*
X96321831Y-163570394D01*
X96300943Y-163513072D01*
X96277900Y-163450130D01*
X96265132Y-163415333D01*
X96244676Y-163359428D01*
X96225388Y-163306384D01*
X96209167Y-163261448D01*
X96197913Y-163229862D01*
X96196156Y-163224833D01*
X96183725Y-163189933D01*
X96167389Y-163145270D01*
X96151664Y-163103125D01*
X96133715Y-163054829D01*
X96113181Y-162998466D01*
X96094408Y-162945968D01*
X96093846Y-162944375D01*
X96076069Y-162894408D01*
X96055348Y-162836881D01*
X96033595Y-162777026D01*
X96012721Y-162720074D01*
X95994639Y-162671259D01*
X95981259Y-162635811D01*
X95978821Y-162629520D01*
X95967441Y-162600416D01*
X95526490Y-162600416D01*
X95506546Y-162645395D01*
X95491233Y-162680309D01*
X95468843Y-162731890D01*
X95440585Y-162797327D01*
X95407669Y-162873811D01*
X95371307Y-162958531D01*
X95332707Y-163048679D01*
X95311698Y-163097833D01*
X95286818Y-163155766D01*
X95262595Y-163211616D01*
X95241252Y-163260295D01*
X95225011Y-163296714D01*
X95220241Y-163307143D01*
X95206296Y-163337949D01*
X95196890Y-163360146D01*
X95194334Y-163367683D01*
X95190294Y-163379079D01*
X95179840Y-163403736D01*
X95168886Y-163428248D01*
X95152603Y-163464730D01*
X95128811Y-163519105D01*
X95098207Y-163589752D01*
X95061489Y-163675054D01*
X95019354Y-163773391D01*
X94972500Y-163883146D01*
X94944121Y-163949791D01*
X94920598Y-164004956D01*
X94899373Y-164054504D01*
X94882095Y-164094605D01*
X94870412Y-164121427D01*
X94866701Y-164129708D01*
X94853131Y-164159795D01*
X94834819Y-164201695D01*
X94815116Y-164247663D01*
X94798555Y-164287104D01*
X94791666Y-164313154D01*
X94786263Y-164351061D01*
X94782588Y-164395167D01*
X94780882Y-164439813D01*
X94432334Y-164439813D01*
X94432334Y-162198250D01*
X96887667Y-162198250D01*
X96887667Y-164812333D01*
X96887667Y-164812333D01*
G37*
X96887667Y-164812333D02*
X94432334Y-164812333D01*
X94432334Y-164439813D01*
X94780882Y-164439813D01*
X94781386Y-164479339D01*
X94784342Y-164508088D01*
X94788639Y-164519527D01*
X94800055Y-164520599D01*
X94831077Y-164521621D01*
X94880148Y-164522581D01*
X94945706Y-164523468D01*
X95026193Y-164524268D01*
X95120048Y-164524969D01*
X95225713Y-164525560D01*
X95341628Y-164526029D01*
X95466233Y-164526362D01*
X95597969Y-164526547D01*
X95687850Y-164526583D01*
X95845868Y-164526572D01*
X95984067Y-164526518D01*
X96103792Y-164526392D01*
X96206391Y-164526161D01*
X96293210Y-164525797D01*
X96365597Y-164525269D01*
X96424897Y-164524545D01*
X96472458Y-164523595D01*
X96509627Y-164522389D01*
X96537749Y-164520897D01*
X96558173Y-164519087D01*
X96572244Y-164516930D01*
X96581310Y-164514394D01*
X96586718Y-164511449D01*
X96589813Y-164508065D01*
X96590961Y-164506112D01*
X96600660Y-164472017D01*
X96603051Y-164424258D01*
X96598631Y-164368846D01*
X96587895Y-164311791D01*
X96571340Y-164259105D01*
X96570374Y-164256708D01*
X96564128Y-164240238D01*
X96551591Y-164206207D01*
X96533620Y-164156977D01*
X96511071Y-164094911D01*
X96484801Y-164022369D01*
X96455667Y-163941714D01*
X96424525Y-163855309D01*
X96394750Y-163772520D01*
X96366416Y-163693729D01*
X96342882Y-163628483D01*
X96321831Y-163570394D01*
X96300943Y-163513072D01*
X96277900Y-163450130D01*
X96265132Y-163415333D01*
X96244676Y-163359428D01*
X96225388Y-163306384D01*
X96209167Y-163261448D01*
X96197913Y-163229862D01*
X96196156Y-163224833D01*
X96183725Y-163189933D01*
X96167389Y-163145270D01*
X96151664Y-163103125D01*
X96133715Y-163054829D01*
X96113181Y-162998466D01*
X96094408Y-162945968D01*
X96093846Y-162944375D01*
X96076069Y-162894408D01*
X96055348Y-162836881D01*
X96033595Y-162777026D01*
X96012721Y-162720074D01*
X95994639Y-162671259D01*
X95981259Y-162635811D01*
X95978821Y-162629520D01*
X95967441Y-162600416D01*
X95526490Y-162600416D01*
X95506546Y-162645395D01*
X95491233Y-162680309D01*
X95468843Y-162731890D01*
X95440585Y-162797327D01*
X95407669Y-162873811D01*
X95371307Y-162958531D01*
X95332707Y-163048679D01*
X95311698Y-163097833D01*
X95286818Y-163155766D01*
X95262595Y-163211616D01*
X95241252Y-163260295D01*
X95225011Y-163296714D01*
X95220241Y-163307143D01*
X95206296Y-163337949D01*
X95196890Y-163360146D01*
X95194334Y-163367683D01*
X95190294Y-163379079D01*
X95179840Y-163403736D01*
X95168886Y-163428248D01*
X95152603Y-163464730D01*
X95128811Y-163519105D01*
X95098207Y-163589752D01*
X95061489Y-163675054D01*
X95019354Y-163773391D01*
X94972500Y-163883146D01*
X94944121Y-163949791D01*
X94920598Y-164004956D01*
X94899373Y-164054504D01*
X94882095Y-164094605D01*
X94870412Y-164121427D01*
X94866701Y-164129708D01*
X94853131Y-164159795D01*
X94834819Y-164201695D01*
X94815116Y-164247663D01*
X94798555Y-164287104D01*
X94791666Y-164313154D01*
X94786263Y-164351061D01*
X94782588Y-164395167D01*
X94780882Y-164439813D01*
X94432334Y-164439813D01*
X94432334Y-162198250D01*
X96887667Y-162198250D01*
X96887667Y-164812333D01*
G36*
X109226902Y-163122572D02*
G01*
X109230675Y-163154331D01*
X109232547Y-163179877D01*
X109235425Y-163221314D01*
X109239503Y-163273552D01*
X109244286Y-163330541D01*
X109249279Y-163386233D01*
X109250422Y-163398400D01*
X109255610Y-163453139D01*
X109261064Y-163510785D01*
X109266204Y-163565210D01*
X109270452Y-163610287D01*
X109271227Y-163618533D01*
X109275361Y-163660050D01*
X109279678Y-163699322D01*
X109283541Y-163730722D01*
X109285372Y-163743416D01*
X109291164Y-163779400D01*
X109135562Y-163779400D01*
X109140137Y-163743416D01*
X109143133Y-163718606D01*
X109147221Y-163683134D01*
X109151692Y-163643175D01*
X109153464Y-163627000D01*
X109163502Y-163535671D01*
X109172312Y-163457620D01*
X109180308Y-163389273D01*
X109187905Y-163327052D01*
X109191725Y-163296800D01*
X109197153Y-163253703D01*
X109202382Y-163211202D01*
X109206637Y-163175640D01*
X109208290Y-163161260D01*
X109213157Y-163126489D01*
X109217986Y-163108530D01*
X109222620Y-163107265D01*
X109226902Y-163122572D01*
X109226902Y-163122572D01*
G37*
X109226902Y-163122572D02*
X109230675Y-163154331D01*
X109232547Y-163179877D01*
X109235425Y-163221314D01*
X109239503Y-163273552D01*
X109244286Y-163330541D01*
X109249279Y-163386233D01*
X109250422Y-163398400D01*
X109255610Y-163453139D01*
X109261064Y-163510785D01*
X109266204Y-163565210D01*
X109270452Y-163610287D01*
X109271227Y-163618533D01*
X109275361Y-163660050D01*
X109279678Y-163699322D01*
X109283541Y-163730722D01*
X109285372Y-163743416D01*
X109291164Y-163779400D01*
X109135562Y-163779400D01*
X109140137Y-163743416D01*
X109143133Y-163718606D01*
X109147221Y-163683134D01*
X109151692Y-163643175D01*
X109153464Y-163627000D01*
X109163502Y-163535671D01*
X109172312Y-163457620D01*
X109180308Y-163389273D01*
X109187905Y-163327052D01*
X109191725Y-163296800D01*
X109197153Y-163253703D01*
X109202382Y-163211202D01*
X109206637Y-163175640D01*
X109208290Y-163161260D01*
X109213157Y-163126489D01*
X109217986Y-163108530D01*
X109222620Y-163107265D01*
X109226902Y-163122572D01*
G36*
X107987089Y-162943631D02*
G01*
X108022716Y-162949151D01*
X108046837Y-162960187D01*
X108062839Y-162980020D01*
X108074109Y-163011931D01*
X108078829Y-163032481D01*
X108082778Y-163063223D01*
X108084616Y-163103856D01*
X108084504Y-163149591D01*
X108082601Y-163195639D01*
X108079068Y-163237210D01*
X108074064Y-163269516D01*
X108070476Y-163282322D01*
X108059291Y-163301480D01*
X108040770Y-163314446D01*
X108011396Y-163323007D01*
X107981790Y-163327420D01*
X107934333Y-163332998D01*
X107934333Y-162938848D01*
X107987089Y-162943631D01*
X107987089Y-162943631D01*
G37*
X107987089Y-162943631D02*
X108022716Y-162949151D01*
X108046837Y-162960187D01*
X108062839Y-162980020D01*
X108074109Y-163011931D01*
X108078829Y-163032481D01*
X108082778Y-163063223D01*
X108084616Y-163103856D01*
X108084504Y-163149591D01*
X108082601Y-163195639D01*
X108079068Y-163237210D01*
X108074064Y-163269516D01*
X108070476Y-163282322D01*
X108059291Y-163301480D01*
X108040770Y-163314446D01*
X108011396Y-163323007D01*
X107981790Y-163327420D01*
X107934333Y-163332998D01*
X107934333Y-162938848D01*
X107987089Y-162943631D01*
G36*
X107978783Y-163622816D02*
G01*
X108010332Y-163628025D01*
X108035178Y-163635622D01*
X108054070Y-163647491D01*
X108067758Y-163665517D01*
X108076990Y-163691584D01*
X108082517Y-163727578D01*
X108085086Y-163775382D01*
X108085447Y-163836881D01*
X108084782Y-163889466D01*
X108083555Y-163953736D01*
X108081527Y-164003299D01*
X108077572Y-164040376D01*
X108070564Y-164067192D01*
X108059376Y-164085968D01*
X108042882Y-164098928D01*
X108019958Y-164108294D01*
X107989476Y-164116289D01*
X107967340Y-164121296D01*
X107949064Y-164123129D01*
X107939823Y-164120734D01*
X107938432Y-164111185D01*
X107937170Y-164086855D01*
X107936085Y-164049894D01*
X107935222Y-164002454D01*
X107934627Y-163946686D01*
X107934348Y-163884742D01*
X107934333Y-163866094D01*
X107934333Y-163616944D01*
X107978783Y-163622816D01*
X107978783Y-163622816D01*
G37*
X107978783Y-163622816D02*
X108010332Y-163628025D01*
X108035178Y-163635622D01*
X108054070Y-163647491D01*
X108067758Y-163665517D01*
X108076990Y-163691584D01*
X108082517Y-163727578D01*
X108085086Y-163775382D01*
X108085447Y-163836881D01*
X108084782Y-163889466D01*
X108083555Y-163953736D01*
X108081527Y-164003299D01*
X108077572Y-164040376D01*
X108070564Y-164067192D01*
X108059376Y-164085968D01*
X108042882Y-164098928D01*
X108019958Y-164108294D01*
X107989476Y-164116289D01*
X107967340Y-164121296D01*
X107949064Y-164123129D01*
X107939823Y-164120734D01*
X107938432Y-164111185D01*
X107937170Y-164086855D01*
X107936085Y-164049894D01*
X107935222Y-164002454D01*
X107934627Y-163946686D01*
X107934348Y-163884742D01*
X107934333Y-163866094D01*
X107934333Y-163616944D01*
X107978783Y-163622816D01*
G36*
X110965400Y-164803866D02*
G01*
X105843067Y-164803866D01*
X105843067Y-162623699D01*
X106152100Y-162623699D01*
X106153093Y-162649099D01*
X106154987Y-162670427D01*
X106159510Y-162707078D01*
X106166469Y-162757680D01*
X106175676Y-162820858D01*
X106186939Y-162895241D01*
X106190111Y-162915800D01*
X106195283Y-162949523D01*
X106201825Y-162992644D01*
X106208624Y-163037809D01*
X106211270Y-163055499D01*
X106217848Y-163099345D01*
X106224634Y-163144212D01*
X106230516Y-163182749D01*
X106232437Y-163195199D01*
X106237613Y-163228923D01*
X106244161Y-163272043D01*
X106250967Y-163317208D01*
X106253616Y-163334900D01*
X106270113Y-163445281D01*
X106284308Y-163540179D01*
X106296163Y-163619338D01*
X106305639Y-163682501D01*
X106312699Y-163729410D01*
X106317062Y-163758233D01*
X106325615Y-163814635D01*
X106334871Y-163876077D01*
X106344334Y-163939226D01*
X106353510Y-164000755D01*
X106361901Y-164057334D01*
X106369012Y-164105633D01*
X106374347Y-164142323D01*
X106376320Y-164156166D01*
X106388574Y-164239308D01*
X106403262Y-164331273D01*
X106411498Y-164380569D01*
X106421516Y-164439800D01*
X107144752Y-164439800D01*
X107150711Y-164395350D01*
X107154469Y-164367422D01*
X107159674Y-164328891D01*
X107165490Y-164285932D01*
X107168735Y-164261999D01*
X107175306Y-164213579D01*
X107182949Y-164157241D01*
X107190463Y-164101851D01*
X107194006Y-164075733D01*
X107200401Y-164028096D01*
X107206987Y-163978255D01*
X107207220Y-163976461D01*
X107453240Y-163976461D01*
X107453300Y-164072966D01*
X107453434Y-164160306D01*
X107453640Y-164237364D01*
X107453915Y-164303021D01*
X107454258Y-164356158D01*
X107454665Y-164395657D01*
X107455136Y-164420401D01*
X107455636Y-164429216D01*
X107465011Y-164432235D01*
X107489357Y-164434799D01*
X107526718Y-164436917D01*
X107575137Y-164438595D01*
X107632660Y-164439840D01*
X107697329Y-164440659D01*
X107767189Y-164441058D01*
X107840284Y-164441045D01*
X107914657Y-164440627D01*
X107966190Y-164440055D01*
X108620133Y-164440055D01*
X108867783Y-164437811D01*
X109115433Y-164435566D01*
X109126565Y-164304333D01*
X109130719Y-164256666D01*
X109134731Y-164212943D01*
X109138245Y-164176888D01*
X109140906Y-164152223D01*
X109141765Y-164145583D01*
X109145834Y-164118066D01*
X109225883Y-164118066D01*
X109265995Y-164118741D01*
X109291263Y-164120949D01*
X109303728Y-164124963D01*
X109305933Y-164128794D01*
X109306552Y-164147949D01*
X109308234Y-164178704D01*
X109310717Y-164217553D01*
X109313742Y-164260991D01*
X109317046Y-164305513D01*
X109320369Y-164347612D01*
X109323449Y-164383784D01*
X109326025Y-164410522D01*
X109327836Y-164424322D01*
X109328001Y-164424983D01*
X109330404Y-164429325D01*
X109335919Y-164432730D01*
X109346403Y-164435311D01*
X109363711Y-164437179D01*
X109389698Y-164438448D01*
X109426219Y-164439231D01*
X109475129Y-164439640D01*
X109538283Y-164439788D01*
X109571793Y-164439800D01*
X109633739Y-164439656D01*
X109690024Y-164439251D01*
X109738466Y-164438622D01*
X109776883Y-164437807D01*
X109803092Y-164436844D01*
X109814910Y-164435770D01*
X109815326Y-164435584D01*
X109815753Y-164426776D01*
X109813640Y-164403445D01*
X109808935Y-164365199D01*
X109801585Y-164311645D01*
X109791537Y-164242390D01*
X109778737Y-164157040D01*
X109770854Y-164105366D01*
X109765424Y-164069459D01*
X109758735Y-164024524D01*
X109751935Y-163978295D01*
X109749479Y-163961433D01*
X109745016Y-163930720D01*
X109741091Y-163903833D01*
X109737237Y-163877616D01*
X109732984Y-163848913D01*
X109727863Y-163814567D01*
X109721407Y-163771423D01*
X109713147Y-163716325D01*
X109708003Y-163682033D01*
X109701363Y-163637702D01*
X109694763Y-163593518D01*
X109689143Y-163555784D01*
X109686521Y-163538100D01*
X109674975Y-163460217D01*
X109664483Y-163389864D01*
X109655425Y-163329564D01*
X109648180Y-163281847D01*
X109644610Y-163258700D01*
X109639963Y-163228288D01*
X109633844Y-163187429D01*
X109627192Y-163142437D01*
X109623146Y-163114766D01*
X109616671Y-163070418D01*
X109610180Y-163026218D01*
X109605123Y-162992000D01*
X109686933Y-162992000D01*
X109957866Y-162992000D01*
X109957866Y-163710255D01*
X109957933Y-163819072D01*
X109958126Y-163923012D01*
X109958435Y-164020831D01*
X109958852Y-164111284D01*
X109959364Y-164193129D01*
X109959964Y-164265121D01*
X109960640Y-164326016D01*
X109961384Y-164374570D01*
X109962184Y-164409540D01*
X109963031Y-164429681D01*
X109963640Y-164434284D01*
X109973289Y-164435704D01*
X109997661Y-164436839D01*
X110034546Y-164437658D01*
X110081736Y-164438127D01*
X110137020Y-164438216D01*
X110198191Y-164437892D01*
X110207057Y-164437812D01*
X110444700Y-164435566D01*
X110446667Y-163715900D01*
X110448635Y-162996233D01*
X110588648Y-162993911D01*
X110728662Y-162991589D01*
X110724100Y-162623699D01*
X110205517Y-162621518D01*
X109686933Y-162619336D01*
X109686933Y-162992000D01*
X109605123Y-162992000D01*
X109604602Y-162988479D01*
X109601970Y-162970833D01*
X109588098Y-162878133D01*
X109576651Y-162800988D01*
X109567682Y-162739773D01*
X109561249Y-162694863D01*
X109560563Y-162689966D01*
X109555852Y-162660961D01*
X109550983Y-162638416D01*
X109547635Y-162628583D01*
X109537999Y-162626254D01*
X109513642Y-162624249D01*
X109476772Y-162622568D01*
X109429600Y-162621211D01*
X109374333Y-162620179D01*
X109313181Y-162619471D01*
X109248353Y-162619087D01*
X109182058Y-162619029D01*
X109116505Y-162619295D01*
X109053902Y-162619887D01*
X108996460Y-162620803D01*
X108946387Y-162622046D01*
X108905891Y-162623614D01*
X108877183Y-162625508D01*
X108862470Y-162627728D01*
X108861065Y-162628528D01*
X108857271Y-162640966D01*
X108852558Y-162665166D01*
X108847903Y-162696064D01*
X108847600Y-162698378D01*
X108842012Y-162740722D01*
X108835702Y-162787302D01*
X108831382Y-162818433D01*
X108826824Y-162851728D01*
X108821014Y-162895520D01*
X108814783Y-162943500D01*
X108810224Y-162979300D01*
X108804334Y-163025582D01*
X108798340Y-163071922D01*
X108793030Y-163112275D01*
X108789836Y-163135933D01*
X108785485Y-163167812D01*
X108779762Y-163210162D01*
X108773517Y-163256668D01*
X108769288Y-163288333D01*
X108762935Y-163335985D01*
X108756275Y-163385840D01*
X108750271Y-163430703D01*
X108747221Y-163453433D01*
X108742069Y-163492109D01*
X108735757Y-163539983D01*
X108729283Y-163589461D01*
X108726055Y-163614300D01*
X108719904Y-163661466D01*
X108713358Y-163711154D01*
X108707420Y-163755768D01*
X108704808Y-163775166D01*
X108699752Y-163813096D01*
X108693538Y-163860622D01*
X108687105Y-163910536D01*
X108683324Y-163940266D01*
X108677371Y-163986601D01*
X108671139Y-164033834D01*
X108665508Y-164075356D01*
X108662478Y-164096899D01*
X108657128Y-164135559D01*
X108651085Y-164181534D01*
X108645597Y-164225319D01*
X108645257Y-164228133D01*
X108639998Y-164269599D01*
X108634175Y-164312232D01*
X108628952Y-164347547D01*
X108628419Y-164350900D01*
X108623968Y-164381668D01*
X108620978Y-164408156D01*
X108620197Y-164420877D01*
X108620133Y-164440055D01*
X107966190Y-164440055D01*
X107988353Y-164439809D01*
X108059415Y-164438600D01*
X108125888Y-164437006D01*
X108185815Y-164435034D01*
X108237241Y-164432690D01*
X108278208Y-164429982D01*
X108306762Y-164426917D01*
X108311100Y-164426210D01*
X108372557Y-164411801D01*
X108421120Y-164392094D01*
X108460461Y-164365295D01*
X108484340Y-164341511D01*
X108506462Y-164313169D01*
X108524344Y-164282300D01*
X108538384Y-164246863D01*
X108548979Y-164204813D01*
X108556526Y-164154109D01*
X108561423Y-164092706D01*
X108564067Y-164018562D01*
X108564856Y-163929633D01*
X108564855Y-163927566D01*
X108564733Y-163862740D01*
X108564290Y-163812203D01*
X108563328Y-163773310D01*
X108561649Y-163743416D01*
X108559054Y-163719877D01*
X108555345Y-163700049D01*
X108550324Y-163681288D01*
X108545172Y-163665100D01*
X108526660Y-163615223D01*
X108507418Y-163577802D01*
X108484766Y-163548472D01*
X108459477Y-163525566D01*
X108433702Y-163507981D01*
X108401496Y-163489900D01*
X108367973Y-163473777D01*
X108338249Y-163462071D01*
X108317436Y-163457238D01*
X108317208Y-163457230D01*
X108315159Y-163454410D01*
X108326490Y-163447748D01*
X108336500Y-163443497D01*
X108394715Y-163418628D01*
X108438768Y-163394163D01*
X108471147Y-163367424D01*
X108494341Y-163335737D01*
X108510839Y-163296425D01*
X108523128Y-163246812D01*
X108524110Y-163241766D01*
X108533262Y-163170710D01*
X108533745Y-163095348D01*
X108525546Y-163010950D01*
X108523419Y-162996233D01*
X108509568Y-162921648D01*
X108491861Y-162860679D01*
X108468902Y-162810189D01*
X108439293Y-162767039D01*
X108405673Y-162731764D01*
X108376609Y-162707128D01*
X108346052Y-162686202D01*
X108312451Y-162668721D01*
X108274254Y-162654420D01*
X108229909Y-162643036D01*
X108177864Y-162634304D01*
X108116568Y-162627958D01*
X108044470Y-162623735D01*
X107960017Y-162621369D01*
X107861657Y-162620597D01*
X107756533Y-162621075D01*
X107455967Y-162623699D01*
X107453785Y-163521166D01*
X107453527Y-163643145D01*
X107453351Y-163760432D01*
X107453256Y-163871911D01*
X107453240Y-163976461D01*
X107207220Y-163976461D01*
X107212817Y-163933399D01*
X107215714Y-163910633D01*
X107221051Y-163868767D01*
X107226824Y-163824477D01*
X107231713Y-163787866D01*
X107239710Y-163728761D01*
X107248112Y-163665991D01*
X107256351Y-163603839D01*
X107263864Y-163546587D01*
X107270084Y-163498518D01*
X107273647Y-163470366D01*
X107277944Y-163436506D01*
X107283647Y-163392462D01*
X107289897Y-163344830D01*
X107294026Y-163313733D01*
X107300093Y-163268151D01*
X107307498Y-163212267D01*
X107315385Y-163152570D01*
X107322894Y-163095547D01*
X107324263Y-163085133D01*
X107331007Y-163034100D01*
X107337753Y-162983623D01*
X107343850Y-162938537D01*
X107348645Y-162903680D01*
X107349918Y-162894633D01*
X107360966Y-162815771D01*
X107369469Y-162752446D01*
X107375560Y-162703473D01*
X107379372Y-162667668D01*
X107381038Y-162643846D01*
X107380690Y-162630825D01*
X107379850Y-162628068D01*
X107370147Y-162625569D01*
X107346117Y-162623485D01*
X107310362Y-162621815D01*
X107265482Y-162620561D01*
X107214080Y-162619721D01*
X107158756Y-162619298D01*
X107102113Y-162619290D01*
X107046750Y-162619698D01*
X106995270Y-162620522D01*
X106950274Y-162621762D01*
X106914364Y-162623419D01*
X106890139Y-162625493D01*
X106880203Y-162627984D01*
X106880176Y-162628025D01*
X106877648Y-162638987D01*
X106874060Y-162663787D01*
X106869786Y-162699390D01*
X106865200Y-162742762D01*
X106862192Y-162774075D01*
X106857189Y-162828020D01*
X106852047Y-162883058D01*
X106847263Y-162933899D01*
X106843332Y-162975251D01*
X106842128Y-162987766D01*
X106831319Y-163102368D01*
X106820815Y-163219161D01*
X106810912Y-163334578D01*
X106801905Y-163445050D01*
X106794092Y-163547007D01*
X106787768Y-163636883D01*
X106786059Y-163663277D01*
X106783207Y-163700748D01*
X106779948Y-163731473D01*
X106776724Y-163751821D01*
X106774466Y-163758192D01*
X106771777Y-163751547D01*
X106768260Y-163730844D01*
X106764290Y-163698913D01*
X106760246Y-163658587D01*
X106758401Y-163637248D01*
X106754451Y-163590456D01*
X106750615Y-163547334D01*
X106747261Y-163511834D01*
X106744752Y-163487906D01*
X106744151Y-163483066D01*
X106742000Y-163464647D01*
X106738664Y-163432979D01*
X106734507Y-163391676D01*
X106729898Y-163344352D01*
X106726988Y-163313733D01*
X106719710Y-163236844D01*
X106713281Y-163170122D01*
X106707158Y-163108136D01*
X106700798Y-163045454D01*
X106693656Y-162976643D01*
X106685463Y-162898866D01*
X106679995Y-162846964D01*
X106674546Y-162794854D01*
X106669651Y-162747668D01*
X106665843Y-162710534D01*
X106664934Y-162701536D01*
X106660801Y-162669173D01*
X106655864Y-162643263D01*
X106651062Y-162628535D01*
X106650174Y-162627321D01*
X106639410Y-162625018D01*
X106613153Y-162623210D01*
X106572837Y-162621932D01*
X106519897Y-162621215D01*
X106455766Y-162621094D01*
X106397077Y-162621450D01*
X106152100Y-162623699D01*
X105843067Y-162623699D01*
X105843067Y-162204600D01*
X110965400Y-162204600D01*
X110965400Y-164803866D01*
X110965400Y-164803866D01*
G37*
X110965400Y-164803866D02*
X105843067Y-164803866D01*
X105843067Y-162623699D01*
X106152100Y-162623699D01*
X106153093Y-162649099D01*
X106154987Y-162670427D01*
X106159510Y-162707078D01*
X106166469Y-162757680D01*
X106175676Y-162820858D01*
X106186939Y-162895241D01*
X106190111Y-162915800D01*
X106195283Y-162949523D01*
X106201825Y-162992644D01*
X106208624Y-163037809D01*
X106211270Y-163055499D01*
X106217848Y-163099345D01*
X106224634Y-163144212D01*
X106230516Y-163182749D01*
X106232437Y-163195199D01*
X106237613Y-163228923D01*
X106244161Y-163272043D01*
X106250967Y-163317208D01*
X106253616Y-163334900D01*
X106270113Y-163445281D01*
X106284308Y-163540179D01*
X106296163Y-163619338D01*
X106305639Y-163682501D01*
X106312699Y-163729410D01*
X106317062Y-163758233D01*
X106325615Y-163814635D01*
X106334871Y-163876077D01*
X106344334Y-163939226D01*
X106353510Y-164000755D01*
X106361901Y-164057334D01*
X106369012Y-164105633D01*
X106374347Y-164142323D01*
X106376320Y-164156166D01*
X106388574Y-164239308D01*
X106403262Y-164331273D01*
X106411498Y-164380569D01*
X106421516Y-164439800D01*
X107144752Y-164439800D01*
X107150711Y-164395350D01*
X107154469Y-164367422D01*
X107159674Y-164328891D01*
X107165490Y-164285932D01*
X107168735Y-164261999D01*
X107175306Y-164213579D01*
X107182949Y-164157241D01*
X107190463Y-164101851D01*
X107194006Y-164075733D01*
X107200401Y-164028096D01*
X107206987Y-163978255D01*
X107207220Y-163976461D01*
X107453240Y-163976461D01*
X107453300Y-164072966D01*
X107453434Y-164160306D01*
X107453640Y-164237364D01*
X107453915Y-164303021D01*
X107454258Y-164356158D01*
X107454665Y-164395657D01*
X107455136Y-164420401D01*
X107455636Y-164429216D01*
X107465011Y-164432235D01*
X107489357Y-164434799D01*
X107526718Y-164436917D01*
X107575137Y-164438595D01*
X107632660Y-164439840D01*
X107697329Y-164440659D01*
X107767189Y-164441058D01*
X107840284Y-164441045D01*
X107914657Y-164440627D01*
X107966190Y-164440055D01*
X108620133Y-164440055D01*
X108867783Y-164437811D01*
X109115433Y-164435566D01*
X109126565Y-164304333D01*
X109130719Y-164256666D01*
X109134731Y-164212943D01*
X109138245Y-164176888D01*
X109140906Y-164152223D01*
X109141765Y-164145583D01*
X109145834Y-164118066D01*
X109225883Y-164118066D01*
X109265995Y-164118741D01*
X109291263Y-164120949D01*
X109303728Y-164124963D01*
X109305933Y-164128794D01*
X109306552Y-164147949D01*
X109308234Y-164178704D01*
X109310717Y-164217553D01*
X109313742Y-164260991D01*
X109317046Y-164305513D01*
X109320369Y-164347612D01*
X109323449Y-164383784D01*
X109326025Y-164410522D01*
X109327836Y-164424322D01*
X109328001Y-164424983D01*
X109330404Y-164429325D01*
X109335919Y-164432730D01*
X109346403Y-164435311D01*
X109363711Y-164437179D01*
X109389698Y-164438448D01*
X109426219Y-164439231D01*
X109475129Y-164439640D01*
X109538283Y-164439788D01*
X109571793Y-164439800D01*
X109633739Y-164439656D01*
X109690024Y-164439251D01*
X109738466Y-164438622D01*
X109776883Y-164437807D01*
X109803092Y-164436844D01*
X109814910Y-164435770D01*
X109815326Y-164435584D01*
X109815753Y-164426776D01*
X109813640Y-164403445D01*
X109808935Y-164365199D01*
X109801585Y-164311645D01*
X109791537Y-164242390D01*
X109778737Y-164157040D01*
X109770854Y-164105366D01*
X109765424Y-164069459D01*
X109758735Y-164024524D01*
X109751935Y-163978295D01*
X109749479Y-163961433D01*
X109745016Y-163930720D01*
X109741091Y-163903833D01*
X109737237Y-163877616D01*
X109732984Y-163848913D01*
X109727863Y-163814567D01*
X109721407Y-163771423D01*
X109713147Y-163716325D01*
X109708003Y-163682033D01*
X109701363Y-163637702D01*
X109694763Y-163593518D01*
X109689143Y-163555784D01*
X109686521Y-163538100D01*
X109674975Y-163460217D01*
X109664483Y-163389864D01*
X109655425Y-163329564D01*
X109648180Y-163281847D01*
X109644610Y-163258700D01*
X109639963Y-163228288D01*
X109633844Y-163187429D01*
X109627192Y-163142437D01*
X109623146Y-163114766D01*
X109616671Y-163070418D01*
X109610180Y-163026218D01*
X109605123Y-162992000D01*
X109686933Y-162992000D01*
X109957866Y-162992000D01*
X109957866Y-163710255D01*
X109957933Y-163819072D01*
X109958126Y-163923012D01*
X109958435Y-164020831D01*
X109958852Y-164111284D01*
X109959364Y-164193129D01*
X109959964Y-164265121D01*
X109960640Y-164326016D01*
X109961384Y-164374570D01*
X109962184Y-164409540D01*
X109963031Y-164429681D01*
X109963640Y-164434284D01*
X109973289Y-164435704D01*
X109997661Y-164436839D01*
X110034546Y-164437658D01*
X110081736Y-164438127D01*
X110137020Y-164438216D01*
X110198191Y-164437892D01*
X110207057Y-164437812D01*
X110444700Y-164435566D01*
X110446667Y-163715900D01*
X110448635Y-162996233D01*
X110588648Y-162993911D01*
X110728662Y-162991589D01*
X110724100Y-162623699D01*
X110205517Y-162621518D01*
X109686933Y-162619336D01*
X109686933Y-162992000D01*
X109605123Y-162992000D01*
X109604602Y-162988479D01*
X109601970Y-162970833D01*
X109588098Y-162878133D01*
X109576651Y-162800988D01*
X109567682Y-162739773D01*
X109561249Y-162694863D01*
X109560563Y-162689966D01*
X109555852Y-162660961D01*
X109550983Y-162638416D01*
X109547635Y-162628583D01*
X109537999Y-162626254D01*
X109513642Y-162624249D01*
X109476772Y-162622568D01*
X109429600Y-162621211D01*
X109374333Y-162620179D01*
X109313181Y-162619471D01*
X109248353Y-162619087D01*
X109182058Y-162619029D01*
X109116505Y-162619295D01*
X109053902Y-162619887D01*
X108996460Y-162620803D01*
X108946387Y-162622046D01*
X108905891Y-162623614D01*
X108877183Y-162625508D01*
X108862470Y-162627728D01*
X108861065Y-162628528D01*
X108857271Y-162640966D01*
X108852558Y-162665166D01*
X108847903Y-162696064D01*
X108847600Y-162698378D01*
X108842012Y-162740722D01*
X108835702Y-162787302D01*
X108831382Y-162818433D01*
X108826824Y-162851728D01*
X108821014Y-162895520D01*
X108814783Y-162943500D01*
X108810224Y-162979300D01*
X108804334Y-163025582D01*
X108798340Y-163071922D01*
X108793030Y-163112275D01*
X108789836Y-163135933D01*
X108785485Y-163167812D01*
X108779762Y-163210162D01*
X108773517Y-163256668D01*
X108769288Y-163288333D01*
X108762935Y-163335985D01*
X108756275Y-163385840D01*
X108750271Y-163430703D01*
X108747221Y-163453433D01*
X108742069Y-163492109D01*
X108735757Y-163539983D01*
X108729283Y-163589461D01*
X108726055Y-163614300D01*
X108719904Y-163661466D01*
X108713358Y-163711154D01*
X108707420Y-163755768D01*
X108704808Y-163775166D01*
X108699752Y-163813096D01*
X108693538Y-163860622D01*
X108687105Y-163910536D01*
X108683324Y-163940266D01*
X108677371Y-163986601D01*
X108671139Y-164033834D01*
X108665508Y-164075356D01*
X108662478Y-164096899D01*
X108657128Y-164135559D01*
X108651085Y-164181534D01*
X108645597Y-164225319D01*
X108645257Y-164228133D01*
X108639998Y-164269599D01*
X108634175Y-164312232D01*
X108628952Y-164347547D01*
X108628419Y-164350900D01*
X108623968Y-164381668D01*
X108620978Y-164408156D01*
X108620197Y-164420877D01*
X108620133Y-164440055D01*
X107966190Y-164440055D01*
X107988353Y-164439809D01*
X108059415Y-164438600D01*
X108125888Y-164437006D01*
X108185815Y-164435034D01*
X108237241Y-164432690D01*
X108278208Y-164429982D01*
X108306762Y-164426917D01*
X108311100Y-164426210D01*
X108372557Y-164411801D01*
X108421120Y-164392094D01*
X108460461Y-164365295D01*
X108484340Y-164341511D01*
X108506462Y-164313169D01*
X108524344Y-164282300D01*
X108538384Y-164246863D01*
X108548979Y-164204813D01*
X108556526Y-164154109D01*
X108561423Y-164092706D01*
X108564067Y-164018562D01*
X108564856Y-163929633D01*
X108564855Y-163927566D01*
X108564733Y-163862740D01*
X108564290Y-163812203D01*
X108563328Y-163773310D01*
X108561649Y-163743416D01*
X108559054Y-163719877D01*
X108555345Y-163700049D01*
X108550324Y-163681288D01*
X108545172Y-163665100D01*
X108526660Y-163615223D01*
X108507418Y-163577802D01*
X108484766Y-163548472D01*
X108459477Y-163525566D01*
X108433702Y-163507981D01*
X108401496Y-163489900D01*
X108367973Y-163473777D01*
X108338249Y-163462071D01*
X108317436Y-163457238D01*
X108317208Y-163457230D01*
X108315159Y-163454410D01*
X108326490Y-163447748D01*
X108336500Y-163443497D01*
X108394715Y-163418628D01*
X108438768Y-163394163D01*
X108471147Y-163367424D01*
X108494341Y-163335737D01*
X108510839Y-163296425D01*
X108523128Y-163246812D01*
X108524110Y-163241766D01*
X108533262Y-163170710D01*
X108533745Y-163095348D01*
X108525546Y-163010950D01*
X108523419Y-162996233D01*
X108509568Y-162921648D01*
X108491861Y-162860679D01*
X108468902Y-162810189D01*
X108439293Y-162767039D01*
X108405673Y-162731764D01*
X108376609Y-162707128D01*
X108346052Y-162686202D01*
X108312451Y-162668721D01*
X108274254Y-162654420D01*
X108229909Y-162643036D01*
X108177864Y-162634304D01*
X108116568Y-162627958D01*
X108044470Y-162623735D01*
X107960017Y-162621369D01*
X107861657Y-162620597D01*
X107756533Y-162621075D01*
X107455967Y-162623699D01*
X107453785Y-163521166D01*
X107453527Y-163643145D01*
X107453351Y-163760432D01*
X107453256Y-163871911D01*
X107453240Y-163976461D01*
X107207220Y-163976461D01*
X107212817Y-163933399D01*
X107215714Y-163910633D01*
X107221051Y-163868767D01*
X107226824Y-163824477D01*
X107231713Y-163787866D01*
X107239710Y-163728761D01*
X107248112Y-163665991D01*
X107256351Y-163603839D01*
X107263864Y-163546587D01*
X107270084Y-163498518D01*
X107273647Y-163470366D01*
X107277944Y-163436506D01*
X107283647Y-163392462D01*
X107289897Y-163344830D01*
X107294026Y-163313733D01*
X107300093Y-163268151D01*
X107307498Y-163212267D01*
X107315385Y-163152570D01*
X107322894Y-163095547D01*
X107324263Y-163085133D01*
X107331007Y-163034100D01*
X107337753Y-162983623D01*
X107343850Y-162938537D01*
X107348645Y-162903680D01*
X107349918Y-162894633D01*
X107360966Y-162815771D01*
X107369469Y-162752446D01*
X107375560Y-162703473D01*
X107379372Y-162667668D01*
X107381038Y-162643846D01*
X107380690Y-162630825D01*
X107379850Y-162628068D01*
X107370147Y-162625569D01*
X107346117Y-162623485D01*
X107310362Y-162621815D01*
X107265482Y-162620561D01*
X107214080Y-162619721D01*
X107158756Y-162619298D01*
X107102113Y-162619290D01*
X107046750Y-162619698D01*
X106995270Y-162620522D01*
X106950274Y-162621762D01*
X106914364Y-162623419D01*
X106890139Y-162625493D01*
X106880203Y-162627984D01*
X106880176Y-162628025D01*
X106877648Y-162638987D01*
X106874060Y-162663787D01*
X106869786Y-162699390D01*
X106865200Y-162742762D01*
X106862192Y-162774075D01*
X106857189Y-162828020D01*
X106852047Y-162883058D01*
X106847263Y-162933899D01*
X106843332Y-162975251D01*
X106842128Y-162987766D01*
X106831319Y-163102368D01*
X106820815Y-163219161D01*
X106810912Y-163334578D01*
X106801905Y-163445050D01*
X106794092Y-163547007D01*
X106787768Y-163636883D01*
X106786059Y-163663277D01*
X106783207Y-163700748D01*
X106779948Y-163731473D01*
X106776724Y-163751821D01*
X106774466Y-163758192D01*
X106771777Y-163751547D01*
X106768260Y-163730844D01*
X106764290Y-163698913D01*
X106760246Y-163658587D01*
X106758401Y-163637248D01*
X106754451Y-163590456D01*
X106750615Y-163547334D01*
X106747261Y-163511834D01*
X106744752Y-163487906D01*
X106744151Y-163483066D01*
X106742000Y-163464647D01*
X106738664Y-163432979D01*
X106734507Y-163391676D01*
X106729898Y-163344352D01*
X106726988Y-163313733D01*
X106719710Y-163236844D01*
X106713281Y-163170122D01*
X106707158Y-163108136D01*
X106700798Y-163045454D01*
X106693656Y-162976643D01*
X106685463Y-162898866D01*
X106679995Y-162846964D01*
X106674546Y-162794854D01*
X106669651Y-162747668D01*
X106665843Y-162710534D01*
X106664934Y-162701536D01*
X106660801Y-162669173D01*
X106655864Y-162643263D01*
X106651062Y-162628535D01*
X106650174Y-162627321D01*
X106639410Y-162625018D01*
X106613153Y-162623210D01*
X106572837Y-162621932D01*
X106519897Y-162621215D01*
X106455766Y-162621094D01*
X106397077Y-162621450D01*
X106152100Y-162623699D01*
X105843067Y-162623699D01*
X105843067Y-162204600D01*
X110965400Y-162204600D01*
X110965400Y-164803866D01*
G36*
X87742213Y-125997682D02*
G01*
X87774773Y-126073640D01*
X87765474Y-126216712D01*
X87724304Y-126439025D01*
X87702230Y-126547540D01*
X87558730Y-127051065D01*
X87346775Y-127485231D01*
X87065425Y-127850966D01*
X86713744Y-128149199D01*
X86290793Y-128380857D01*
X85795633Y-128546869D01*
X85646106Y-128581257D01*
X85336538Y-128646148D01*
X85336538Y-128440118D01*
X85356994Y-128220126D01*
X85411871Y-127948991D01*
X85491433Y-127662715D01*
X85585944Y-127397297D01*
X85664964Y-127225687D01*
X85897463Y-126888617D01*
X86208685Y-126587730D01*
X86582864Y-126334396D01*
X87004236Y-126139985D01*
X87293505Y-126051211D01*
X87511566Y-125998595D01*
X87657806Y-125976710D01*
X87742213Y-125997682D01*
X87742213Y-125997682D01*
G37*
X87742213Y-125997682D02*
X87774773Y-126073640D01*
X87765474Y-126216712D01*
X87724304Y-126439025D01*
X87702230Y-126547540D01*
X87558730Y-127051065D01*
X87346775Y-127485231D01*
X87065425Y-127850966D01*
X86713744Y-128149199D01*
X86290793Y-128380857D01*
X85795633Y-128546869D01*
X85646106Y-128581257D01*
X85336538Y-128646148D01*
X85336538Y-128440118D01*
X85356994Y-128220126D01*
X85411871Y-127948991D01*
X85491433Y-127662715D01*
X85585944Y-127397297D01*
X85664964Y-127225687D01*
X85897463Y-126888617D01*
X86208685Y-126587730D01*
X86582864Y-126334396D01*
X87004236Y-126139985D01*
X87293505Y-126051211D01*
X87511566Y-125998595D01*
X87657806Y-125976710D01*
X87742213Y-125997682D01*
G36*
X82577471Y-126723734D02*
G01*
X82700874Y-126762886D01*
X82867910Y-126829570D01*
X83057226Y-126914698D01*
X83247467Y-127009185D01*
X83414216Y-127102101D01*
X83684018Y-127301450D01*
X83950261Y-127564396D01*
X84192265Y-127865004D01*
X84389350Y-128177340D01*
X84520837Y-128475469D01*
X84528327Y-128499327D01*
X84543705Y-128567884D01*
X84526528Y-128598482D01*
X84461205Y-128590826D01*
X84332145Y-128544624D01*
X84205383Y-128493245D01*
X83733647Y-128259668D01*
X83339505Y-127975310D01*
X83011769Y-127630151D01*
X82739252Y-127214173D01*
X82704674Y-127149338D01*
X82615848Y-126971470D01*
X82551163Y-126827995D01*
X82519423Y-126739220D01*
X82519056Y-126721200D01*
X82577471Y-126723734D01*
X82577471Y-126723734D01*
G37*
X82577471Y-126723734D02*
X82700874Y-126762886D01*
X82867910Y-126829570D01*
X83057226Y-126914698D01*
X83247467Y-127009185D01*
X83414216Y-127102101D01*
X83684018Y-127301450D01*
X83950261Y-127564396D01*
X84192265Y-127865004D01*
X84389350Y-128177340D01*
X84520837Y-128475469D01*
X84528327Y-128499327D01*
X84543705Y-128567884D01*
X84526528Y-128598482D01*
X84461205Y-128590826D01*
X84332145Y-128544624D01*
X84205383Y-128493245D01*
X83733647Y-128259668D01*
X83339505Y-127975310D01*
X83011769Y-127630151D01*
X82739252Y-127214173D01*
X82704674Y-127149338D01*
X82615848Y-126971470D01*
X82551163Y-126827995D01*
X82519423Y-126739220D01*
X82519056Y-126721200D01*
X82577471Y-126723734D01*
G36*
X91051244Y-127997779D02*
G01*
X91308368Y-128072020D01*
X91492694Y-128202352D01*
X91611102Y-128394171D01*
X91670473Y-128652874D01*
X91676936Y-128729268D01*
X91680870Y-128914246D01*
X91659212Y-129043619D01*
X91603543Y-129157951D01*
X91580747Y-129192743D01*
X91435415Y-129361318D01*
X91256343Y-129474640D01*
X91022306Y-129542639D01*
X90770435Y-129571816D01*
X90586324Y-129579211D01*
X90441144Y-129575957D01*
X90361360Y-129562867D01*
X90355480Y-129559039D01*
X90342986Y-129499476D01*
X90332323Y-129359754D01*
X90324282Y-129157399D01*
X90319654Y-128909941D01*
X90318846Y-128747628D01*
X90318846Y-127974231D01*
X90714445Y-127974231D01*
X91051244Y-127997779D01*
X91051244Y-127997779D01*
G37*
X91051244Y-127997779D02*
X91308368Y-128072020D01*
X91492694Y-128202352D01*
X91611102Y-128394171D01*
X91670473Y-128652874D01*
X91676936Y-128729268D01*
X91680870Y-128914246D01*
X91659212Y-129043619D01*
X91603543Y-129157951D01*
X91580747Y-129192743D01*
X91435415Y-129361318D01*
X91256343Y-129474640D01*
X91022306Y-129542639D01*
X90770435Y-129571816D01*
X90586324Y-129579211D01*
X90441144Y-129575957D01*
X90361360Y-129562867D01*
X90355480Y-129559039D01*
X90342986Y-129499476D01*
X90332323Y-129359754D01*
X90324282Y-129157399D01*
X90319654Y-128909941D01*
X90318846Y-128747628D01*
X90318846Y-127974231D01*
X90714445Y-127974231D01*
X91051244Y-127997779D01*
G36*
X85567271Y-129412767D02*
G01*
X85740003Y-129471558D01*
X85989334Y-129582318D01*
X86063129Y-129617778D01*
X86459563Y-129862031D01*
X86818531Y-130185637D01*
X87124197Y-130572684D01*
X87283306Y-130843942D01*
X87381066Y-131046058D01*
X87432610Y-131181318D01*
X87435441Y-131242745D01*
X87427184Y-131245763D01*
X87350408Y-131227505D01*
X87216134Y-131181334D01*
X87087306Y-131130937D01*
X86620961Y-130901145D01*
X86232724Y-130623795D01*
X85910237Y-130288202D01*
X85641141Y-129883682D01*
X85637891Y-129877835D01*
X85545268Y-129703537D01*
X85474763Y-129557041D01*
X85437785Y-129462587D01*
X85434876Y-129446531D01*
X85466956Y-129404804D01*
X85567271Y-129412767D01*
X85567271Y-129412767D01*
G37*
X85567271Y-129412767D02*
X85740003Y-129471558D01*
X85989334Y-129582318D01*
X86063129Y-129617778D01*
X86459563Y-129862031D01*
X86818531Y-130185637D01*
X87124197Y-130572684D01*
X87283306Y-130843942D01*
X87381066Y-131046058D01*
X87432610Y-131181318D01*
X87435441Y-131242745D01*
X87427184Y-131245763D01*
X87350408Y-131227505D01*
X87216134Y-131181334D01*
X87087306Y-131130937D01*
X86620961Y-130901145D01*
X86232724Y-130623795D01*
X85910237Y-130288202D01*
X85641141Y-129883682D01*
X85637891Y-129877835D01*
X85545268Y-129703537D01*
X85474763Y-129557041D01*
X85437785Y-129462587D01*
X85434876Y-129446531D01*
X85466956Y-129404804D01*
X85567271Y-129412767D01*
G36*
X84613887Y-129358287D02*
G01*
X84645833Y-129405317D01*
X84652692Y-129490468D01*
X84652692Y-129491030D01*
X84633790Y-129692560D01*
X84583039Y-129948255D01*
X84509373Y-130223507D01*
X84421724Y-130483709D01*
X84356191Y-130639728D01*
X84122046Y-131024278D01*
X83810942Y-131354032D01*
X83429954Y-131624023D01*
X82986154Y-131829282D01*
X82486614Y-131964840D01*
X82463825Y-131969061D01*
X82210384Y-132015125D01*
X82210384Y-131834222D01*
X82230732Y-131627301D01*
X82285665Y-131365986D01*
X82366023Y-131083233D01*
X82462642Y-130811998D01*
X82547663Y-130621124D01*
X82779603Y-130267666D01*
X83091956Y-129958682D01*
X83474822Y-129701392D01*
X83918303Y-129503020D01*
X84195704Y-129418748D01*
X84406004Y-129367721D01*
X84539671Y-129346661D01*
X84613887Y-129358287D01*
X84613887Y-129358287D01*
G37*
X84613887Y-129358287D02*
X84645833Y-129405317D01*
X84652692Y-129490468D01*
X84652692Y-129491030D01*
X84633790Y-129692560D01*
X84583039Y-129948255D01*
X84509373Y-130223507D01*
X84421724Y-130483709D01*
X84356191Y-130639728D01*
X84122046Y-131024278D01*
X83810942Y-131354032D01*
X83429954Y-131624023D01*
X82986154Y-131829282D01*
X82486614Y-131964840D01*
X82463825Y-131969061D01*
X82210384Y-132015125D01*
X82210384Y-131834222D01*
X82230732Y-131627301D01*
X82285665Y-131365986D01*
X82366023Y-131083233D01*
X82462642Y-130811998D01*
X82547663Y-130621124D01*
X82779603Y-130267666D01*
X83091956Y-129958682D01*
X83474822Y-129701392D01*
X83918303Y-129503020D01*
X84195704Y-129418748D01*
X84406004Y-129367721D01*
X84539671Y-129346661D01*
X84613887Y-129358287D01*
G36*
X96717692Y-132907692D02*
G01*
X81331154Y-132907692D01*
X81331154Y-132118599D01*
X81935427Y-132118599D01*
X81963380Y-132214856D01*
X82031358Y-132259418D01*
X82148130Y-132267295D01*
X82283654Y-132257170D01*
X82482643Y-132226619D01*
X82724833Y-132172407D01*
X82962073Y-132105502D01*
X82991542Y-132095948D01*
X83480917Y-131887319D01*
X83903235Y-131609892D01*
X84254405Y-131269242D01*
X84530342Y-130870943D01*
X84726956Y-130420571D01*
X84840161Y-129923699D01*
X84867757Y-129537308D01*
X84871663Y-129155063D01*
X85099365Y-129155063D01*
X85118262Y-129305754D01*
X85188807Y-129522629D01*
X85309103Y-129798558D01*
X85345400Y-129873248D01*
X85618545Y-130321709D01*
X85963020Y-130716235D01*
X86365267Y-131043193D01*
X86704230Y-131239548D01*
X86941028Y-131346670D01*
X87179341Y-131440319D01*
X87397950Y-131513532D01*
X87575637Y-131559344D01*
X87691182Y-131570792D01*
X87705577Y-131568175D01*
X87736444Y-131515391D01*
X87749396Y-131403400D01*
X87749131Y-131379331D01*
X87717748Y-131217333D01*
X87638804Y-131000966D01*
X87523578Y-130753841D01*
X87383356Y-130499568D01*
X87229419Y-130261758D01*
X87187666Y-130204367D01*
X86873460Y-129860511D01*
X86697605Y-129725153D01*
X87632307Y-129725153D01*
X87667746Y-129823018D01*
X87757985Y-129850556D01*
X87827692Y-129828386D01*
X87869002Y-129772859D01*
X87938947Y-129641648D01*
X88019092Y-129473401D01*
X88231198Y-129473401D01*
X88313499Y-129543525D01*
X88484554Y-129575665D01*
X88653553Y-129575999D01*
X88825820Y-129566039D01*
X88922299Y-129549255D01*
X88964863Y-129516381D01*
X88975388Y-129458153D01*
X88975577Y-129439615D01*
X88970210Y-129376490D01*
X88940197Y-129338793D01*
X88864668Y-129318496D01*
X88722755Y-129307574D01*
X88620736Y-129303134D01*
X88428303Y-129299531D01*
X88312662Y-129310131D01*
X88253528Y-129338192D01*
X88236713Y-129364814D01*
X88231198Y-129473401D01*
X88019092Y-129473401D01*
X88030273Y-129449929D01*
X88135726Y-129212880D01*
X88238918Y-128967968D01*
X88347455Y-128704725D01*
X88443320Y-128474103D01*
X88520356Y-128290767D01*
X88572403Y-128169377D01*
X88593053Y-128124840D01*
X88608869Y-128117057D01*
X88631320Y-128136624D01*
X88665590Y-128194218D01*
X88716864Y-128300519D01*
X88790325Y-128466202D01*
X88891157Y-128701946D01*
X89009304Y-128982152D01*
X89122426Y-129246618D01*
X89225807Y-129479550D01*
X89312512Y-129666004D01*
X89375602Y-129791035D01*
X89407148Y-129839188D01*
X89487832Y-129845267D01*
X89579736Y-129804321D01*
X89633262Y-129740598D01*
X89635000Y-129727787D01*
X89616524Y-129668822D01*
X89565789Y-129537045D01*
X89489829Y-129349087D01*
X89395682Y-129121577D01*
X89290383Y-128871145D01*
X89238720Y-128749922D01*
X89976923Y-128749922D01*
X89978359Y-129094354D01*
X89984221Y-129354177D01*
X89996838Y-129542454D01*
X90018541Y-129672246D01*
X90051658Y-129756614D01*
X90098520Y-129808620D01*
X90161457Y-129841327D01*
X90172307Y-129845332D01*
X90296777Y-129867230D01*
X90486234Y-129875464D01*
X90709100Y-129871171D01*
X90933799Y-129855490D01*
X91128752Y-129829558D01*
X91225846Y-129807364D01*
X91512581Y-129678564D01*
X91737499Y-129491444D01*
X91899455Y-129260968D01*
X91997303Y-129002099D01*
X92001830Y-128964274D01*
X92858846Y-128964274D01*
X92861855Y-129307457D01*
X92871152Y-129558995D01*
X92887138Y-129724759D01*
X92910215Y-129810620D01*
X92917461Y-129820615D01*
X92995650Y-129873843D01*
X93071506Y-129849364D01*
X93125227Y-129801256D01*
X93157828Y-129719956D01*
X93180924Y-129564876D01*
X93194868Y-129356842D01*
X93200009Y-129116676D01*
X93196698Y-128865202D01*
X93185286Y-128623244D01*
X93172140Y-128478066D01*
X94323600Y-128478066D01*
X94324230Y-128826611D01*
X94324986Y-129156783D01*
X94328009Y-129402554D01*
X94334435Y-129577211D01*
X94345401Y-129694039D01*
X94362042Y-129766324D01*
X94385493Y-129807351D01*
X94409711Y-129826472D01*
X94483145Y-129867721D01*
X94503914Y-129877745D01*
X94540439Y-129849266D01*
X94589395Y-129802472D01*
X94617587Y-129759847D01*
X94638138Y-129687549D01*
X94652160Y-129571803D01*
X94660763Y-129398834D01*
X94665056Y-129154865D01*
X94666154Y-128849972D01*
X94666154Y-127974231D01*
X95156835Y-127974231D01*
X95383434Y-127975978D01*
X95534964Y-127984180D01*
X95634029Y-128003274D01*
X95703232Y-128037699D01*
X95765176Y-128091894D01*
X95767412Y-128094126D01*
X95868565Y-128239456D01*
X95873826Y-128382445D01*
X95818134Y-128489991D01*
X95768200Y-128536979D01*
X95686490Y-128568911D01*
X95552414Y-128590465D01*
X95345382Y-128606314D01*
X95293038Y-128609231D01*
X95080382Y-128621703D01*
X94946887Y-128635386D01*
X94874132Y-128656199D01*
X94843701Y-128690062D01*
X94837173Y-128742895D01*
X94837115Y-128755769D01*
X94840392Y-128810976D01*
X94862030Y-128846973D01*
X94919736Y-128868623D01*
X95031218Y-128880792D01*
X95214184Y-128888343D01*
X95332084Y-128891742D01*
X95559359Y-128896536D01*
X95712460Y-128893026D01*
X95814810Y-128877231D01*
X95889831Y-128845170D01*
X95960948Y-128792862D01*
X95972960Y-128782827D01*
X96137776Y-128589238D01*
X96212132Y-128371455D01*
X96195006Y-128144597D01*
X96085371Y-127923780D01*
X96035356Y-127862167D01*
X95895566Y-127705577D01*
X95211219Y-127689737D01*
X94931004Y-127682436D01*
X94716824Y-127682721D01*
X94559842Y-127701921D01*
X94451221Y-127751361D01*
X94382124Y-127842368D01*
X94343713Y-127986270D01*
X94327151Y-128194394D01*
X94323600Y-128478066D01*
X93172140Y-128478066D01*
X93166123Y-128411627D01*
X93139561Y-128251173D01*
X93105949Y-128162707D01*
X93097504Y-128154886D01*
X92991019Y-128127235D01*
X92938754Y-128135885D01*
X92908697Y-128158368D01*
X92887138Y-128208488D01*
X92872726Y-128300265D01*
X92864108Y-128447717D01*
X92859932Y-128664866D01*
X92858846Y-128964274D01*
X92001830Y-128964274D01*
X92029896Y-128729800D01*
X91996091Y-128459035D01*
X91894740Y-128204766D01*
X91724699Y-127981957D01*
X91519897Y-127831363D01*
X92039777Y-127831363D01*
X92055804Y-127885348D01*
X92116457Y-127923966D01*
X92232452Y-127949652D01*
X92414502Y-127964840D01*
X92673321Y-127971965D01*
X92999154Y-127973483D01*
X93282780Y-127970960D01*
X93534722Y-127964427D01*
X93737776Y-127954674D01*
X93874740Y-127942488D01*
X93926056Y-127930995D01*
X93973294Y-127853695D01*
X93974269Y-127797416D01*
X93962091Y-127765426D01*
X93930888Y-127741504D01*
X93867608Y-127724209D01*
X93759200Y-127712100D01*
X93592612Y-127703735D01*
X93354793Y-127697673D01*
X93032692Y-127692474D01*
X93022586Y-127692330D01*
X92695525Y-127688483D01*
X92453088Y-127688146D01*
X92282238Y-127692228D01*
X92169943Y-127701637D01*
X92103167Y-127717283D01*
X92068875Y-127740073D01*
X92057665Y-127759579D01*
X92039777Y-127831363D01*
X91519897Y-127831363D01*
X91484822Y-127805572D01*
X91382819Y-127757014D01*
X91240184Y-127718586D01*
X91042014Y-127692483D01*
X90812625Y-127678691D01*
X90576334Y-127677192D01*
X90357455Y-127687970D01*
X90180305Y-127711008D01*
X90069199Y-127746291D01*
X90053681Y-127757912D01*
X90026066Y-127799547D01*
X90005769Y-127870184D01*
X89991749Y-127983282D01*
X89982964Y-128152299D01*
X89978372Y-128390695D01*
X89976933Y-128711930D01*
X89976923Y-128749922D01*
X89238720Y-128749922D01*
X89180970Y-128614419D01*
X89074477Y-128368030D01*
X88977941Y-128148607D01*
X88898399Y-127972779D01*
X88846536Y-127864327D01*
X88743717Y-127728222D01*
X88626248Y-127677602D01*
X88510424Y-127715421D01*
X88442276Y-127791058D01*
X88391370Y-127885235D01*
X88314757Y-128046759D01*
X88219576Y-128258585D01*
X88112964Y-128503667D01*
X88002059Y-128764962D01*
X87894000Y-129025425D01*
X87795924Y-129268012D01*
X87714969Y-129475677D01*
X87658274Y-129631376D01*
X87632976Y-129718064D01*
X87632307Y-129725153D01*
X86697605Y-129725153D01*
X86484771Y-129561332D01*
X86038805Y-129317783D01*
X85552765Y-129140816D01*
X85490701Y-129124091D01*
X85325322Y-129087950D01*
X85195405Y-129071792D01*
X85134008Y-129077685D01*
X85099365Y-129155063D01*
X84871663Y-129155063D01*
X84872500Y-129073269D01*
X84628269Y-129087591D01*
X84453404Y-129108440D01*
X84233988Y-129149018D01*
X84027501Y-129198004D01*
X83519670Y-129378441D01*
X83081770Y-129627059D01*
X82713974Y-129943651D01*
X82416451Y-130328007D01*
X82189374Y-130779920D01*
X82032914Y-131299180D01*
X81964514Y-131710961D01*
X81938729Y-131955638D01*
X81935427Y-132118599D01*
X81331154Y-132118599D01*
X81331154Y-126509377D01*
X82192615Y-126509377D01*
X82209020Y-126644377D01*
X82231117Y-126724051D01*
X82412998Y-127182503D01*
X82674492Y-127605693D01*
X83016346Y-127999999D01*
X83312221Y-128273756D01*
X83599550Y-128483009D01*
X83914011Y-128650364D01*
X84258283Y-128786876D01*
X84525955Y-128867983D01*
X84721907Y-128897747D01*
X84841993Y-128875836D01*
X84876409Y-128836466D01*
X84873005Y-128749656D01*
X84847525Y-128655751D01*
X85042285Y-128655751D01*
X85049647Y-128804647D01*
X85076025Y-128869743D01*
X85166474Y-128898631D01*
X85341088Y-128893781D01*
X85592533Y-128855686D01*
X85742088Y-128824918D01*
X85949260Y-128766788D01*
X86199564Y-128678265D01*
X86449993Y-128575046D01*
X86537742Y-128534516D01*
X86788401Y-128405092D01*
X86981266Y-128279455D01*
X87151793Y-128132276D01*
X87267007Y-128013541D01*
X87532127Y-127666372D01*
X87748941Y-127260302D01*
X87907615Y-126821942D01*
X87998312Y-126377903D01*
X88013594Y-125993522D01*
X87998654Y-125702884D01*
X87730000Y-125714344D01*
X87415969Y-125756028D01*
X87059536Y-125850421D01*
X86693284Y-125987615D01*
X86447671Y-126104253D01*
X86121062Y-126319701D01*
X85813188Y-126605339D01*
X85550009Y-126933932D01*
X85383934Y-127220154D01*
X85299002Y-127427860D01*
X85220482Y-127673820D01*
X85151962Y-127938811D01*
X85097031Y-128203611D01*
X85059276Y-128448998D01*
X85042285Y-128655751D01*
X84847525Y-128655751D01*
X84832165Y-128599143D01*
X84762625Y-128407317D01*
X84673118Y-128196566D01*
X84572378Y-127989282D01*
X84485375Y-127834071D01*
X84181103Y-127425042D01*
X83804060Y-127069200D01*
X83369471Y-126777300D01*
X82892560Y-126560099D01*
X82536121Y-126457021D01*
X82345446Y-126425084D01*
X82234518Y-126439407D01*
X82192615Y-126509377D01*
X81331154Y-126509377D01*
X81331154Y-125092308D01*
X96717692Y-125092308D01*
X96717692Y-132907692D01*
X96717692Y-132907692D01*
G37*
X96717692Y-132907692D02*
X81331154Y-132907692D01*
X81331154Y-132118599D01*
X81935427Y-132118599D01*
X81963380Y-132214856D01*
X82031358Y-132259418D01*
X82148130Y-132267295D01*
X82283654Y-132257170D01*
X82482643Y-132226619D01*
X82724833Y-132172407D01*
X82962073Y-132105502D01*
X82991542Y-132095948D01*
X83480917Y-131887319D01*
X83903235Y-131609892D01*
X84254405Y-131269242D01*
X84530342Y-130870943D01*
X84726956Y-130420571D01*
X84840161Y-129923699D01*
X84867757Y-129537308D01*
X84871663Y-129155063D01*
X85099365Y-129155063D01*
X85118262Y-129305754D01*
X85188807Y-129522629D01*
X85309103Y-129798558D01*
X85345400Y-129873248D01*
X85618545Y-130321709D01*
X85963020Y-130716235D01*
X86365267Y-131043193D01*
X86704230Y-131239548D01*
X86941028Y-131346670D01*
X87179341Y-131440319D01*
X87397950Y-131513532D01*
X87575637Y-131559344D01*
X87691182Y-131570792D01*
X87705577Y-131568175D01*
X87736444Y-131515391D01*
X87749396Y-131403400D01*
X87749131Y-131379331D01*
X87717748Y-131217333D01*
X87638804Y-131000966D01*
X87523578Y-130753841D01*
X87383356Y-130499568D01*
X87229419Y-130261758D01*
X87187666Y-130204367D01*
X86873460Y-129860511D01*
X86697605Y-129725153D01*
X87632307Y-129725153D01*
X87667746Y-129823018D01*
X87757985Y-129850556D01*
X87827692Y-129828386D01*
X87869002Y-129772859D01*
X87938947Y-129641648D01*
X88019092Y-129473401D01*
X88231198Y-129473401D01*
X88313499Y-129543525D01*
X88484554Y-129575665D01*
X88653553Y-129575999D01*
X88825820Y-129566039D01*
X88922299Y-129549255D01*
X88964863Y-129516381D01*
X88975388Y-129458153D01*
X88975577Y-129439615D01*
X88970210Y-129376490D01*
X88940197Y-129338793D01*
X88864668Y-129318496D01*
X88722755Y-129307574D01*
X88620736Y-129303134D01*
X88428303Y-129299531D01*
X88312662Y-129310131D01*
X88253528Y-129338192D01*
X88236713Y-129364814D01*
X88231198Y-129473401D01*
X88019092Y-129473401D01*
X88030273Y-129449929D01*
X88135726Y-129212880D01*
X88238918Y-128967968D01*
X88347455Y-128704725D01*
X88443320Y-128474103D01*
X88520356Y-128290767D01*
X88572403Y-128169377D01*
X88593053Y-128124840D01*
X88608869Y-128117057D01*
X88631320Y-128136624D01*
X88665590Y-128194218D01*
X88716864Y-128300519D01*
X88790325Y-128466202D01*
X88891157Y-128701946D01*
X89009304Y-128982152D01*
X89122426Y-129246618D01*
X89225807Y-129479550D01*
X89312512Y-129666004D01*
X89375602Y-129791035D01*
X89407148Y-129839188D01*
X89487832Y-129845267D01*
X89579736Y-129804321D01*
X89633262Y-129740598D01*
X89635000Y-129727787D01*
X89616524Y-129668822D01*
X89565789Y-129537045D01*
X89489829Y-129349087D01*
X89395682Y-129121577D01*
X89290383Y-128871145D01*
X89238720Y-128749922D01*
X89976923Y-128749922D01*
X89978359Y-129094354D01*
X89984221Y-129354177D01*
X89996838Y-129542454D01*
X90018541Y-129672246D01*
X90051658Y-129756614D01*
X90098520Y-129808620D01*
X90161457Y-129841327D01*
X90172307Y-129845332D01*
X90296777Y-129867230D01*
X90486234Y-129875464D01*
X90709100Y-129871171D01*
X90933799Y-129855490D01*
X91128752Y-129829558D01*
X91225846Y-129807364D01*
X91512581Y-129678564D01*
X91737499Y-129491444D01*
X91899455Y-129260968D01*
X91997303Y-129002099D01*
X92001830Y-128964274D01*
X92858846Y-128964274D01*
X92861855Y-129307457D01*
X92871152Y-129558995D01*
X92887138Y-129724759D01*
X92910215Y-129810620D01*
X92917461Y-129820615D01*
X92995650Y-129873843D01*
X93071506Y-129849364D01*
X93125227Y-129801256D01*
X93157828Y-129719956D01*
X93180924Y-129564876D01*
X93194868Y-129356842D01*
X93200009Y-129116676D01*
X93196698Y-128865202D01*
X93185286Y-128623244D01*
X93172140Y-128478066D01*
X94323600Y-128478066D01*
X94324230Y-128826611D01*
X94324986Y-129156783D01*
X94328009Y-129402554D01*
X94334435Y-129577211D01*
X94345401Y-129694039D01*
X94362042Y-129766324D01*
X94385493Y-129807351D01*
X94409711Y-129826472D01*
X94483145Y-129867721D01*
X94503914Y-129877745D01*
X94540439Y-129849266D01*
X94589395Y-129802472D01*
X94617587Y-129759847D01*
X94638138Y-129687549D01*
X94652160Y-129571803D01*
X94660763Y-129398834D01*
X94665056Y-129154865D01*
X94666154Y-128849972D01*
X94666154Y-127974231D01*
X95156835Y-127974231D01*
X95383434Y-127975978D01*
X95534964Y-127984180D01*
X95634029Y-128003274D01*
X95703232Y-128037699D01*
X95765176Y-128091894D01*
X95767412Y-128094126D01*
X95868565Y-128239456D01*
X95873826Y-128382445D01*
X95818134Y-128489991D01*
X95768200Y-128536979D01*
X95686490Y-128568911D01*
X95552414Y-128590465D01*
X95345382Y-128606314D01*
X95293038Y-128609231D01*
X95080382Y-128621703D01*
X94946887Y-128635386D01*
X94874132Y-128656199D01*
X94843701Y-128690062D01*
X94837173Y-128742895D01*
X94837115Y-128755769D01*
X94840392Y-128810976D01*
X94862030Y-128846973D01*
X94919736Y-128868623D01*
X95031218Y-128880792D01*
X95214184Y-128888343D01*
X95332084Y-128891742D01*
X95559359Y-128896536D01*
X95712460Y-128893026D01*
X95814810Y-128877231D01*
X95889831Y-128845170D01*
X95960948Y-128792862D01*
X95972960Y-128782827D01*
X96137776Y-128589238D01*
X96212132Y-128371455D01*
X96195006Y-128144597D01*
X96085371Y-127923780D01*
X96035356Y-127862167D01*
X95895566Y-127705577D01*
X95211219Y-127689737D01*
X94931004Y-127682436D01*
X94716824Y-127682721D01*
X94559842Y-127701921D01*
X94451221Y-127751361D01*
X94382124Y-127842368D01*
X94343713Y-127986270D01*
X94327151Y-128194394D01*
X94323600Y-128478066D01*
X93172140Y-128478066D01*
X93166123Y-128411627D01*
X93139561Y-128251173D01*
X93105949Y-128162707D01*
X93097504Y-128154886D01*
X92991019Y-128127235D01*
X92938754Y-128135885D01*
X92908697Y-128158368D01*
X92887138Y-128208488D01*
X92872726Y-128300265D01*
X92864108Y-128447717D01*
X92859932Y-128664866D01*
X92858846Y-128964274D01*
X92001830Y-128964274D01*
X92029896Y-128729800D01*
X91996091Y-128459035D01*
X91894740Y-128204766D01*
X91724699Y-127981957D01*
X91519897Y-127831363D01*
X92039777Y-127831363D01*
X92055804Y-127885348D01*
X92116457Y-127923966D01*
X92232452Y-127949652D01*
X92414502Y-127964840D01*
X92673321Y-127971965D01*
X92999154Y-127973483D01*
X93282780Y-127970960D01*
X93534722Y-127964427D01*
X93737776Y-127954674D01*
X93874740Y-127942488D01*
X93926056Y-127930995D01*
X93973294Y-127853695D01*
X93974269Y-127797416D01*
X93962091Y-127765426D01*
X93930888Y-127741504D01*
X93867608Y-127724209D01*
X93759200Y-127712100D01*
X93592612Y-127703735D01*
X93354793Y-127697673D01*
X93032692Y-127692474D01*
X93022586Y-127692330D01*
X92695525Y-127688483D01*
X92453088Y-127688146D01*
X92282238Y-127692228D01*
X92169943Y-127701637D01*
X92103167Y-127717283D01*
X92068875Y-127740073D01*
X92057665Y-127759579D01*
X92039777Y-127831363D01*
X91519897Y-127831363D01*
X91484822Y-127805572D01*
X91382819Y-127757014D01*
X91240184Y-127718586D01*
X91042014Y-127692483D01*
X90812625Y-127678691D01*
X90576334Y-127677192D01*
X90357455Y-127687970D01*
X90180305Y-127711008D01*
X90069199Y-127746291D01*
X90053681Y-127757912D01*
X90026066Y-127799547D01*
X90005769Y-127870184D01*
X89991749Y-127983282D01*
X89982964Y-128152299D01*
X89978372Y-128390695D01*
X89976933Y-128711930D01*
X89976923Y-128749922D01*
X89238720Y-128749922D01*
X89180970Y-128614419D01*
X89074477Y-128368030D01*
X88977941Y-128148607D01*
X88898399Y-127972779D01*
X88846536Y-127864327D01*
X88743717Y-127728222D01*
X88626248Y-127677602D01*
X88510424Y-127715421D01*
X88442276Y-127791058D01*
X88391370Y-127885235D01*
X88314757Y-128046759D01*
X88219576Y-128258585D01*
X88112964Y-128503667D01*
X88002059Y-128764962D01*
X87894000Y-129025425D01*
X87795924Y-129268012D01*
X87714969Y-129475677D01*
X87658274Y-129631376D01*
X87632976Y-129718064D01*
X87632307Y-129725153D01*
X86697605Y-129725153D01*
X86484771Y-129561332D01*
X86038805Y-129317783D01*
X85552765Y-129140816D01*
X85490701Y-129124091D01*
X85325322Y-129087950D01*
X85195405Y-129071792D01*
X85134008Y-129077685D01*
X85099365Y-129155063D01*
X84871663Y-129155063D01*
X84872500Y-129073269D01*
X84628269Y-129087591D01*
X84453404Y-129108440D01*
X84233988Y-129149018D01*
X84027501Y-129198004D01*
X83519670Y-129378441D01*
X83081770Y-129627059D01*
X82713974Y-129943651D01*
X82416451Y-130328007D01*
X82189374Y-130779920D01*
X82032914Y-131299180D01*
X81964514Y-131710961D01*
X81938729Y-131955638D01*
X81935427Y-132118599D01*
X81331154Y-132118599D01*
X81331154Y-126509377D01*
X82192615Y-126509377D01*
X82209020Y-126644377D01*
X82231117Y-126724051D01*
X82412998Y-127182503D01*
X82674492Y-127605693D01*
X83016346Y-127999999D01*
X83312221Y-128273756D01*
X83599550Y-128483009D01*
X83914011Y-128650364D01*
X84258283Y-128786876D01*
X84525955Y-128867983D01*
X84721907Y-128897747D01*
X84841993Y-128875836D01*
X84876409Y-128836466D01*
X84873005Y-128749656D01*
X84847525Y-128655751D01*
X85042285Y-128655751D01*
X85049647Y-128804647D01*
X85076025Y-128869743D01*
X85166474Y-128898631D01*
X85341088Y-128893781D01*
X85592533Y-128855686D01*
X85742088Y-128824918D01*
X85949260Y-128766788D01*
X86199564Y-128678265D01*
X86449993Y-128575046D01*
X86537742Y-128534516D01*
X86788401Y-128405092D01*
X86981266Y-128279455D01*
X87151793Y-128132276D01*
X87267007Y-128013541D01*
X87532127Y-127666372D01*
X87748941Y-127260302D01*
X87907615Y-126821942D01*
X87998312Y-126377903D01*
X88013594Y-125993522D01*
X87998654Y-125702884D01*
X87730000Y-125714344D01*
X87415969Y-125756028D01*
X87059536Y-125850421D01*
X86693284Y-125987615D01*
X86447671Y-126104253D01*
X86121062Y-126319701D01*
X85813188Y-126605339D01*
X85550009Y-126933932D01*
X85383934Y-127220154D01*
X85299002Y-127427860D01*
X85220482Y-127673820D01*
X85151962Y-127938811D01*
X85097031Y-128203611D01*
X85059276Y-128448998D01*
X85042285Y-128655751D01*
X84847525Y-128655751D01*
X84832165Y-128599143D01*
X84762625Y-128407317D01*
X84673118Y-128196566D01*
X84572378Y-127989282D01*
X84485375Y-127834071D01*
X84181103Y-127425042D01*
X83804060Y-127069200D01*
X83369471Y-126777300D01*
X82892560Y-126560099D01*
X82536121Y-126457021D01*
X82345446Y-126425084D01*
X82234518Y-126439407D01*
X82192615Y-126509377D01*
X81331154Y-126509377D01*
X81331154Y-125092308D01*
X96717692Y-125092308D01*
X96717692Y-132907692D01*
%TD*%
D11*
%TO.P,J3,6*%
%TO.N,Vbatt*%
X122000000Y-131700000D03*
%TO.P,J3,5*%
%TO.N,ISCPCLK*%
X122000000Y-129160000D03*
%TO.P,J3,4*%
%TO.N,ISCPDAT*%
X122000000Y-126620000D03*
%TO.P,J3,3*%
%TO.N,GND*%
X122000000Y-124080000D03*
%TO.P,J3,2*%
%TO.N,+3V3_5V*%
X122000000Y-121540000D03*
D12*
%TO.P,J3,1*%
%TO.N,MCLR*%
X122000000Y-119000000D03*
%TD*%
D13*
%TO.P,J1,2*%
%TO.N,ISCPDAT*%
X117200000Y-135450000D03*
%TO.P,J1,1*%
%TO.N,Net-(J1-Pad1)*%
X113700000Y-135450000D03*
%TD*%
D11*
%TO.P,J2,6*%
%TO.N,Vbatt*%
X108350000Y-159490000D03*
%TO.P,J2,5*%
%TO.N,ISCPCLK*%
X105810000Y-159490000D03*
%TO.P,J2,4*%
%TO.N,ISCPDAT*%
X103270000Y-159490000D03*
%TO.P,J2,3*%
%TO.N,GND*%
X100730000Y-159490000D03*
%TO.P,J2,2*%
%TO.N,+3V3_5V*%
X98190000Y-159490000D03*
D12*
%TO.P,J2,1*%
%TO.N,MCLR*%
X95650000Y-159490000D03*
%TD*%
%TO.P,J4,1*%
%TO.N,ISCPDAT*%
X117200000Y-135450000D03*
%TD*%
%TO.P,J5,1*%
%TO.N,Net-(J5-Pad1)*%
X85920000Y-120000000D03*
%TD*%
%TO.P,J6,1*%
%TO.N,Net-(J6-Pad1)*%
X88920000Y-158000000D03*
%TD*%
D14*
%TO.N,Vbatt*%
X108350000Y-159490000D02*
X111760000Y-159490000D01*
X122000000Y-149250000D02*
X122000000Y-131700000D01*
X111760000Y-159490000D02*
X122000000Y-149250000D01*
%TO.N,+3V3_5V*%
X122000000Y-121540000D02*
X113960000Y-121540000D01*
X98190000Y-137310000D02*
X98190000Y-159490000D01*
X113960000Y-121540000D02*
X98190000Y-137310000D01*
%TO.N,MCLR*%
X95650000Y-159490000D02*
X95650000Y-136100000D01*
X112750000Y-119000000D02*
X122000000Y-119000000D01*
X95650000Y-136100000D02*
X112750000Y-119000000D01*
%TO.N,ISCPDAT*%
X103270000Y-159490000D02*
X103270000Y-136730000D01*
X103270000Y-136730000D02*
X113380000Y-126620000D01*
X117120000Y-126620000D02*
X117620000Y-126620000D01*
X117620000Y-126620000D02*
X122000000Y-126620000D01*
X116620000Y-126620000D02*
X117120000Y-126620000D01*
X113380000Y-126620000D02*
X116620000Y-126620000D01*
X117200000Y-126700000D02*
X117120000Y-126620000D01*
X117620000Y-126880000D02*
X117200000Y-127300000D01*
X117620000Y-126620000D02*
X117620000Y-126880000D01*
X117200000Y-127300000D02*
X117200000Y-126700000D01*
X117200000Y-135450000D02*
X117200000Y-127300000D01*
X117200000Y-127200000D02*
X116620000Y-126620000D01*
X117200000Y-127300000D02*
X117200000Y-127200000D01*
%TO.N,ISCPCLK*%
X122000000Y-129160000D02*
X121090000Y-129160000D01*
X121090000Y-129160000D02*
X120250000Y-130000000D01*
X120250000Y-130000000D02*
X120250000Y-140500000D01*
X120250000Y-140500000D02*
X117250000Y-143500000D01*
X117250000Y-143500000D02*
X113750000Y-143500000D01*
X105810000Y-151440000D02*
X105810000Y-159490000D01*
X113750000Y-143500000D02*
X105810000Y-151440000D01*
%TD*%
D15*
%TO.N,GND*%
G36*
X122499759Y-108476041D02*
G01*
X122980480Y-108621179D01*
X123423856Y-108856925D01*
X123812996Y-109174300D01*
X124133081Y-109561216D01*
X124371919Y-110002939D01*
X124520410Y-110482634D01*
X124575000Y-111002025D01*
X124575001Y-166979200D01*
X124523959Y-167499759D01*
X124378821Y-167980480D01*
X124143075Y-168423856D01*
X123825697Y-168812998D01*
X123438784Y-169133081D01*
X122997061Y-169371919D01*
X122517368Y-169520410D01*
X121997975Y-169575000D01*
X82020790Y-169575000D01*
X81500241Y-169523959D01*
X81019520Y-169378821D01*
X80576144Y-169143075D01*
X80187002Y-168825697D01*
X79866919Y-168438784D01*
X79628081Y-167997061D01*
X79479590Y-167517368D01*
X79425000Y-166997975D01*
X79425000Y-162788243D01*
X86770000Y-162788243D01*
X86770000Y-163211757D01*
X86852623Y-163627132D01*
X87014695Y-164018407D01*
X87249986Y-164370545D01*
X87549455Y-164670014D01*
X87901593Y-164905305D01*
X88292868Y-165067377D01*
X88708243Y-165150000D01*
X89131757Y-165150000D01*
X89547132Y-165067377D01*
X89938407Y-164905305D01*
X90290545Y-164670014D01*
X90590014Y-164370545D01*
X90825305Y-164018407D01*
X90987377Y-163627132D01*
X91070000Y-163211757D01*
X91070000Y-162788243D01*
X90987377Y-162372868D01*
X90915048Y-162198250D01*
X94027334Y-162198250D01*
X94027334Y-164812333D01*
X94031058Y-164850311D01*
X94034508Y-164888222D01*
X94034908Y-164889581D01*
X94035047Y-164890998D01*
X94046069Y-164927504D01*
X94056825Y-164964049D01*
X94057482Y-164965306D01*
X94057893Y-164966667D01*
X94075789Y-165000325D01*
X94093444Y-165034096D01*
X94094335Y-165035204D01*
X94095001Y-165036457D01*
X94119091Y-165065994D01*
X94142973Y-165095697D01*
X94144060Y-165096609D01*
X94144958Y-165097710D01*
X94174299Y-165121983D01*
X94203522Y-165146504D01*
X94204769Y-165147189D01*
X94205861Y-165148093D01*
X94239391Y-165166223D01*
X94272788Y-165184583D01*
X94274139Y-165185012D01*
X94275390Y-165185688D01*
X94311830Y-165196968D01*
X94348130Y-165208483D01*
X94349541Y-165208641D01*
X94350897Y-165209061D01*
X94388745Y-165213039D01*
X94426679Y-165217294D01*
X94429410Y-165217313D01*
X94429507Y-165217323D01*
X94429604Y-165217314D01*
X94432334Y-165217333D01*
X96887667Y-165217333D01*
X96925645Y-165213609D01*
X96963556Y-165210159D01*
X96964915Y-165209759D01*
X96966332Y-165209620D01*
X97002887Y-165198583D01*
X97039383Y-165187842D01*
X97040640Y-165187185D01*
X97042001Y-165186774D01*
X97075659Y-165168878D01*
X97109430Y-165151223D01*
X97110538Y-165150332D01*
X97111791Y-165149666D01*
X97141328Y-165125576D01*
X97171031Y-165101694D01*
X97171943Y-165100607D01*
X97173044Y-165099709D01*
X97197317Y-165070368D01*
X97221838Y-165041145D01*
X97222523Y-165039898D01*
X97223427Y-165038806D01*
X97241557Y-165005276D01*
X97259917Y-164971879D01*
X97260346Y-164970528D01*
X97261022Y-164969277D01*
X97272302Y-164932837D01*
X97283817Y-164896537D01*
X97283975Y-164895126D01*
X97284395Y-164893770D01*
X97288373Y-164855922D01*
X97292628Y-164817988D01*
X97292647Y-164815257D01*
X97292657Y-164815160D01*
X97292648Y-164815063D01*
X97292667Y-164812333D01*
X97292667Y-162204600D01*
X105438067Y-162204600D01*
X105438067Y-164803866D01*
X105441791Y-164841844D01*
X105445241Y-164879755D01*
X105445641Y-164881114D01*
X105445780Y-164882531D01*
X105456817Y-164919086D01*
X105467558Y-164955582D01*
X105468215Y-164956839D01*
X105468626Y-164958200D01*
X105486522Y-164991858D01*
X105504177Y-165025629D01*
X105505068Y-165026737D01*
X105505734Y-165027990D01*
X105529824Y-165057527D01*
X105553706Y-165087230D01*
X105554793Y-165088142D01*
X105555691Y-165089243D01*
X105585032Y-165113516D01*
X105614255Y-165138037D01*
X105615502Y-165138722D01*
X105616594Y-165139626D01*
X105650124Y-165157756D01*
X105683521Y-165176116D01*
X105684872Y-165176545D01*
X105686123Y-165177221D01*
X105722563Y-165188501D01*
X105758863Y-165200016D01*
X105760274Y-165200174D01*
X105761630Y-165200594D01*
X105799478Y-165204572D01*
X105837412Y-165208827D01*
X105840143Y-165208846D01*
X105840240Y-165208856D01*
X105840337Y-165208847D01*
X105843067Y-165208866D01*
X110965400Y-165208866D01*
X111003378Y-165205142D01*
X111041289Y-165201692D01*
X111042648Y-165201292D01*
X111044065Y-165201153D01*
X111080620Y-165190116D01*
X111117116Y-165179375D01*
X111118373Y-165178718D01*
X111119734Y-165178307D01*
X111153392Y-165160411D01*
X111187163Y-165142756D01*
X111188271Y-165141865D01*
X111189524Y-165141199D01*
X111219061Y-165117109D01*
X111248764Y-165093227D01*
X111249676Y-165092140D01*
X111250777Y-165091242D01*
X111275050Y-165061901D01*
X111299571Y-165032678D01*
X111300256Y-165031431D01*
X111301160Y-165030339D01*
X111319290Y-164996809D01*
X111337650Y-164963412D01*
X111338079Y-164962061D01*
X111338755Y-164960810D01*
X111350052Y-164924316D01*
X111361550Y-164888070D01*
X111361708Y-164886659D01*
X111362128Y-164885303D01*
X111366106Y-164847455D01*
X111370361Y-164809521D01*
X111370380Y-164806790D01*
X111370390Y-164806693D01*
X111370381Y-164806596D01*
X111370400Y-164803866D01*
X111370400Y-162788243D01*
X117770000Y-162788243D01*
X117770000Y-163211757D01*
X117852623Y-163627132D01*
X118014695Y-164018407D01*
X118249986Y-164370545D01*
X118549455Y-164670014D01*
X118901593Y-164905305D01*
X119292868Y-165067377D01*
X119708243Y-165150000D01*
X120131757Y-165150000D01*
X120547132Y-165067377D01*
X120938407Y-164905305D01*
X121290545Y-164670014D01*
X121590014Y-164370545D01*
X121825305Y-164018407D01*
X121987377Y-163627132D01*
X122070000Y-163211757D01*
X122070000Y-162788243D01*
X121987377Y-162372868D01*
X121825305Y-161981593D01*
X121590014Y-161629455D01*
X121290545Y-161329986D01*
X120938407Y-161094695D01*
X120547132Y-160932623D01*
X120131757Y-160850000D01*
X119708243Y-160850000D01*
X119292868Y-160932623D01*
X118901593Y-161094695D01*
X118549455Y-161329986D01*
X118249986Y-161629455D01*
X118014695Y-161981593D01*
X117852623Y-162372868D01*
X117770000Y-162788243D01*
X111370400Y-162788243D01*
X111370400Y-162204600D01*
X111366676Y-162166622D01*
X111363226Y-162128711D01*
X111362826Y-162127352D01*
X111362687Y-162125935D01*
X111351650Y-162089380D01*
X111340909Y-162052884D01*
X111340252Y-162051627D01*
X111339841Y-162050266D01*
X111321945Y-162016608D01*
X111304290Y-161982837D01*
X111303399Y-161981729D01*
X111302733Y-161980476D01*
X111278643Y-161950939D01*
X111254761Y-161921236D01*
X111253674Y-161920324D01*
X111252776Y-161919223D01*
X111223435Y-161894950D01*
X111194212Y-161870429D01*
X111192965Y-161869744D01*
X111191873Y-161868840D01*
X111158343Y-161850710D01*
X111124946Y-161832350D01*
X111123595Y-161831921D01*
X111122344Y-161831245D01*
X111085904Y-161819965D01*
X111049604Y-161808450D01*
X111048193Y-161808292D01*
X111046837Y-161807872D01*
X111008989Y-161803894D01*
X110971055Y-161799639D01*
X110968324Y-161799620D01*
X110968227Y-161799610D01*
X110968130Y-161799619D01*
X110965400Y-161799600D01*
X105843067Y-161799600D01*
X105805089Y-161803324D01*
X105767178Y-161806774D01*
X105765819Y-161807174D01*
X105764402Y-161807313D01*
X105727847Y-161818350D01*
X105691351Y-161829091D01*
X105690094Y-161829748D01*
X105688733Y-161830159D01*
X105655075Y-161848055D01*
X105621304Y-161865710D01*
X105620196Y-161866601D01*
X105618943Y-161867267D01*
X105589406Y-161891357D01*
X105559703Y-161915239D01*
X105558791Y-161916326D01*
X105557690Y-161917224D01*
X105533417Y-161946565D01*
X105508896Y-161975788D01*
X105508211Y-161977035D01*
X105507307Y-161978127D01*
X105489177Y-162011657D01*
X105470817Y-162045054D01*
X105470388Y-162046405D01*
X105469712Y-162047656D01*
X105458432Y-162084096D01*
X105446917Y-162120396D01*
X105446759Y-162121807D01*
X105446339Y-162123163D01*
X105442361Y-162161011D01*
X105438106Y-162198945D01*
X105438087Y-162201676D01*
X105438077Y-162201773D01*
X105438086Y-162201870D01*
X105438067Y-162204600D01*
X97292667Y-162204600D01*
X97292667Y-162198250D01*
X97288943Y-162160272D01*
X97285493Y-162122361D01*
X97285093Y-162121002D01*
X97284954Y-162119585D01*
X97273917Y-162083030D01*
X97263176Y-162046534D01*
X97262519Y-162045277D01*
X97262108Y-162043916D01*
X97244212Y-162010258D01*
X97226557Y-161976487D01*
X97225666Y-161975379D01*
X97225000Y-161974126D01*
X97200910Y-161944589D01*
X97177028Y-161914886D01*
X97175941Y-161913974D01*
X97175043Y-161912873D01*
X97145702Y-161888600D01*
X97116479Y-161864079D01*
X97115232Y-161863394D01*
X97114140Y-161862490D01*
X97080610Y-161844360D01*
X97047213Y-161826000D01*
X97045862Y-161825571D01*
X97044611Y-161824895D01*
X97008171Y-161813615D01*
X96971871Y-161802100D01*
X96970460Y-161801942D01*
X96969104Y-161801522D01*
X96931256Y-161797544D01*
X96893322Y-161793289D01*
X96890591Y-161793270D01*
X96890494Y-161793260D01*
X96890397Y-161793269D01*
X96887667Y-161793250D01*
X94432334Y-161793250D01*
X94394356Y-161796974D01*
X94356445Y-161800424D01*
X94355086Y-161800824D01*
X94353669Y-161800963D01*
X94317114Y-161812000D01*
X94280618Y-161822741D01*
X94279361Y-161823398D01*
X94278000Y-161823809D01*
X94244342Y-161841705D01*
X94210571Y-161859360D01*
X94209463Y-161860251D01*
X94208210Y-161860917D01*
X94178673Y-161885007D01*
X94148970Y-161908889D01*
X94148058Y-161909976D01*
X94146957Y-161910874D01*
X94122684Y-161940215D01*
X94098163Y-161969438D01*
X94097478Y-161970685D01*
X94096574Y-161971777D01*
X94078444Y-162005307D01*
X94060084Y-162038704D01*
X94059655Y-162040055D01*
X94058979Y-162041306D01*
X94047699Y-162077746D01*
X94036184Y-162114046D01*
X94036026Y-162115457D01*
X94035606Y-162116813D01*
X94031628Y-162154661D01*
X94027373Y-162192595D01*
X94027354Y-162195326D01*
X94027344Y-162195423D01*
X94027353Y-162195520D01*
X94027334Y-162198250D01*
X90915048Y-162198250D01*
X90825305Y-161981593D01*
X90590014Y-161629455D01*
X90290545Y-161329986D01*
X89938407Y-161094695D01*
X89547132Y-160932623D01*
X89131757Y-160850000D01*
X88708243Y-160850000D01*
X88292868Y-160932623D01*
X87901593Y-161094695D01*
X87549455Y-161329986D01*
X87249986Y-161629455D01*
X87014695Y-161981593D01*
X86852623Y-162372868D01*
X86770000Y-162788243D01*
X79425000Y-162788243D01*
X79425000Y-157150000D01*
X87668065Y-157150000D01*
X87668065Y-158850000D01*
X87675788Y-158928414D01*
X87698660Y-159003814D01*
X87735803Y-159073303D01*
X87785789Y-159134211D01*
X87846697Y-159184197D01*
X87916186Y-159221340D01*
X87991586Y-159244212D01*
X88070000Y-159251935D01*
X89770000Y-159251935D01*
X89848414Y-159244212D01*
X89923814Y-159221340D01*
X89993303Y-159184197D01*
X90054211Y-159134211D01*
X90104197Y-159073303D01*
X90141340Y-159003814D01*
X90164212Y-158928414D01*
X90171935Y-158850000D01*
X90171935Y-158640000D01*
X94398065Y-158640000D01*
X94398065Y-160340000D01*
X94405788Y-160418414D01*
X94428660Y-160493814D01*
X94465803Y-160563303D01*
X94515789Y-160624211D01*
X94576697Y-160674197D01*
X94646186Y-160711340D01*
X94721586Y-160734212D01*
X94800000Y-160741935D01*
X96500000Y-160741935D01*
X96578414Y-160734212D01*
X96653814Y-160711340D01*
X96723303Y-160674197D01*
X96784211Y-160624211D01*
X96834197Y-160563303D01*
X96871340Y-160493814D01*
X96894212Y-160418414D01*
X96901935Y-160340000D01*
X96901935Y-159490000D01*
X96933952Y-159490000D01*
X96958087Y-159735043D01*
X97029563Y-159970669D01*
X97145634Y-160187823D01*
X97301840Y-160378160D01*
X97492177Y-160534366D01*
X97709331Y-160650437D01*
X97944957Y-160721913D01*
X98128595Y-160740000D01*
X98251405Y-160740000D01*
X98435043Y-160721913D01*
X98670669Y-160650437D01*
X98887823Y-160534366D01*
X99078160Y-160378160D01*
X99234366Y-160187823D01*
X99350437Y-159970669D01*
X99421913Y-159735043D01*
X99446048Y-159490000D01*
X102013952Y-159490000D01*
X102038087Y-159735043D01*
X102109563Y-159970669D01*
X102225634Y-160187823D01*
X102381840Y-160378160D01*
X102572177Y-160534366D01*
X102789331Y-160650437D01*
X103024957Y-160721913D01*
X103208595Y-160740000D01*
X103331405Y-160740000D01*
X103515043Y-160721913D01*
X103750669Y-160650437D01*
X103967823Y-160534366D01*
X104158160Y-160378160D01*
X104314366Y-160187823D01*
X104430437Y-159970669D01*
X104501913Y-159735043D01*
X104526048Y-159490000D01*
X104553952Y-159490000D01*
X104578087Y-159735043D01*
X104649563Y-159970669D01*
X104765634Y-160187823D01*
X104921840Y-160378160D01*
X105112177Y-160534366D01*
X105329331Y-160650437D01*
X105564957Y-160721913D01*
X105748595Y-160740000D01*
X105871405Y-160740000D01*
X106055043Y-160721913D01*
X106290669Y-160650437D01*
X106507823Y-160534366D01*
X106698160Y-160378160D01*
X106854366Y-160187823D01*
X106970437Y-159970669D01*
X107041913Y-159735043D01*
X107066048Y-159490000D01*
X107041913Y-159244957D01*
X106970437Y-159009331D01*
X106854366Y-158792177D01*
X106698160Y-158601840D01*
X106507823Y-158445634D01*
X106460000Y-158420072D01*
X106460000Y-151709238D01*
X114019238Y-144150000D01*
X117218079Y-144150000D01*
X117250000Y-144153144D01*
X117281921Y-144150000D01*
X117281932Y-144150000D01*
X117377422Y-144140595D01*
X117499948Y-144103427D01*
X117612868Y-144043070D01*
X117711843Y-143961843D01*
X117732200Y-143937038D01*
X120687038Y-140982200D01*
X120711843Y-140961843D01*
X120793070Y-140862868D01*
X120853427Y-140749948D01*
X120890595Y-140627422D01*
X120900000Y-140531932D01*
X120900000Y-140531924D01*
X120903144Y-140500000D01*
X120900000Y-140468076D01*
X120900000Y-132293739D01*
X120955634Y-132397823D01*
X121111840Y-132588160D01*
X121302177Y-132744366D01*
X121350001Y-132769928D01*
X121350000Y-148980762D01*
X111490762Y-158840000D01*
X109419928Y-158840000D01*
X109394366Y-158792177D01*
X109238160Y-158601840D01*
X109047823Y-158445634D01*
X108830669Y-158329563D01*
X108595043Y-158258087D01*
X108411405Y-158240000D01*
X108288595Y-158240000D01*
X108104957Y-158258087D01*
X107869331Y-158329563D01*
X107652177Y-158445634D01*
X107461840Y-158601840D01*
X107305634Y-158792177D01*
X107189563Y-159009331D01*
X107118087Y-159244957D01*
X107093952Y-159490000D01*
X107118087Y-159735043D01*
X107189563Y-159970669D01*
X107305634Y-160187823D01*
X107461840Y-160378160D01*
X107652177Y-160534366D01*
X107869331Y-160650437D01*
X108104957Y-160721913D01*
X108288595Y-160740000D01*
X108411405Y-160740000D01*
X108595043Y-160721913D01*
X108830669Y-160650437D01*
X109047823Y-160534366D01*
X109238160Y-160378160D01*
X109394366Y-160187823D01*
X109419928Y-160140000D01*
X111728079Y-160140000D01*
X111760000Y-160143144D01*
X111791921Y-160140000D01*
X111791932Y-160140000D01*
X111887422Y-160130595D01*
X112009948Y-160093427D01*
X112122868Y-160033070D01*
X112221843Y-159951843D01*
X112242200Y-159927038D01*
X122437039Y-149732199D01*
X122461843Y-149711843D01*
X122501303Y-149663760D01*
X122543070Y-149612869D01*
X122603427Y-149499948D01*
X122603427Y-149499947D01*
X122640595Y-149377422D01*
X122650000Y-149281932D01*
X122650000Y-149281921D01*
X122653144Y-149250000D01*
X122650000Y-149218079D01*
X122650000Y-132769928D01*
X122697823Y-132744366D01*
X122888160Y-132588160D01*
X123044366Y-132397823D01*
X123160437Y-132180669D01*
X123231913Y-131945043D01*
X123256048Y-131700000D01*
X123231913Y-131454957D01*
X123160437Y-131219331D01*
X123044366Y-131002177D01*
X122888160Y-130811840D01*
X122697823Y-130655634D01*
X122480669Y-130539563D01*
X122245043Y-130468087D01*
X122061405Y-130450000D01*
X121938595Y-130450000D01*
X121754957Y-130468087D01*
X121519331Y-130539563D01*
X121302177Y-130655634D01*
X121111840Y-130811840D01*
X120955634Y-131002177D01*
X120900000Y-131106261D01*
X120900000Y-130269238D01*
X121116914Y-130052324D01*
X121302177Y-130204366D01*
X121519331Y-130320437D01*
X121754957Y-130391913D01*
X121938595Y-130410000D01*
X122061405Y-130410000D01*
X122245043Y-130391913D01*
X122480669Y-130320437D01*
X122697823Y-130204366D01*
X122888160Y-130048160D01*
X123044366Y-129857823D01*
X123160437Y-129640669D01*
X123231913Y-129405043D01*
X123256048Y-129160000D01*
X123231913Y-128914957D01*
X123160437Y-128679331D01*
X123044366Y-128462177D01*
X122888160Y-128271840D01*
X122697823Y-128115634D01*
X122480669Y-127999563D01*
X122245043Y-127928087D01*
X122061405Y-127910000D01*
X121938595Y-127910000D01*
X121754957Y-127928087D01*
X121519331Y-127999563D01*
X121302177Y-128115634D01*
X121111840Y-128271840D01*
X120955634Y-128462177D01*
X120917782Y-128532994D01*
X120840052Y-128556573D01*
X120727132Y-128616930D01*
X120719369Y-128623301D01*
X120652959Y-128677802D01*
X120652957Y-128677804D01*
X120628157Y-128698157D01*
X120607804Y-128722957D01*
X119812962Y-129517800D01*
X119788157Y-129538157D01*
X119760545Y-129571803D01*
X119706930Y-129637132D01*
X119651437Y-129740953D01*
X119646573Y-129750053D01*
X119609405Y-129872579D01*
X119600000Y-129968069D01*
X119600000Y-129968079D01*
X119596856Y-130000000D01*
X119600000Y-130031922D01*
X119600001Y-140230761D01*
X116980762Y-142850000D01*
X113781924Y-142850000D01*
X113750000Y-142846856D01*
X113718076Y-142850000D01*
X113718068Y-142850000D01*
X113622578Y-142859405D01*
X113500052Y-142896573D01*
X113387132Y-142956930D01*
X113288157Y-143038157D01*
X113267802Y-143062960D01*
X105372962Y-150957800D01*
X105348157Y-150978157D01*
X105327802Y-151002960D01*
X105266930Y-151077132D01*
X105206574Y-151190052D01*
X105206573Y-151190053D01*
X105169405Y-151312579D01*
X105160000Y-151408069D01*
X105160000Y-151408079D01*
X105156856Y-151440000D01*
X105160000Y-151471922D01*
X105160001Y-158420072D01*
X105112177Y-158445634D01*
X104921840Y-158601840D01*
X104765634Y-158792177D01*
X104649563Y-159009331D01*
X104578087Y-159244957D01*
X104553952Y-159490000D01*
X104526048Y-159490000D01*
X104501913Y-159244957D01*
X104430437Y-159009331D01*
X104314366Y-158792177D01*
X104158160Y-158601840D01*
X103967823Y-158445634D01*
X103920000Y-158420072D01*
X103920000Y-136999238D01*
X107969238Y-132950000D01*
X112048065Y-132950000D01*
X112048065Y-137950000D01*
X112055788Y-138028414D01*
X112078660Y-138103814D01*
X112115803Y-138173303D01*
X112165789Y-138234211D01*
X112226697Y-138284197D01*
X112296186Y-138321340D01*
X112371586Y-138344212D01*
X112450000Y-138351935D01*
X114950000Y-138351935D01*
X115028414Y-138344212D01*
X115103814Y-138321340D01*
X115173303Y-138284197D01*
X115234211Y-138234211D01*
X115284197Y-138173303D01*
X115321340Y-138103814D01*
X115344212Y-138028414D01*
X115351935Y-137950000D01*
X115351935Y-132950000D01*
X115344212Y-132871586D01*
X115321340Y-132796186D01*
X115284197Y-132726697D01*
X115234211Y-132665789D01*
X115173303Y-132615803D01*
X115103814Y-132578660D01*
X115028414Y-132555788D01*
X114950000Y-132548065D01*
X112450000Y-132548065D01*
X112371586Y-132555788D01*
X112296186Y-132578660D01*
X112226697Y-132615803D01*
X112165789Y-132665789D01*
X112115803Y-132726697D01*
X112078660Y-132796186D01*
X112055788Y-132871586D01*
X112048065Y-132950000D01*
X107969238Y-132950000D01*
X113649239Y-127270000D01*
X116350762Y-127270000D01*
X116550001Y-127469239D01*
X116550000Y-132548065D01*
X115950000Y-132548065D01*
X115871586Y-132555788D01*
X115796186Y-132578660D01*
X115726697Y-132615803D01*
X115665789Y-132665789D01*
X115615803Y-132726697D01*
X115578660Y-132796186D01*
X115555788Y-132871586D01*
X115548065Y-132950000D01*
X115548065Y-137950000D01*
X115555788Y-138028414D01*
X115578660Y-138103814D01*
X115615803Y-138173303D01*
X115665789Y-138234211D01*
X115726697Y-138284197D01*
X115796186Y-138321340D01*
X115871586Y-138344212D01*
X115950000Y-138351935D01*
X118450000Y-138351935D01*
X118528414Y-138344212D01*
X118603814Y-138321340D01*
X118673303Y-138284197D01*
X118734211Y-138234211D01*
X118784197Y-138173303D01*
X118821340Y-138103814D01*
X118844212Y-138028414D01*
X118851935Y-137950000D01*
X118851935Y-132950000D01*
X118844212Y-132871586D01*
X118821340Y-132796186D01*
X118784197Y-132726697D01*
X118734211Y-132665789D01*
X118673303Y-132615803D01*
X118603814Y-132578660D01*
X118528414Y-132555788D01*
X118450000Y-132548065D01*
X117850000Y-132548065D01*
X117850000Y-127569238D01*
X118057033Y-127362204D01*
X118081843Y-127341843D01*
X118140803Y-127270000D01*
X120930072Y-127270000D01*
X120955634Y-127317823D01*
X121111840Y-127508160D01*
X121302177Y-127664366D01*
X121519331Y-127780437D01*
X121754957Y-127851913D01*
X121938595Y-127870000D01*
X122061405Y-127870000D01*
X122245043Y-127851913D01*
X122480669Y-127780437D01*
X122697823Y-127664366D01*
X122888160Y-127508160D01*
X123044366Y-127317823D01*
X123160437Y-127100669D01*
X123231913Y-126865043D01*
X123256048Y-126620000D01*
X123231913Y-126374957D01*
X123160437Y-126139331D01*
X123044366Y-125922177D01*
X122888160Y-125731840D01*
X122697823Y-125575634D01*
X122480669Y-125459563D01*
X122245043Y-125388087D01*
X122061405Y-125370000D01*
X121938595Y-125370000D01*
X121754957Y-125388087D01*
X121519331Y-125459563D01*
X121302177Y-125575634D01*
X121111840Y-125731840D01*
X120955634Y-125922177D01*
X120930072Y-125970000D01*
X117651931Y-125970000D01*
X117620000Y-125966855D01*
X117588068Y-125970000D01*
X117151921Y-125970000D01*
X117120000Y-125966856D01*
X117088079Y-125970000D01*
X116651921Y-125970000D01*
X116620000Y-125966856D01*
X116588079Y-125970000D01*
X113411920Y-125970000D01*
X113379999Y-125966856D01*
X113348078Y-125970000D01*
X113348068Y-125970000D01*
X113252578Y-125979405D01*
X113130052Y-126016573D01*
X113017132Y-126076930D01*
X113017130Y-126076931D01*
X113017131Y-126076931D01*
X112942959Y-126137802D01*
X112942957Y-126137804D01*
X112918157Y-126158157D01*
X112897804Y-126182957D01*
X102832957Y-136247805D01*
X102808158Y-136268157D01*
X102787805Y-136292957D01*
X102787802Y-136292960D01*
X102726930Y-136367132D01*
X102666573Y-136480053D01*
X102629406Y-136602578D01*
X102622634Y-136671340D01*
X102616856Y-136730000D01*
X102620001Y-136761932D01*
X102620000Y-158420072D01*
X102572177Y-158445634D01*
X102381840Y-158601840D01*
X102225634Y-158792177D01*
X102109563Y-159009331D01*
X102038087Y-159244957D01*
X102013952Y-159490000D01*
X99446048Y-159490000D01*
X99421913Y-159244957D01*
X99350437Y-159009331D01*
X99234366Y-158792177D01*
X99078160Y-158601840D01*
X98887823Y-158445634D01*
X98840000Y-158420072D01*
X98840000Y-137579238D01*
X114229238Y-122190000D01*
X120930072Y-122190000D01*
X120955634Y-122237823D01*
X121111840Y-122428160D01*
X121302177Y-122584366D01*
X121519331Y-122700437D01*
X121754957Y-122771913D01*
X121938595Y-122790000D01*
X122061405Y-122790000D01*
X122245043Y-122771913D01*
X122480669Y-122700437D01*
X122697823Y-122584366D01*
X122888160Y-122428160D01*
X123044366Y-122237823D01*
X123160437Y-122020669D01*
X123231913Y-121785043D01*
X123256048Y-121540000D01*
X123231913Y-121294957D01*
X123160437Y-121059331D01*
X123044366Y-120842177D01*
X122888160Y-120651840D01*
X122697823Y-120495634D01*
X122480669Y-120379563D01*
X122245043Y-120308087D01*
X122061405Y-120290000D01*
X121938595Y-120290000D01*
X121754957Y-120308087D01*
X121519331Y-120379563D01*
X121302177Y-120495634D01*
X121111840Y-120651840D01*
X120955634Y-120842177D01*
X120930072Y-120890000D01*
X113991921Y-120890000D01*
X113960000Y-120886856D01*
X113928079Y-120890000D01*
X113928068Y-120890000D01*
X113832578Y-120899405D01*
X113736949Y-120928414D01*
X113710052Y-120936573D01*
X113597131Y-120996930D01*
X113546240Y-121038697D01*
X113498157Y-121078157D01*
X113477800Y-121102962D01*
X97752962Y-136827800D01*
X97728157Y-136848157D01*
X97707802Y-136872960D01*
X97646930Y-136947132D01*
X97586574Y-137060052D01*
X97586573Y-137060053D01*
X97549405Y-137182579D01*
X97540000Y-137278069D01*
X97540000Y-137278079D01*
X97536856Y-137310000D01*
X97540000Y-137341922D01*
X97540001Y-158420072D01*
X97492177Y-158445634D01*
X97301840Y-158601840D01*
X97145634Y-158792177D01*
X97029563Y-159009331D01*
X96958087Y-159244957D01*
X96933952Y-159490000D01*
X96901935Y-159490000D01*
X96901935Y-158640000D01*
X96894212Y-158561586D01*
X96871340Y-158486186D01*
X96834197Y-158416697D01*
X96784211Y-158355789D01*
X96723303Y-158305803D01*
X96653814Y-158268660D01*
X96578414Y-158245788D01*
X96500000Y-158238065D01*
X96300000Y-158238065D01*
X96300000Y-136369238D01*
X113019239Y-119650000D01*
X120748065Y-119650000D01*
X120748065Y-119850000D01*
X120755788Y-119928414D01*
X120778660Y-120003814D01*
X120815803Y-120073303D01*
X120865789Y-120134211D01*
X120926697Y-120184197D01*
X120996186Y-120221340D01*
X121071586Y-120244212D01*
X121150000Y-120251935D01*
X122850000Y-120251935D01*
X122928414Y-120244212D01*
X123003814Y-120221340D01*
X123073303Y-120184197D01*
X123134211Y-120134211D01*
X123184197Y-120073303D01*
X123221340Y-120003814D01*
X123244212Y-119928414D01*
X123251935Y-119850000D01*
X123251935Y-118150000D01*
X123244212Y-118071586D01*
X123221340Y-117996186D01*
X123184197Y-117926697D01*
X123134211Y-117865789D01*
X123073303Y-117815803D01*
X123003814Y-117778660D01*
X122928414Y-117755788D01*
X122850000Y-117748065D01*
X121150000Y-117748065D01*
X121071586Y-117755788D01*
X120996186Y-117778660D01*
X120926697Y-117815803D01*
X120865789Y-117865789D01*
X120815803Y-117926697D01*
X120778660Y-117996186D01*
X120755788Y-118071586D01*
X120748065Y-118150000D01*
X120748065Y-118350000D01*
X112781921Y-118350000D01*
X112750000Y-118346856D01*
X112718079Y-118350000D01*
X112718068Y-118350000D01*
X112622578Y-118359405D01*
X112500052Y-118396573D01*
X112387131Y-118456930D01*
X112312959Y-118517802D01*
X112312957Y-118517804D01*
X112288157Y-118538157D01*
X112267804Y-118562957D01*
X95212958Y-135617804D01*
X95188158Y-135638157D01*
X95167805Y-135662957D01*
X95167802Y-135662960D01*
X95106930Y-135737132D01*
X95046573Y-135850053D01*
X95009406Y-135972578D01*
X94996856Y-136100000D01*
X95000001Y-136131932D01*
X95000000Y-158238065D01*
X94800000Y-158238065D01*
X94721586Y-158245788D01*
X94646186Y-158268660D01*
X94576697Y-158305803D01*
X94515789Y-158355789D01*
X94465803Y-158416697D01*
X94428660Y-158486186D01*
X94405788Y-158561586D01*
X94398065Y-158640000D01*
X90171935Y-158640000D01*
X90171935Y-157150000D01*
X90164212Y-157071586D01*
X90141340Y-156996186D01*
X90104197Y-156926697D01*
X90054211Y-156865789D01*
X89993303Y-156815803D01*
X89923814Y-156778660D01*
X89848414Y-156755788D01*
X89770000Y-156748065D01*
X88070000Y-156748065D01*
X87991586Y-156755788D01*
X87916186Y-156778660D01*
X87846697Y-156815803D01*
X87785789Y-156865789D01*
X87735803Y-156926697D01*
X87698660Y-156996186D01*
X87675788Y-157071586D01*
X87668065Y-157150000D01*
X79425000Y-157150000D01*
X79425000Y-125092308D01*
X80926154Y-125092308D01*
X80926154Y-132907692D01*
X80929878Y-132945670D01*
X80933328Y-132983581D01*
X80933728Y-132984940D01*
X80933867Y-132986357D01*
X80944904Y-133022912D01*
X80955645Y-133059408D01*
X80956302Y-133060665D01*
X80956713Y-133062026D01*
X80974609Y-133095684D01*
X80992264Y-133129455D01*
X80993155Y-133130563D01*
X80993821Y-133131816D01*
X81017911Y-133161353D01*
X81041793Y-133191056D01*
X81042880Y-133191968D01*
X81043778Y-133193069D01*
X81073119Y-133217342D01*
X81102342Y-133241863D01*
X81103589Y-133242548D01*
X81104681Y-133243452D01*
X81138211Y-133261582D01*
X81171608Y-133279942D01*
X81172959Y-133280371D01*
X81174210Y-133281047D01*
X81210650Y-133292327D01*
X81246950Y-133303842D01*
X81248361Y-133304000D01*
X81249717Y-133304420D01*
X81287565Y-133308398D01*
X81325499Y-133312653D01*
X81328230Y-133312672D01*
X81328327Y-133312682D01*
X81328424Y-133312673D01*
X81331154Y-133312692D01*
X96717692Y-133312692D01*
X96755670Y-133308968D01*
X96793581Y-133305518D01*
X96794940Y-133305118D01*
X96796357Y-133304979D01*
X96832912Y-133293942D01*
X96869408Y-133283201D01*
X96870665Y-133282544D01*
X96872026Y-133282133D01*
X96905684Y-133264237D01*
X96939455Y-133246582D01*
X96940563Y-133245691D01*
X96941816Y-133245025D01*
X96971353Y-133220935D01*
X97001056Y-133197053D01*
X97001968Y-133195966D01*
X97003069Y-133195068D01*
X97027342Y-133165727D01*
X97051863Y-133136504D01*
X97052548Y-133135257D01*
X97053452Y-133134165D01*
X97071582Y-133100635D01*
X97089942Y-133067238D01*
X97090371Y-133065887D01*
X97091047Y-133064636D01*
X97102327Y-133028196D01*
X97113842Y-132991896D01*
X97114000Y-132990485D01*
X97114420Y-132989129D01*
X97118398Y-132951281D01*
X97122653Y-132913347D01*
X97122672Y-132910616D01*
X97122682Y-132910519D01*
X97122673Y-132910422D01*
X97122692Y-132907692D01*
X97122692Y-125092308D01*
X97118968Y-125054330D01*
X97115518Y-125016419D01*
X97115118Y-125015060D01*
X97114979Y-125013643D01*
X97103942Y-124977088D01*
X97093201Y-124940592D01*
X97092544Y-124939335D01*
X97092133Y-124937974D01*
X97074237Y-124904316D01*
X97056582Y-124870545D01*
X97055691Y-124869437D01*
X97055025Y-124868184D01*
X97030935Y-124838647D01*
X97007053Y-124808944D01*
X97005966Y-124808032D01*
X97005068Y-124806931D01*
X96975727Y-124782658D01*
X96946504Y-124758137D01*
X96945257Y-124757452D01*
X96944165Y-124756548D01*
X96910635Y-124738418D01*
X96877238Y-124720058D01*
X96875887Y-124719629D01*
X96874636Y-124718953D01*
X96838196Y-124707673D01*
X96801896Y-124696158D01*
X96800485Y-124696000D01*
X96799129Y-124695580D01*
X96761281Y-124691602D01*
X96723347Y-124687347D01*
X96720616Y-124687328D01*
X96720519Y-124687318D01*
X96720422Y-124687327D01*
X96717692Y-124687308D01*
X81331154Y-124687308D01*
X81293176Y-124691032D01*
X81255265Y-124694482D01*
X81253906Y-124694882D01*
X81252489Y-124695021D01*
X81215934Y-124706058D01*
X81179438Y-124716799D01*
X81178181Y-124717456D01*
X81176820Y-124717867D01*
X81143162Y-124735763D01*
X81109391Y-124753418D01*
X81108283Y-124754309D01*
X81107030Y-124754975D01*
X81077493Y-124779065D01*
X81047790Y-124802947D01*
X81046878Y-124804034D01*
X81045777Y-124804932D01*
X81021504Y-124834273D01*
X80996983Y-124863496D01*
X80996298Y-124864743D01*
X80995394Y-124865835D01*
X80977264Y-124899365D01*
X80958904Y-124932762D01*
X80958475Y-124934113D01*
X80957799Y-124935364D01*
X80946519Y-124971804D01*
X80935004Y-125008104D01*
X80934846Y-125009515D01*
X80934426Y-125010871D01*
X80930448Y-125048719D01*
X80926193Y-125086653D01*
X80926174Y-125089384D01*
X80926164Y-125089481D01*
X80926173Y-125089578D01*
X80926154Y-125092308D01*
X79425000Y-125092308D01*
X79425000Y-119150000D01*
X84668065Y-119150000D01*
X84668065Y-120850000D01*
X84675788Y-120928414D01*
X84698660Y-121003814D01*
X84735803Y-121073303D01*
X84785789Y-121134211D01*
X84846697Y-121184197D01*
X84916186Y-121221340D01*
X84991586Y-121244212D01*
X85070000Y-121251935D01*
X86770000Y-121251935D01*
X86848414Y-121244212D01*
X86923814Y-121221340D01*
X86993303Y-121184197D01*
X87054211Y-121134211D01*
X87104197Y-121073303D01*
X87141340Y-121003814D01*
X87164212Y-120928414D01*
X87171935Y-120850000D01*
X87171935Y-119150000D01*
X87164212Y-119071586D01*
X87141340Y-118996186D01*
X87104197Y-118926697D01*
X87054211Y-118865789D01*
X86993303Y-118815803D01*
X86923814Y-118778660D01*
X86848414Y-118755788D01*
X86770000Y-118748065D01*
X85070000Y-118748065D01*
X84991586Y-118755788D01*
X84916186Y-118778660D01*
X84846697Y-118815803D01*
X84785789Y-118865789D01*
X84735803Y-118926697D01*
X84698660Y-118996186D01*
X84675788Y-119071586D01*
X84668065Y-119150000D01*
X79425000Y-119150000D01*
X79425000Y-114788243D01*
X86770000Y-114788243D01*
X86770000Y-115211757D01*
X86852623Y-115627132D01*
X87014695Y-116018407D01*
X87249986Y-116370545D01*
X87549455Y-116670014D01*
X87901593Y-116905305D01*
X88292868Y-117067377D01*
X88708243Y-117150000D01*
X89131757Y-117150000D01*
X89547132Y-117067377D01*
X89938407Y-116905305D01*
X90290545Y-116670014D01*
X90590014Y-116370545D01*
X90825305Y-116018407D01*
X90987377Y-115627132D01*
X91070000Y-115211757D01*
X91070000Y-114788243D01*
X117770000Y-114788243D01*
X117770000Y-115211757D01*
X117852623Y-115627132D01*
X118014695Y-116018407D01*
X118249986Y-116370545D01*
X118549455Y-116670014D01*
X118901593Y-116905305D01*
X119292868Y-117067377D01*
X119708243Y-117150000D01*
X120131757Y-117150000D01*
X120547132Y-117067377D01*
X120938407Y-116905305D01*
X121290545Y-116670014D01*
X121590014Y-116370545D01*
X121825305Y-116018407D01*
X121987377Y-115627132D01*
X122070000Y-115211757D01*
X122070000Y-114788243D01*
X121987377Y-114372868D01*
X121825305Y-113981593D01*
X121590014Y-113629455D01*
X121290545Y-113329986D01*
X120938407Y-113094695D01*
X120547132Y-112932623D01*
X120131757Y-112850000D01*
X119708243Y-112850000D01*
X119292868Y-112932623D01*
X118901593Y-113094695D01*
X118549455Y-113329986D01*
X118249986Y-113629455D01*
X118014695Y-113981593D01*
X117852623Y-114372868D01*
X117770000Y-114788243D01*
X91070000Y-114788243D01*
X90987377Y-114372868D01*
X90825305Y-113981593D01*
X90590014Y-113629455D01*
X90290545Y-113329986D01*
X89938407Y-113094695D01*
X89547132Y-112932623D01*
X89131757Y-112850000D01*
X88708243Y-112850000D01*
X88292868Y-112932623D01*
X87901593Y-113094695D01*
X87549455Y-113329986D01*
X87249986Y-113629455D01*
X87014695Y-113981593D01*
X86852623Y-114372868D01*
X86770000Y-114788243D01*
X79425000Y-114788243D01*
X79425000Y-111020790D01*
X79476041Y-110500241D01*
X79621179Y-110019520D01*
X79856925Y-109576144D01*
X80174300Y-109187004D01*
X80561216Y-108866919D01*
X81002939Y-108628081D01*
X81482634Y-108479590D01*
X82002025Y-108425000D01*
X121979210Y-108425000D01*
X122499759Y-108476041D01*
X122499759Y-108476041D01*
G37*
X122499759Y-108476041D02*
X122980480Y-108621179D01*
X123423856Y-108856925D01*
X123812996Y-109174300D01*
X124133081Y-109561216D01*
X124371919Y-110002939D01*
X124520410Y-110482634D01*
X124575000Y-111002025D01*
X124575001Y-166979200D01*
X124523959Y-167499759D01*
X124378821Y-167980480D01*
X124143075Y-168423856D01*
X123825697Y-168812998D01*
X123438784Y-169133081D01*
X122997061Y-169371919D01*
X122517368Y-169520410D01*
X121997975Y-169575000D01*
X82020790Y-169575000D01*
X81500241Y-169523959D01*
X81019520Y-169378821D01*
X80576144Y-169143075D01*
X80187002Y-168825697D01*
X79866919Y-168438784D01*
X79628081Y-167997061D01*
X79479590Y-167517368D01*
X79425000Y-166997975D01*
X79425000Y-162788243D01*
X86770000Y-162788243D01*
X86770000Y-163211757D01*
X86852623Y-163627132D01*
X87014695Y-164018407D01*
X87249986Y-164370545D01*
X87549455Y-164670014D01*
X87901593Y-164905305D01*
X88292868Y-165067377D01*
X88708243Y-165150000D01*
X89131757Y-165150000D01*
X89547132Y-165067377D01*
X89938407Y-164905305D01*
X90290545Y-164670014D01*
X90590014Y-164370545D01*
X90825305Y-164018407D01*
X90987377Y-163627132D01*
X91070000Y-163211757D01*
X91070000Y-162788243D01*
X90987377Y-162372868D01*
X90915048Y-162198250D01*
X94027334Y-162198250D01*
X94027334Y-164812333D01*
X94031058Y-164850311D01*
X94034508Y-164888222D01*
X94034908Y-164889581D01*
X94035047Y-164890998D01*
X94046069Y-164927504D01*
X94056825Y-164964049D01*
X94057482Y-164965306D01*
X94057893Y-164966667D01*
X94075789Y-165000325D01*
X94093444Y-165034096D01*
X94094335Y-165035204D01*
X94095001Y-165036457D01*
X94119091Y-165065994D01*
X94142973Y-165095697D01*
X94144060Y-165096609D01*
X94144958Y-165097710D01*
X94174299Y-165121983D01*
X94203522Y-165146504D01*
X94204769Y-165147189D01*
X94205861Y-165148093D01*
X94239391Y-165166223D01*
X94272788Y-165184583D01*
X94274139Y-165185012D01*
X94275390Y-165185688D01*
X94311830Y-165196968D01*
X94348130Y-165208483D01*
X94349541Y-165208641D01*
X94350897Y-165209061D01*
X94388745Y-165213039D01*
X94426679Y-165217294D01*
X94429410Y-165217313D01*
X94429507Y-165217323D01*
X94429604Y-165217314D01*
X94432334Y-165217333D01*
X96887667Y-165217333D01*
X96925645Y-165213609D01*
X96963556Y-165210159D01*
X96964915Y-165209759D01*
X96966332Y-165209620D01*
X97002887Y-165198583D01*
X97039383Y-165187842D01*
X97040640Y-165187185D01*
X97042001Y-165186774D01*
X97075659Y-165168878D01*
X97109430Y-165151223D01*
X97110538Y-165150332D01*
X97111791Y-165149666D01*
X97141328Y-165125576D01*
X97171031Y-165101694D01*
X97171943Y-165100607D01*
X97173044Y-165099709D01*
X97197317Y-165070368D01*
X97221838Y-165041145D01*
X97222523Y-165039898D01*
X97223427Y-165038806D01*
X97241557Y-165005276D01*
X97259917Y-164971879D01*
X97260346Y-164970528D01*
X97261022Y-164969277D01*
X97272302Y-164932837D01*
X97283817Y-164896537D01*
X97283975Y-164895126D01*
X97284395Y-164893770D01*
X97288373Y-164855922D01*
X97292628Y-164817988D01*
X97292647Y-164815257D01*
X97292657Y-164815160D01*
X97292648Y-164815063D01*
X97292667Y-164812333D01*
X97292667Y-162204600D01*
X105438067Y-162204600D01*
X105438067Y-164803866D01*
X105441791Y-164841844D01*
X105445241Y-164879755D01*
X105445641Y-164881114D01*
X105445780Y-164882531D01*
X105456817Y-164919086D01*
X105467558Y-164955582D01*
X105468215Y-164956839D01*
X105468626Y-164958200D01*
X105486522Y-164991858D01*
X105504177Y-165025629D01*
X105505068Y-165026737D01*
X105505734Y-165027990D01*
X105529824Y-165057527D01*
X105553706Y-165087230D01*
X105554793Y-165088142D01*
X105555691Y-165089243D01*
X105585032Y-165113516D01*
X105614255Y-165138037D01*
X105615502Y-165138722D01*
X105616594Y-165139626D01*
X105650124Y-165157756D01*
X105683521Y-165176116D01*
X105684872Y-165176545D01*
X105686123Y-165177221D01*
X105722563Y-165188501D01*
X105758863Y-165200016D01*
X105760274Y-165200174D01*
X105761630Y-165200594D01*
X105799478Y-165204572D01*
X105837412Y-165208827D01*
X105840143Y-165208846D01*
X105840240Y-165208856D01*
X105840337Y-165208847D01*
X105843067Y-165208866D01*
X110965400Y-165208866D01*
X111003378Y-165205142D01*
X111041289Y-165201692D01*
X111042648Y-165201292D01*
X111044065Y-165201153D01*
X111080620Y-165190116D01*
X111117116Y-165179375D01*
X111118373Y-165178718D01*
X111119734Y-165178307D01*
X111153392Y-165160411D01*
X111187163Y-165142756D01*
X111188271Y-165141865D01*
X111189524Y-165141199D01*
X111219061Y-165117109D01*
X111248764Y-165093227D01*
X111249676Y-165092140D01*
X111250777Y-165091242D01*
X111275050Y-165061901D01*
X111299571Y-165032678D01*
X111300256Y-165031431D01*
X111301160Y-165030339D01*
X111319290Y-164996809D01*
X111337650Y-164963412D01*
X111338079Y-164962061D01*
X111338755Y-164960810D01*
X111350052Y-164924316D01*
X111361550Y-164888070D01*
X111361708Y-164886659D01*
X111362128Y-164885303D01*
X111366106Y-164847455D01*
X111370361Y-164809521D01*
X111370380Y-164806790D01*
X111370390Y-164806693D01*
X111370381Y-164806596D01*
X111370400Y-164803866D01*
X111370400Y-162788243D01*
X117770000Y-162788243D01*
X117770000Y-163211757D01*
X117852623Y-163627132D01*
X118014695Y-164018407D01*
X118249986Y-164370545D01*
X118549455Y-164670014D01*
X118901593Y-164905305D01*
X119292868Y-165067377D01*
X119708243Y-165150000D01*
X120131757Y-165150000D01*
X120547132Y-165067377D01*
X120938407Y-164905305D01*
X121290545Y-164670014D01*
X121590014Y-164370545D01*
X121825305Y-164018407D01*
X121987377Y-163627132D01*
X122070000Y-163211757D01*
X122070000Y-162788243D01*
X121987377Y-162372868D01*
X121825305Y-161981593D01*
X121590014Y-161629455D01*
X121290545Y-161329986D01*
X120938407Y-161094695D01*
X120547132Y-160932623D01*
X120131757Y-160850000D01*
X119708243Y-160850000D01*
X119292868Y-160932623D01*
X118901593Y-161094695D01*
X118549455Y-161329986D01*
X118249986Y-161629455D01*
X118014695Y-161981593D01*
X117852623Y-162372868D01*
X117770000Y-162788243D01*
X111370400Y-162788243D01*
X111370400Y-162204600D01*
X111366676Y-162166622D01*
X111363226Y-162128711D01*
X111362826Y-162127352D01*
X111362687Y-162125935D01*
X111351650Y-162089380D01*
X111340909Y-162052884D01*
X111340252Y-162051627D01*
X111339841Y-162050266D01*
X111321945Y-162016608D01*
X111304290Y-161982837D01*
X111303399Y-161981729D01*
X111302733Y-161980476D01*
X111278643Y-161950939D01*
X111254761Y-161921236D01*
X111253674Y-161920324D01*
X111252776Y-161919223D01*
X111223435Y-161894950D01*
X111194212Y-161870429D01*
X111192965Y-161869744D01*
X111191873Y-161868840D01*
X111158343Y-161850710D01*
X111124946Y-161832350D01*
X111123595Y-161831921D01*
X111122344Y-161831245D01*
X111085904Y-161819965D01*
X111049604Y-161808450D01*
X111048193Y-161808292D01*
X111046837Y-161807872D01*
X111008989Y-161803894D01*
X110971055Y-161799639D01*
X110968324Y-161799620D01*
X110968227Y-161799610D01*
X110968130Y-161799619D01*
X110965400Y-161799600D01*
X105843067Y-161799600D01*
X105805089Y-161803324D01*
X105767178Y-161806774D01*
X105765819Y-161807174D01*
X105764402Y-161807313D01*
X105727847Y-161818350D01*
X105691351Y-161829091D01*
X105690094Y-161829748D01*
X105688733Y-161830159D01*
X105655075Y-161848055D01*
X105621304Y-161865710D01*
X105620196Y-161866601D01*
X105618943Y-161867267D01*
X105589406Y-161891357D01*
X105559703Y-161915239D01*
X105558791Y-161916326D01*
X105557690Y-161917224D01*
X105533417Y-161946565D01*
X105508896Y-161975788D01*
X105508211Y-161977035D01*
X105507307Y-161978127D01*
X105489177Y-162011657D01*
X105470817Y-162045054D01*
X105470388Y-162046405D01*
X105469712Y-162047656D01*
X105458432Y-162084096D01*
X105446917Y-162120396D01*
X105446759Y-162121807D01*
X105446339Y-162123163D01*
X105442361Y-162161011D01*
X105438106Y-162198945D01*
X105438087Y-162201676D01*
X105438077Y-162201773D01*
X105438086Y-162201870D01*
X105438067Y-162204600D01*
X97292667Y-162204600D01*
X97292667Y-162198250D01*
X97288943Y-162160272D01*
X97285493Y-162122361D01*
X97285093Y-162121002D01*
X97284954Y-162119585D01*
X97273917Y-162083030D01*
X97263176Y-162046534D01*
X97262519Y-162045277D01*
X97262108Y-162043916D01*
X97244212Y-162010258D01*
X97226557Y-161976487D01*
X97225666Y-161975379D01*
X97225000Y-161974126D01*
X97200910Y-161944589D01*
X97177028Y-161914886D01*
X97175941Y-161913974D01*
X97175043Y-161912873D01*
X97145702Y-161888600D01*
X97116479Y-161864079D01*
X97115232Y-161863394D01*
X97114140Y-161862490D01*
X97080610Y-161844360D01*
X97047213Y-161826000D01*
X97045862Y-161825571D01*
X97044611Y-161824895D01*
X97008171Y-161813615D01*
X96971871Y-161802100D01*
X96970460Y-161801942D01*
X96969104Y-161801522D01*
X96931256Y-161797544D01*
X96893322Y-161793289D01*
X96890591Y-161793270D01*
X96890494Y-161793260D01*
X96890397Y-161793269D01*
X96887667Y-161793250D01*
X94432334Y-161793250D01*
X94394356Y-161796974D01*
X94356445Y-161800424D01*
X94355086Y-161800824D01*
X94353669Y-161800963D01*
X94317114Y-161812000D01*
X94280618Y-161822741D01*
X94279361Y-161823398D01*
X94278000Y-161823809D01*
X94244342Y-161841705D01*
X94210571Y-161859360D01*
X94209463Y-161860251D01*
X94208210Y-161860917D01*
X94178673Y-161885007D01*
X94148970Y-161908889D01*
X94148058Y-161909976D01*
X94146957Y-161910874D01*
X94122684Y-161940215D01*
X94098163Y-161969438D01*
X94097478Y-161970685D01*
X94096574Y-161971777D01*
X94078444Y-162005307D01*
X94060084Y-162038704D01*
X94059655Y-162040055D01*
X94058979Y-162041306D01*
X94047699Y-162077746D01*
X94036184Y-162114046D01*
X94036026Y-162115457D01*
X94035606Y-162116813D01*
X94031628Y-162154661D01*
X94027373Y-162192595D01*
X94027354Y-162195326D01*
X94027344Y-162195423D01*
X94027353Y-162195520D01*
X94027334Y-162198250D01*
X90915048Y-162198250D01*
X90825305Y-161981593D01*
X90590014Y-161629455D01*
X90290545Y-161329986D01*
X89938407Y-161094695D01*
X89547132Y-160932623D01*
X89131757Y-160850000D01*
X88708243Y-160850000D01*
X88292868Y-160932623D01*
X87901593Y-161094695D01*
X87549455Y-161329986D01*
X87249986Y-161629455D01*
X87014695Y-161981593D01*
X86852623Y-162372868D01*
X86770000Y-162788243D01*
X79425000Y-162788243D01*
X79425000Y-157150000D01*
X87668065Y-157150000D01*
X87668065Y-158850000D01*
X87675788Y-158928414D01*
X87698660Y-159003814D01*
X87735803Y-159073303D01*
X87785789Y-159134211D01*
X87846697Y-159184197D01*
X87916186Y-159221340D01*
X87991586Y-159244212D01*
X88070000Y-159251935D01*
X89770000Y-159251935D01*
X89848414Y-159244212D01*
X89923814Y-159221340D01*
X89993303Y-159184197D01*
X90054211Y-159134211D01*
X90104197Y-159073303D01*
X90141340Y-159003814D01*
X90164212Y-158928414D01*
X90171935Y-158850000D01*
X90171935Y-158640000D01*
X94398065Y-158640000D01*
X94398065Y-160340000D01*
X94405788Y-160418414D01*
X94428660Y-160493814D01*
X94465803Y-160563303D01*
X94515789Y-160624211D01*
X94576697Y-160674197D01*
X94646186Y-160711340D01*
X94721586Y-160734212D01*
X94800000Y-160741935D01*
X96500000Y-160741935D01*
X96578414Y-160734212D01*
X96653814Y-160711340D01*
X96723303Y-160674197D01*
X96784211Y-160624211D01*
X96834197Y-160563303D01*
X96871340Y-160493814D01*
X96894212Y-160418414D01*
X96901935Y-160340000D01*
X96901935Y-159490000D01*
X96933952Y-159490000D01*
X96958087Y-159735043D01*
X97029563Y-159970669D01*
X97145634Y-160187823D01*
X97301840Y-160378160D01*
X97492177Y-160534366D01*
X97709331Y-160650437D01*
X97944957Y-160721913D01*
X98128595Y-160740000D01*
X98251405Y-160740000D01*
X98435043Y-160721913D01*
X98670669Y-160650437D01*
X98887823Y-160534366D01*
X99078160Y-160378160D01*
X99234366Y-160187823D01*
X99350437Y-159970669D01*
X99421913Y-159735043D01*
X99446048Y-159490000D01*
X102013952Y-159490000D01*
X102038087Y-159735043D01*
X102109563Y-159970669D01*
X102225634Y-160187823D01*
X102381840Y-160378160D01*
X102572177Y-160534366D01*
X102789331Y-160650437D01*
X103024957Y-160721913D01*
X103208595Y-160740000D01*
X103331405Y-160740000D01*
X103515043Y-160721913D01*
X103750669Y-160650437D01*
X103967823Y-160534366D01*
X104158160Y-160378160D01*
X104314366Y-160187823D01*
X104430437Y-159970669D01*
X104501913Y-159735043D01*
X104526048Y-159490000D01*
X104553952Y-159490000D01*
X104578087Y-159735043D01*
X104649563Y-159970669D01*
X104765634Y-160187823D01*
X104921840Y-160378160D01*
X105112177Y-160534366D01*
X105329331Y-160650437D01*
X105564957Y-160721913D01*
X105748595Y-160740000D01*
X105871405Y-160740000D01*
X106055043Y-160721913D01*
X106290669Y-160650437D01*
X106507823Y-160534366D01*
X106698160Y-160378160D01*
X106854366Y-160187823D01*
X106970437Y-159970669D01*
X107041913Y-159735043D01*
X107066048Y-159490000D01*
X107041913Y-159244957D01*
X106970437Y-159009331D01*
X106854366Y-158792177D01*
X106698160Y-158601840D01*
X106507823Y-158445634D01*
X106460000Y-158420072D01*
X106460000Y-151709238D01*
X114019238Y-144150000D01*
X117218079Y-144150000D01*
X117250000Y-144153144D01*
X117281921Y-144150000D01*
X117281932Y-144150000D01*
X117377422Y-144140595D01*
X117499948Y-144103427D01*
X117612868Y-144043070D01*
X117711843Y-143961843D01*
X117732200Y-143937038D01*
X120687038Y-140982200D01*
X120711843Y-140961843D01*
X120793070Y-140862868D01*
X120853427Y-140749948D01*
X120890595Y-140627422D01*
X120900000Y-140531932D01*
X120900000Y-140531924D01*
X120903144Y-140500000D01*
X120900000Y-140468076D01*
X120900000Y-132293739D01*
X120955634Y-132397823D01*
X121111840Y-132588160D01*
X121302177Y-132744366D01*
X121350001Y-132769928D01*
X121350000Y-148980762D01*
X111490762Y-158840000D01*
X109419928Y-158840000D01*
X109394366Y-158792177D01*
X109238160Y-158601840D01*
X109047823Y-158445634D01*
X108830669Y-158329563D01*
X108595043Y-158258087D01*
X108411405Y-158240000D01*
X108288595Y-158240000D01*
X108104957Y-158258087D01*
X107869331Y-158329563D01*
X107652177Y-158445634D01*
X107461840Y-158601840D01*
X107305634Y-158792177D01*
X107189563Y-159009331D01*
X107118087Y-159244957D01*
X107093952Y-159490000D01*
X107118087Y-159735043D01*
X107189563Y-159970669D01*
X107305634Y-160187823D01*
X107461840Y-160378160D01*
X107652177Y-160534366D01*
X107869331Y-160650437D01*
X108104957Y-160721913D01*
X108288595Y-160740000D01*
X108411405Y-160740000D01*
X108595043Y-160721913D01*
X108830669Y-160650437D01*
X109047823Y-160534366D01*
X109238160Y-160378160D01*
X109394366Y-160187823D01*
X109419928Y-160140000D01*
X111728079Y-160140000D01*
X111760000Y-160143144D01*
X111791921Y-160140000D01*
X111791932Y-160140000D01*
X111887422Y-160130595D01*
X112009948Y-160093427D01*
X112122868Y-160033070D01*
X112221843Y-159951843D01*
X112242200Y-159927038D01*
X122437039Y-149732199D01*
X122461843Y-149711843D01*
X122501303Y-149663760D01*
X122543070Y-149612869D01*
X122603427Y-149499948D01*
X122603427Y-149499947D01*
X122640595Y-149377422D01*
X122650000Y-149281932D01*
X122650000Y-149281921D01*
X122653144Y-149250000D01*
X122650000Y-149218079D01*
X122650000Y-132769928D01*
X122697823Y-132744366D01*
X122888160Y-132588160D01*
X123044366Y-132397823D01*
X123160437Y-132180669D01*
X123231913Y-131945043D01*
X123256048Y-131700000D01*
X123231913Y-131454957D01*
X123160437Y-131219331D01*
X123044366Y-131002177D01*
X122888160Y-130811840D01*
X122697823Y-130655634D01*
X122480669Y-130539563D01*
X122245043Y-130468087D01*
X122061405Y-130450000D01*
X121938595Y-130450000D01*
X121754957Y-130468087D01*
X121519331Y-130539563D01*
X121302177Y-130655634D01*
X121111840Y-130811840D01*
X120955634Y-131002177D01*
X120900000Y-131106261D01*
X120900000Y-130269238D01*
X121116914Y-130052324D01*
X121302177Y-130204366D01*
X121519331Y-130320437D01*
X121754957Y-130391913D01*
X121938595Y-130410000D01*
X122061405Y-130410000D01*
X122245043Y-130391913D01*
X122480669Y-130320437D01*
X122697823Y-130204366D01*
X122888160Y-130048160D01*
X123044366Y-129857823D01*
X123160437Y-129640669D01*
X123231913Y-129405043D01*
X123256048Y-129160000D01*
X123231913Y-128914957D01*
X123160437Y-128679331D01*
X123044366Y-128462177D01*
X122888160Y-128271840D01*
X122697823Y-128115634D01*
X122480669Y-127999563D01*
X122245043Y-127928087D01*
X122061405Y-127910000D01*
X121938595Y-127910000D01*
X121754957Y-127928087D01*
X121519331Y-127999563D01*
X121302177Y-128115634D01*
X121111840Y-128271840D01*
X120955634Y-128462177D01*
X120917782Y-128532994D01*
X120840052Y-128556573D01*
X120727132Y-128616930D01*
X120719369Y-128623301D01*
X120652959Y-128677802D01*
X120652957Y-128677804D01*
X120628157Y-128698157D01*
X120607804Y-128722957D01*
X119812962Y-129517800D01*
X119788157Y-129538157D01*
X119760545Y-129571803D01*
X119706930Y-129637132D01*
X119651437Y-129740953D01*
X119646573Y-129750053D01*
X119609405Y-129872579D01*
X119600000Y-129968069D01*
X119600000Y-129968079D01*
X119596856Y-130000000D01*
X119600000Y-130031922D01*
X119600001Y-140230761D01*
X116980762Y-142850000D01*
X113781924Y-142850000D01*
X113750000Y-142846856D01*
X113718076Y-142850000D01*
X113718068Y-142850000D01*
X113622578Y-142859405D01*
X113500052Y-142896573D01*
X113387132Y-142956930D01*
X113288157Y-143038157D01*
X113267802Y-143062960D01*
X105372962Y-150957800D01*
X105348157Y-150978157D01*
X105327802Y-151002960D01*
X105266930Y-151077132D01*
X105206574Y-151190052D01*
X105206573Y-151190053D01*
X105169405Y-151312579D01*
X105160000Y-151408069D01*
X105160000Y-151408079D01*
X105156856Y-151440000D01*
X105160000Y-151471922D01*
X105160001Y-158420072D01*
X105112177Y-158445634D01*
X104921840Y-158601840D01*
X104765634Y-158792177D01*
X104649563Y-159009331D01*
X104578087Y-159244957D01*
X104553952Y-159490000D01*
X104526048Y-159490000D01*
X104501913Y-159244957D01*
X104430437Y-159009331D01*
X104314366Y-158792177D01*
X104158160Y-158601840D01*
X103967823Y-158445634D01*
X103920000Y-158420072D01*
X103920000Y-136999238D01*
X107969238Y-132950000D01*
X112048065Y-132950000D01*
X112048065Y-137950000D01*
X112055788Y-138028414D01*
X112078660Y-138103814D01*
X112115803Y-138173303D01*
X112165789Y-138234211D01*
X112226697Y-138284197D01*
X112296186Y-138321340D01*
X112371586Y-138344212D01*
X112450000Y-138351935D01*
X114950000Y-138351935D01*
X115028414Y-138344212D01*
X115103814Y-138321340D01*
X115173303Y-138284197D01*
X115234211Y-138234211D01*
X115284197Y-138173303D01*
X115321340Y-138103814D01*
X115344212Y-138028414D01*
X115351935Y-137950000D01*
X115351935Y-132950000D01*
X115344212Y-132871586D01*
X115321340Y-132796186D01*
X115284197Y-132726697D01*
X115234211Y-132665789D01*
X115173303Y-132615803D01*
X115103814Y-132578660D01*
X115028414Y-132555788D01*
X114950000Y-132548065D01*
X112450000Y-132548065D01*
X112371586Y-132555788D01*
X112296186Y-132578660D01*
X112226697Y-132615803D01*
X112165789Y-132665789D01*
X112115803Y-132726697D01*
X112078660Y-132796186D01*
X112055788Y-132871586D01*
X112048065Y-132950000D01*
X107969238Y-132950000D01*
X113649239Y-127270000D01*
X116350762Y-127270000D01*
X116550001Y-127469239D01*
X116550000Y-132548065D01*
X115950000Y-132548065D01*
X115871586Y-132555788D01*
X115796186Y-132578660D01*
X115726697Y-132615803D01*
X115665789Y-132665789D01*
X115615803Y-132726697D01*
X115578660Y-132796186D01*
X115555788Y-132871586D01*
X115548065Y-132950000D01*
X115548065Y-137950000D01*
X115555788Y-138028414D01*
X115578660Y-138103814D01*
X115615803Y-138173303D01*
X115665789Y-138234211D01*
X115726697Y-138284197D01*
X115796186Y-138321340D01*
X115871586Y-138344212D01*
X115950000Y-138351935D01*
X118450000Y-138351935D01*
X118528414Y-138344212D01*
X118603814Y-138321340D01*
X118673303Y-138284197D01*
X118734211Y-138234211D01*
X118784197Y-138173303D01*
X118821340Y-138103814D01*
X118844212Y-138028414D01*
X118851935Y-137950000D01*
X118851935Y-132950000D01*
X118844212Y-132871586D01*
X118821340Y-132796186D01*
X118784197Y-132726697D01*
X118734211Y-132665789D01*
X118673303Y-132615803D01*
X118603814Y-132578660D01*
X118528414Y-132555788D01*
X118450000Y-132548065D01*
X117850000Y-132548065D01*
X117850000Y-127569238D01*
X118057033Y-127362204D01*
X118081843Y-127341843D01*
X118140803Y-127270000D01*
X120930072Y-127270000D01*
X120955634Y-127317823D01*
X121111840Y-127508160D01*
X121302177Y-127664366D01*
X121519331Y-127780437D01*
X121754957Y-127851913D01*
X121938595Y-127870000D01*
X122061405Y-127870000D01*
X122245043Y-127851913D01*
X122480669Y-127780437D01*
X122697823Y-127664366D01*
X122888160Y-127508160D01*
X123044366Y-127317823D01*
X123160437Y-127100669D01*
X123231913Y-126865043D01*
X123256048Y-126620000D01*
X123231913Y-126374957D01*
X123160437Y-126139331D01*
X123044366Y-125922177D01*
X122888160Y-125731840D01*
X122697823Y-125575634D01*
X122480669Y-125459563D01*
X122245043Y-125388087D01*
X122061405Y-125370000D01*
X121938595Y-125370000D01*
X121754957Y-125388087D01*
X121519331Y-125459563D01*
X121302177Y-125575634D01*
X121111840Y-125731840D01*
X120955634Y-125922177D01*
X120930072Y-125970000D01*
X117651931Y-125970000D01*
X117620000Y-125966855D01*
X117588068Y-125970000D01*
X117151921Y-125970000D01*
X117120000Y-125966856D01*
X117088079Y-125970000D01*
X116651921Y-125970000D01*
X116620000Y-125966856D01*
X116588079Y-125970000D01*
X113411920Y-125970000D01*
X113379999Y-125966856D01*
X113348078Y-125970000D01*
X113348068Y-125970000D01*
X113252578Y-125979405D01*
X113130052Y-126016573D01*
X113017132Y-126076930D01*
X113017130Y-126076931D01*
X113017131Y-126076931D01*
X112942959Y-126137802D01*
X112942957Y-126137804D01*
X112918157Y-126158157D01*
X112897804Y-126182957D01*
X102832957Y-136247805D01*
X102808158Y-136268157D01*
X102787805Y-136292957D01*
X102787802Y-136292960D01*
X102726930Y-136367132D01*
X102666573Y-136480053D01*
X102629406Y-136602578D01*
X102622634Y-136671340D01*
X102616856Y-136730000D01*
X102620001Y-136761932D01*
X102620000Y-158420072D01*
X102572177Y-158445634D01*
X102381840Y-158601840D01*
X102225634Y-158792177D01*
X102109563Y-159009331D01*
X102038087Y-159244957D01*
X102013952Y-159490000D01*
X99446048Y-159490000D01*
X99421913Y-159244957D01*
X99350437Y-159009331D01*
X99234366Y-158792177D01*
X99078160Y-158601840D01*
X98887823Y-158445634D01*
X98840000Y-158420072D01*
X98840000Y-137579238D01*
X114229238Y-122190000D01*
X120930072Y-122190000D01*
X120955634Y-122237823D01*
X121111840Y-122428160D01*
X121302177Y-122584366D01*
X121519331Y-122700437D01*
X121754957Y-122771913D01*
X121938595Y-122790000D01*
X122061405Y-122790000D01*
X122245043Y-122771913D01*
X122480669Y-122700437D01*
X122697823Y-122584366D01*
X122888160Y-122428160D01*
X123044366Y-122237823D01*
X123160437Y-122020669D01*
X123231913Y-121785043D01*
X123256048Y-121540000D01*
X123231913Y-121294957D01*
X123160437Y-121059331D01*
X123044366Y-120842177D01*
X122888160Y-120651840D01*
X122697823Y-120495634D01*
X122480669Y-120379563D01*
X122245043Y-120308087D01*
X122061405Y-120290000D01*
X121938595Y-120290000D01*
X121754957Y-120308087D01*
X121519331Y-120379563D01*
X121302177Y-120495634D01*
X121111840Y-120651840D01*
X120955634Y-120842177D01*
X120930072Y-120890000D01*
X113991921Y-120890000D01*
X113960000Y-120886856D01*
X113928079Y-120890000D01*
X113928068Y-120890000D01*
X113832578Y-120899405D01*
X113736949Y-120928414D01*
X113710052Y-120936573D01*
X113597131Y-120996930D01*
X113546240Y-121038697D01*
X113498157Y-121078157D01*
X113477800Y-121102962D01*
X97752962Y-136827800D01*
X97728157Y-136848157D01*
X97707802Y-136872960D01*
X97646930Y-136947132D01*
X97586574Y-137060052D01*
X97586573Y-137060053D01*
X97549405Y-137182579D01*
X97540000Y-137278069D01*
X97540000Y-137278079D01*
X97536856Y-137310000D01*
X97540000Y-137341922D01*
X97540001Y-158420072D01*
X97492177Y-158445634D01*
X97301840Y-158601840D01*
X97145634Y-158792177D01*
X97029563Y-159009331D01*
X96958087Y-159244957D01*
X96933952Y-159490000D01*
X96901935Y-159490000D01*
X96901935Y-158640000D01*
X96894212Y-158561586D01*
X96871340Y-158486186D01*
X96834197Y-158416697D01*
X96784211Y-158355789D01*
X96723303Y-158305803D01*
X96653814Y-158268660D01*
X96578414Y-158245788D01*
X96500000Y-158238065D01*
X96300000Y-158238065D01*
X96300000Y-136369238D01*
X113019239Y-119650000D01*
X120748065Y-119650000D01*
X120748065Y-119850000D01*
X120755788Y-119928414D01*
X120778660Y-120003814D01*
X120815803Y-120073303D01*
X120865789Y-120134211D01*
X120926697Y-120184197D01*
X120996186Y-120221340D01*
X121071586Y-120244212D01*
X121150000Y-120251935D01*
X122850000Y-120251935D01*
X122928414Y-120244212D01*
X123003814Y-120221340D01*
X123073303Y-120184197D01*
X123134211Y-120134211D01*
X123184197Y-120073303D01*
X123221340Y-120003814D01*
X123244212Y-119928414D01*
X123251935Y-119850000D01*
X123251935Y-118150000D01*
X123244212Y-118071586D01*
X123221340Y-117996186D01*
X123184197Y-117926697D01*
X123134211Y-117865789D01*
X123073303Y-117815803D01*
X123003814Y-117778660D01*
X122928414Y-117755788D01*
X122850000Y-117748065D01*
X121150000Y-117748065D01*
X121071586Y-117755788D01*
X120996186Y-117778660D01*
X120926697Y-117815803D01*
X120865789Y-117865789D01*
X120815803Y-117926697D01*
X120778660Y-117996186D01*
X120755788Y-118071586D01*
X120748065Y-118150000D01*
X120748065Y-118350000D01*
X112781921Y-118350000D01*
X112750000Y-118346856D01*
X112718079Y-118350000D01*
X112718068Y-118350000D01*
X112622578Y-118359405D01*
X112500052Y-118396573D01*
X112387131Y-118456930D01*
X112312959Y-118517802D01*
X112312957Y-118517804D01*
X112288157Y-118538157D01*
X112267804Y-118562957D01*
X95212958Y-135617804D01*
X95188158Y-135638157D01*
X95167805Y-135662957D01*
X95167802Y-135662960D01*
X95106930Y-135737132D01*
X95046573Y-135850053D01*
X95009406Y-135972578D01*
X94996856Y-136100000D01*
X95000001Y-136131932D01*
X95000000Y-158238065D01*
X94800000Y-158238065D01*
X94721586Y-158245788D01*
X94646186Y-158268660D01*
X94576697Y-158305803D01*
X94515789Y-158355789D01*
X94465803Y-158416697D01*
X94428660Y-158486186D01*
X94405788Y-158561586D01*
X94398065Y-158640000D01*
X90171935Y-158640000D01*
X90171935Y-157150000D01*
X90164212Y-157071586D01*
X90141340Y-156996186D01*
X90104197Y-156926697D01*
X90054211Y-156865789D01*
X89993303Y-156815803D01*
X89923814Y-156778660D01*
X89848414Y-156755788D01*
X89770000Y-156748065D01*
X88070000Y-156748065D01*
X87991586Y-156755788D01*
X87916186Y-156778660D01*
X87846697Y-156815803D01*
X87785789Y-156865789D01*
X87735803Y-156926697D01*
X87698660Y-156996186D01*
X87675788Y-157071586D01*
X87668065Y-157150000D01*
X79425000Y-157150000D01*
X79425000Y-125092308D01*
X80926154Y-125092308D01*
X80926154Y-132907692D01*
X80929878Y-132945670D01*
X80933328Y-132983581D01*
X80933728Y-132984940D01*
X80933867Y-132986357D01*
X80944904Y-133022912D01*
X80955645Y-133059408D01*
X80956302Y-133060665D01*
X80956713Y-133062026D01*
X80974609Y-133095684D01*
X80992264Y-133129455D01*
X80993155Y-133130563D01*
X80993821Y-133131816D01*
X81017911Y-133161353D01*
X81041793Y-133191056D01*
X81042880Y-133191968D01*
X81043778Y-133193069D01*
X81073119Y-133217342D01*
X81102342Y-133241863D01*
X81103589Y-133242548D01*
X81104681Y-133243452D01*
X81138211Y-133261582D01*
X81171608Y-133279942D01*
X81172959Y-133280371D01*
X81174210Y-133281047D01*
X81210650Y-133292327D01*
X81246950Y-133303842D01*
X81248361Y-133304000D01*
X81249717Y-133304420D01*
X81287565Y-133308398D01*
X81325499Y-133312653D01*
X81328230Y-133312672D01*
X81328327Y-133312682D01*
X81328424Y-133312673D01*
X81331154Y-133312692D01*
X96717692Y-133312692D01*
X96755670Y-133308968D01*
X96793581Y-133305518D01*
X96794940Y-133305118D01*
X96796357Y-133304979D01*
X96832912Y-133293942D01*
X96869408Y-133283201D01*
X96870665Y-133282544D01*
X96872026Y-133282133D01*
X96905684Y-133264237D01*
X96939455Y-133246582D01*
X96940563Y-133245691D01*
X96941816Y-133245025D01*
X96971353Y-133220935D01*
X97001056Y-133197053D01*
X97001968Y-133195966D01*
X97003069Y-133195068D01*
X97027342Y-133165727D01*
X97051863Y-133136504D01*
X97052548Y-133135257D01*
X97053452Y-133134165D01*
X97071582Y-133100635D01*
X97089942Y-133067238D01*
X97090371Y-133065887D01*
X97091047Y-133064636D01*
X97102327Y-133028196D01*
X97113842Y-132991896D01*
X97114000Y-132990485D01*
X97114420Y-132989129D01*
X97118398Y-132951281D01*
X97122653Y-132913347D01*
X97122672Y-132910616D01*
X97122682Y-132910519D01*
X97122673Y-132910422D01*
X97122692Y-132907692D01*
X97122692Y-125092308D01*
X97118968Y-125054330D01*
X97115518Y-125016419D01*
X97115118Y-125015060D01*
X97114979Y-125013643D01*
X97103942Y-124977088D01*
X97093201Y-124940592D01*
X97092544Y-124939335D01*
X97092133Y-124937974D01*
X97074237Y-124904316D01*
X97056582Y-124870545D01*
X97055691Y-124869437D01*
X97055025Y-124868184D01*
X97030935Y-124838647D01*
X97007053Y-124808944D01*
X97005966Y-124808032D01*
X97005068Y-124806931D01*
X96975727Y-124782658D01*
X96946504Y-124758137D01*
X96945257Y-124757452D01*
X96944165Y-124756548D01*
X96910635Y-124738418D01*
X96877238Y-124720058D01*
X96875887Y-124719629D01*
X96874636Y-124718953D01*
X96838196Y-124707673D01*
X96801896Y-124696158D01*
X96800485Y-124696000D01*
X96799129Y-124695580D01*
X96761281Y-124691602D01*
X96723347Y-124687347D01*
X96720616Y-124687328D01*
X96720519Y-124687318D01*
X96720422Y-124687327D01*
X96717692Y-124687308D01*
X81331154Y-124687308D01*
X81293176Y-124691032D01*
X81255265Y-124694482D01*
X81253906Y-124694882D01*
X81252489Y-124695021D01*
X81215934Y-124706058D01*
X81179438Y-124716799D01*
X81178181Y-124717456D01*
X81176820Y-124717867D01*
X81143162Y-124735763D01*
X81109391Y-124753418D01*
X81108283Y-124754309D01*
X81107030Y-124754975D01*
X81077493Y-124779065D01*
X81047790Y-124802947D01*
X81046878Y-124804034D01*
X81045777Y-124804932D01*
X81021504Y-124834273D01*
X80996983Y-124863496D01*
X80996298Y-124864743D01*
X80995394Y-124865835D01*
X80977264Y-124899365D01*
X80958904Y-124932762D01*
X80958475Y-124934113D01*
X80957799Y-124935364D01*
X80946519Y-124971804D01*
X80935004Y-125008104D01*
X80934846Y-125009515D01*
X80934426Y-125010871D01*
X80930448Y-125048719D01*
X80926193Y-125086653D01*
X80926174Y-125089384D01*
X80926164Y-125089481D01*
X80926173Y-125089578D01*
X80926154Y-125092308D01*
X79425000Y-125092308D01*
X79425000Y-119150000D01*
X84668065Y-119150000D01*
X84668065Y-120850000D01*
X84675788Y-120928414D01*
X84698660Y-121003814D01*
X84735803Y-121073303D01*
X84785789Y-121134211D01*
X84846697Y-121184197D01*
X84916186Y-121221340D01*
X84991586Y-121244212D01*
X85070000Y-121251935D01*
X86770000Y-121251935D01*
X86848414Y-121244212D01*
X86923814Y-121221340D01*
X86993303Y-121184197D01*
X87054211Y-121134211D01*
X87104197Y-121073303D01*
X87141340Y-121003814D01*
X87164212Y-120928414D01*
X87171935Y-120850000D01*
X87171935Y-119150000D01*
X87164212Y-119071586D01*
X87141340Y-118996186D01*
X87104197Y-118926697D01*
X87054211Y-118865789D01*
X86993303Y-118815803D01*
X86923814Y-118778660D01*
X86848414Y-118755788D01*
X86770000Y-118748065D01*
X85070000Y-118748065D01*
X84991586Y-118755788D01*
X84916186Y-118778660D01*
X84846697Y-118815803D01*
X84785789Y-118865789D01*
X84735803Y-118926697D01*
X84698660Y-118996186D01*
X84675788Y-119071586D01*
X84668065Y-119150000D01*
X79425000Y-119150000D01*
X79425000Y-114788243D01*
X86770000Y-114788243D01*
X86770000Y-115211757D01*
X86852623Y-115627132D01*
X87014695Y-116018407D01*
X87249986Y-116370545D01*
X87549455Y-116670014D01*
X87901593Y-116905305D01*
X88292868Y-117067377D01*
X88708243Y-117150000D01*
X89131757Y-117150000D01*
X89547132Y-117067377D01*
X89938407Y-116905305D01*
X90290545Y-116670014D01*
X90590014Y-116370545D01*
X90825305Y-116018407D01*
X90987377Y-115627132D01*
X91070000Y-115211757D01*
X91070000Y-114788243D01*
X117770000Y-114788243D01*
X117770000Y-115211757D01*
X117852623Y-115627132D01*
X118014695Y-116018407D01*
X118249986Y-116370545D01*
X118549455Y-116670014D01*
X118901593Y-116905305D01*
X119292868Y-117067377D01*
X119708243Y-117150000D01*
X120131757Y-117150000D01*
X120547132Y-117067377D01*
X120938407Y-116905305D01*
X121290545Y-116670014D01*
X121590014Y-116370545D01*
X121825305Y-116018407D01*
X121987377Y-115627132D01*
X122070000Y-115211757D01*
X122070000Y-114788243D01*
X121987377Y-114372868D01*
X121825305Y-113981593D01*
X121590014Y-113629455D01*
X121290545Y-113329986D01*
X120938407Y-113094695D01*
X120547132Y-112932623D01*
X120131757Y-112850000D01*
X119708243Y-112850000D01*
X119292868Y-112932623D01*
X118901593Y-113094695D01*
X118549455Y-113329986D01*
X118249986Y-113629455D01*
X118014695Y-113981593D01*
X117852623Y-114372868D01*
X117770000Y-114788243D01*
X91070000Y-114788243D01*
X90987377Y-114372868D01*
X90825305Y-113981593D01*
X90590014Y-113629455D01*
X90290545Y-113329986D01*
X89938407Y-113094695D01*
X89547132Y-112932623D01*
X89131757Y-112850000D01*
X88708243Y-112850000D01*
X88292868Y-112932623D01*
X87901593Y-113094695D01*
X87549455Y-113329986D01*
X87249986Y-113629455D01*
X87014695Y-113981593D01*
X86852623Y-114372868D01*
X86770000Y-114788243D01*
X79425000Y-114788243D01*
X79425000Y-111020790D01*
X79476041Y-110500241D01*
X79621179Y-110019520D01*
X79856925Y-109576144D01*
X80174300Y-109187004D01*
X80561216Y-108866919D01*
X81002939Y-108628081D01*
X81482634Y-108479590D01*
X82002025Y-108425000D01*
X121979210Y-108425000D01*
X122499759Y-108476041D01*
%TD*%
M02*
