%TF.GenerationSoftware,KiCad,Pcbnew,(5.1.10)-1*%
%TF.CreationDate,2022-06-23T17:12:29+02:00*%
%TF.ProjectId,Stop_BBM_3PIC,53746f70-5f42-4424-9d5f-335049432e6b,1.1*%
%TF.SameCoordinates,Original*%
%TF.FileFunction,Copper,L1,Top*%
%TF.FilePolarity,Positive*%
%FSLAX46Y46*%
G04 Gerber Fmt 4.6, Leading zero omitted, Abs format (unit mm)*
G04 Created by KiCad (PCBNEW (5.1.10)-1) date 2022-06-23 17:12:29*
%MOMM*%
%LPD*%
G01*
G04 APERTURE LIST*
%TA.AperFunction,ComponentPad*%
%ADD10O,1.700000X1.700000*%
%TD*%
%TA.AperFunction,ComponentPad*%
%ADD11R,1.700000X1.700000*%
%TD*%
%TA.AperFunction,SMDPad,CuDef*%
%ADD12R,2.500000X5.000000*%
%TD*%
%TA.AperFunction,Conductor*%
%ADD13C,0.500000*%
%TD*%
%TA.AperFunction,Conductor*%
%ADD14C,0.254000*%
%TD*%
%TA.AperFunction,Conductor*%
%ADD15C,0.100000*%
%TD*%
G04 APERTURE END LIST*
D10*
%TO.P,J3,6*%
%TO.N,Vbatt*%
X122000000Y-131700000D03*
%TO.P,J3,5*%
%TO.N,ISCPCLK*%
X122000000Y-129160000D03*
%TO.P,J3,4*%
%TO.N,ISCPDAT*%
X122000000Y-126620000D03*
%TO.P,J3,3*%
%TO.N,GND*%
X122000000Y-124080000D03*
%TO.P,J3,2*%
%TO.N,+3V3_5V*%
X122000000Y-121540000D03*
D11*
%TO.P,J3,1*%
%TO.N,MCLR*%
X122000000Y-119000000D03*
%TD*%
D12*
%TO.P,J1,2*%
%TO.N,ISCPDAT*%
X117200000Y-135450000D03*
%TO.P,J1,1*%
%TO.N,Net-(J1-Pad1)*%
X113700000Y-135450000D03*
%TD*%
D10*
%TO.P,J2,6*%
%TO.N,Vbatt*%
X108350000Y-159490000D03*
%TO.P,J2,5*%
%TO.N,ISCPCLK*%
X105810000Y-159490000D03*
%TO.P,J2,4*%
%TO.N,ISCPDAT*%
X103270000Y-159490000D03*
%TO.P,J2,3*%
%TO.N,GND*%
X100730000Y-159490000D03*
%TO.P,J2,2*%
%TO.N,+3V3_5V*%
X98190000Y-159490000D03*
D11*
%TO.P,J2,1*%
%TO.N,MCLR*%
X95650000Y-159490000D03*
%TD*%
%TO.P,J4,1*%
%TO.N,ISCPDAT*%
X117200000Y-135450000D03*
%TD*%
%TO.P,J5,1*%
%TO.N,Net-(J5-Pad1)*%
X85920000Y-120000000D03*
%TD*%
%TO.P,J6,1*%
%TO.N,Net-(J6-Pad1)*%
X88920000Y-158000000D03*
%TD*%
D13*
%TO.N,Vbatt*%
X108350000Y-159490000D02*
X111760000Y-159490000D01*
X122000000Y-149250000D02*
X122000000Y-131700000D01*
X111760000Y-159490000D02*
X122000000Y-149250000D01*
%TO.N,+3V3_5V*%
X122000000Y-121540000D02*
X113960000Y-121540000D01*
X98190000Y-137310000D02*
X98190000Y-159490000D01*
X113960000Y-121540000D02*
X98190000Y-137310000D01*
%TO.N,MCLR*%
X95650000Y-159490000D02*
X95650000Y-136100000D01*
X112750000Y-119000000D02*
X122000000Y-119000000D01*
X95650000Y-136100000D02*
X112750000Y-119000000D01*
%TO.N,ISCPDAT*%
X103270000Y-159490000D02*
X103270000Y-136730000D01*
X103270000Y-136730000D02*
X113380000Y-126620000D01*
X117120000Y-126620000D02*
X117620000Y-126620000D01*
X117620000Y-126620000D02*
X122000000Y-126620000D01*
X116620000Y-126620000D02*
X117120000Y-126620000D01*
X113380000Y-126620000D02*
X116620000Y-126620000D01*
X117200000Y-126700000D02*
X117120000Y-126620000D01*
X117620000Y-126880000D02*
X117200000Y-127300000D01*
X117620000Y-126620000D02*
X117620000Y-126880000D01*
X117200000Y-127300000D02*
X117200000Y-126700000D01*
X117200000Y-135450000D02*
X117200000Y-127300000D01*
X117200000Y-127200000D02*
X116620000Y-126620000D01*
X117200000Y-127300000D02*
X117200000Y-127200000D01*
%TO.N,ISCPCLK*%
X122000000Y-129160000D02*
X121090000Y-129160000D01*
X121090000Y-129160000D02*
X120250000Y-130000000D01*
X120250000Y-130000000D02*
X120250000Y-140500000D01*
X120250000Y-140500000D02*
X117250000Y-143500000D01*
X117250000Y-143500000D02*
X113750000Y-143500000D01*
X105810000Y-151440000D02*
X105810000Y-159490000D01*
X113750000Y-143500000D02*
X105810000Y-151440000D01*
%TD*%
D14*
%TO.N,GND*%
X122494492Y-108502654D02*
X122970137Y-108646259D01*
X123408843Y-108879522D01*
X123793880Y-109193551D01*
X124110592Y-109576390D01*
X124346907Y-110013447D01*
X124493835Y-110488091D01*
X124548000Y-111003439D01*
X124548001Y-166977881D01*
X124497347Y-167494487D01*
X124353740Y-167970141D01*
X124120478Y-168408842D01*
X123806449Y-168793880D01*
X123423610Y-169110592D01*
X122986552Y-169346908D01*
X122511909Y-169493835D01*
X121996560Y-169548000D01*
X82022108Y-169548000D01*
X81505513Y-169497347D01*
X81029859Y-169353740D01*
X80591158Y-169120478D01*
X80206120Y-168806449D01*
X79889408Y-168423610D01*
X79653092Y-167986552D01*
X79506165Y-167511909D01*
X79452000Y-166996560D01*
X79452000Y-162785584D01*
X86743000Y-162785584D01*
X86743000Y-163214416D01*
X86826660Y-163635008D01*
X86990767Y-164031196D01*
X87229013Y-164387757D01*
X87532243Y-164690987D01*
X87888804Y-164929233D01*
X88284992Y-165093340D01*
X88705584Y-165177000D01*
X89134416Y-165177000D01*
X89555008Y-165093340D01*
X89951196Y-164929233D01*
X90307757Y-164690987D01*
X90610987Y-164387757D01*
X90849233Y-164031196D01*
X91013340Y-163635008D01*
X91097000Y-163214416D01*
X91097000Y-162785584D01*
X117743000Y-162785584D01*
X117743000Y-163214416D01*
X117826660Y-163635008D01*
X117990767Y-164031196D01*
X118229013Y-164387757D01*
X118532243Y-164690987D01*
X118888804Y-164929233D01*
X119284992Y-165093340D01*
X119705584Y-165177000D01*
X120134416Y-165177000D01*
X120555008Y-165093340D01*
X120951196Y-164929233D01*
X121307757Y-164690987D01*
X121610987Y-164387757D01*
X121849233Y-164031196D01*
X122013340Y-163635008D01*
X122097000Y-163214416D01*
X122097000Y-162785584D01*
X122013340Y-162364992D01*
X121849233Y-161968804D01*
X121610987Y-161612243D01*
X121307757Y-161309013D01*
X120951196Y-161070767D01*
X120555008Y-160906660D01*
X120134416Y-160823000D01*
X119705584Y-160823000D01*
X119284992Y-160906660D01*
X118888804Y-161070767D01*
X118532243Y-161309013D01*
X118229013Y-161612243D01*
X117990767Y-161968804D01*
X117826660Y-162364992D01*
X117743000Y-162785584D01*
X91097000Y-162785584D01*
X91013340Y-162364992D01*
X90849233Y-161968804D01*
X90610987Y-161612243D01*
X90307757Y-161309013D01*
X89951196Y-161070767D01*
X89555008Y-160906660D01*
X89134416Y-160823000D01*
X88705584Y-160823000D01*
X88284992Y-160906660D01*
X87888804Y-161070767D01*
X87532243Y-161309013D01*
X87229013Y-161612243D01*
X86990767Y-161968804D01*
X86826660Y-162364992D01*
X86743000Y-162785584D01*
X79452000Y-162785584D01*
X79452000Y-157150000D01*
X87640934Y-157150000D01*
X87640934Y-158850000D01*
X87649178Y-158933707D01*
X87673595Y-159014196D01*
X87713245Y-159088376D01*
X87766605Y-159153395D01*
X87831624Y-159206755D01*
X87905804Y-159246405D01*
X87986293Y-159270822D01*
X88070000Y-159279066D01*
X89770000Y-159279066D01*
X89853707Y-159270822D01*
X89934196Y-159246405D01*
X90008376Y-159206755D01*
X90073395Y-159153395D01*
X90126755Y-159088376D01*
X90166405Y-159014196D01*
X90190822Y-158933707D01*
X90199066Y-158850000D01*
X90199066Y-158640000D01*
X94370934Y-158640000D01*
X94370934Y-160340000D01*
X94379178Y-160423707D01*
X94403595Y-160504196D01*
X94443245Y-160578376D01*
X94496605Y-160643395D01*
X94561624Y-160696755D01*
X94635804Y-160736405D01*
X94716293Y-160760822D01*
X94800000Y-160769066D01*
X96500000Y-160769066D01*
X96583707Y-160760822D01*
X96664196Y-160736405D01*
X96738376Y-160696755D01*
X96803395Y-160643395D01*
X96856755Y-160578376D01*
X96896405Y-160504196D01*
X96920822Y-160423707D01*
X96929066Y-160340000D01*
X96929066Y-159696544D01*
X96962074Y-159862487D01*
X97058337Y-160094886D01*
X97198089Y-160304040D01*
X97375960Y-160481911D01*
X97585114Y-160621663D01*
X97817513Y-160717926D01*
X98064226Y-160767000D01*
X98315774Y-160767000D01*
X98562487Y-160717926D01*
X98794886Y-160621663D01*
X99004040Y-160481911D01*
X99181911Y-160304040D01*
X99321663Y-160094886D01*
X99351197Y-160023584D01*
X99385843Y-160121252D01*
X99534822Y-160371355D01*
X99729731Y-160587588D01*
X99963080Y-160761641D01*
X100225901Y-160886825D01*
X100373110Y-160931476D01*
X100603000Y-160810155D01*
X100603000Y-159617000D01*
X100583000Y-159617000D01*
X100583000Y-159363000D01*
X100603000Y-159363000D01*
X100603000Y-158169845D01*
X100857000Y-158169845D01*
X100857000Y-159363000D01*
X100877000Y-159363000D01*
X100877000Y-159617000D01*
X100857000Y-159617000D01*
X100857000Y-160810155D01*
X101086890Y-160931476D01*
X101234099Y-160886825D01*
X101496920Y-160761641D01*
X101730269Y-160587588D01*
X101925178Y-160371355D01*
X102074157Y-160121252D01*
X102108803Y-160023584D01*
X102138337Y-160094886D01*
X102278089Y-160304040D01*
X102455960Y-160481911D01*
X102665114Y-160621663D01*
X102897513Y-160717926D01*
X103144226Y-160767000D01*
X103395774Y-160767000D01*
X103642487Y-160717926D01*
X103874886Y-160621663D01*
X104084040Y-160481911D01*
X104261911Y-160304040D01*
X104401663Y-160094886D01*
X104497926Y-159862487D01*
X104540000Y-159650966D01*
X104582074Y-159862487D01*
X104678337Y-160094886D01*
X104818089Y-160304040D01*
X104995960Y-160481911D01*
X105205114Y-160621663D01*
X105437513Y-160717926D01*
X105684226Y-160767000D01*
X105935774Y-160767000D01*
X106182487Y-160717926D01*
X106414886Y-160621663D01*
X106624040Y-160481911D01*
X106801911Y-160304040D01*
X106941663Y-160094886D01*
X107037926Y-159862487D01*
X107080000Y-159650966D01*
X107122074Y-159862487D01*
X107218337Y-160094886D01*
X107358089Y-160304040D01*
X107535960Y-160481911D01*
X107745114Y-160621663D01*
X107977513Y-160717926D01*
X108224226Y-160767000D01*
X108475774Y-160767000D01*
X108722487Y-160717926D01*
X108954886Y-160621663D01*
X109164040Y-160481911D01*
X109341911Y-160304040D01*
X109433478Y-160167000D01*
X111726755Y-160167000D01*
X111760000Y-160170274D01*
X111793245Y-160167000D01*
X111793252Y-160167000D01*
X111892715Y-160157204D01*
X112020330Y-160118492D01*
X112137941Y-160055628D01*
X112241027Y-159971027D01*
X112262226Y-159945196D01*
X122455206Y-149752217D01*
X122481026Y-149731027D01*
X122502218Y-149705205D01*
X122502224Y-149705199D01*
X122565628Y-149627941D01*
X122628492Y-149510330D01*
X122667204Y-149382715D01*
X122667204Y-149382714D01*
X122677000Y-149283252D01*
X122677000Y-149283245D01*
X122680274Y-149250000D01*
X122677000Y-149216755D01*
X122677000Y-132783478D01*
X122814040Y-132691911D01*
X122991911Y-132514040D01*
X123131663Y-132304886D01*
X123227926Y-132072487D01*
X123277000Y-131825774D01*
X123277000Y-131574226D01*
X123227926Y-131327513D01*
X123131663Y-131095114D01*
X122991911Y-130885960D01*
X122814040Y-130708089D01*
X122604886Y-130568337D01*
X122372487Y-130472074D01*
X122160966Y-130430000D01*
X122372487Y-130387926D01*
X122604886Y-130291663D01*
X122814040Y-130151911D01*
X122991911Y-129974040D01*
X123131663Y-129764886D01*
X123227926Y-129532487D01*
X123277000Y-129285774D01*
X123277000Y-129034226D01*
X123227926Y-128787513D01*
X123131663Y-128555114D01*
X122991911Y-128345960D01*
X122814040Y-128168089D01*
X122604886Y-128028337D01*
X122372487Y-127932074D01*
X122160966Y-127890000D01*
X122372487Y-127847926D01*
X122604886Y-127751663D01*
X122814040Y-127611911D01*
X122991911Y-127434040D01*
X123131663Y-127224886D01*
X123227926Y-126992487D01*
X123277000Y-126745774D01*
X123277000Y-126494226D01*
X123227926Y-126247513D01*
X123131663Y-126015114D01*
X122991911Y-125805960D01*
X122814040Y-125628089D01*
X122604886Y-125488337D01*
X122533584Y-125458803D01*
X122631252Y-125424157D01*
X122881355Y-125275178D01*
X123097588Y-125080269D01*
X123271641Y-124846920D01*
X123396825Y-124584099D01*
X123441476Y-124436890D01*
X123320155Y-124207000D01*
X122127000Y-124207000D01*
X122127000Y-124227000D01*
X121873000Y-124227000D01*
X121873000Y-124207000D01*
X120679845Y-124207000D01*
X120558524Y-124436890D01*
X120603175Y-124584099D01*
X120728359Y-124846920D01*
X120902412Y-125080269D01*
X121118645Y-125275178D01*
X121368748Y-125424157D01*
X121466416Y-125458803D01*
X121395114Y-125488337D01*
X121185960Y-125628089D01*
X121008089Y-125805960D01*
X120916522Y-125943000D01*
X117653252Y-125943000D01*
X117620000Y-125939725D01*
X117586748Y-125943000D01*
X117153245Y-125943000D01*
X117120000Y-125939726D01*
X117086755Y-125943000D01*
X116653245Y-125943000D01*
X116620000Y-125939726D01*
X116586755Y-125943000D01*
X113413241Y-125943000D01*
X113379999Y-125939726D01*
X113346757Y-125943000D01*
X113346748Y-125943000D01*
X113247285Y-125952796D01*
X113119670Y-125991508D01*
X113002059Y-126054372D01*
X112898973Y-126138973D01*
X112877774Y-126164804D01*
X102814800Y-136227778D01*
X102788974Y-136248973D01*
X102767779Y-136274799D01*
X102767776Y-136274802D01*
X102704372Y-136352060D01*
X102641508Y-136469671D01*
X102602796Y-136597286D01*
X102589726Y-136730000D01*
X102593001Y-136763255D01*
X102593000Y-158406522D01*
X102455960Y-158498089D01*
X102278089Y-158675960D01*
X102138337Y-158885114D01*
X102108803Y-158956416D01*
X102074157Y-158858748D01*
X101925178Y-158608645D01*
X101730269Y-158392412D01*
X101496920Y-158218359D01*
X101234099Y-158093175D01*
X101086890Y-158048524D01*
X100857000Y-158169845D01*
X100603000Y-158169845D01*
X100373110Y-158048524D01*
X100225901Y-158093175D01*
X99963080Y-158218359D01*
X99729731Y-158392412D01*
X99534822Y-158608645D01*
X99385843Y-158858748D01*
X99351197Y-158956416D01*
X99321663Y-158885114D01*
X99181911Y-158675960D01*
X99004040Y-158498089D01*
X98867000Y-158406522D01*
X98867000Y-137590422D01*
X114240423Y-122217000D01*
X120916522Y-122217000D01*
X121008089Y-122354040D01*
X121185960Y-122531911D01*
X121395114Y-122671663D01*
X121466416Y-122701197D01*
X121368748Y-122735843D01*
X121118645Y-122884822D01*
X120902412Y-123079731D01*
X120728359Y-123313080D01*
X120603175Y-123575901D01*
X120558524Y-123723110D01*
X120679845Y-123953000D01*
X121873000Y-123953000D01*
X121873000Y-123933000D01*
X122127000Y-123933000D01*
X122127000Y-123953000D01*
X123320155Y-123953000D01*
X123441476Y-123723110D01*
X123396825Y-123575901D01*
X123271641Y-123313080D01*
X123097588Y-123079731D01*
X122881355Y-122884822D01*
X122631252Y-122735843D01*
X122533584Y-122701197D01*
X122604886Y-122671663D01*
X122814040Y-122531911D01*
X122991911Y-122354040D01*
X123131663Y-122144886D01*
X123227926Y-121912487D01*
X123277000Y-121665774D01*
X123277000Y-121414226D01*
X123227926Y-121167513D01*
X123131663Y-120935114D01*
X122991911Y-120725960D01*
X122814040Y-120548089D01*
X122604886Y-120408337D01*
X122372487Y-120312074D01*
X122206544Y-120279066D01*
X122850000Y-120279066D01*
X122933707Y-120270822D01*
X123014196Y-120246405D01*
X123088376Y-120206755D01*
X123153395Y-120153395D01*
X123206755Y-120088376D01*
X123246405Y-120014196D01*
X123270822Y-119933707D01*
X123279066Y-119850000D01*
X123279066Y-118150000D01*
X123270822Y-118066293D01*
X123246405Y-117985804D01*
X123206755Y-117911624D01*
X123153395Y-117846605D01*
X123088376Y-117793245D01*
X123014196Y-117753595D01*
X122933707Y-117729178D01*
X122850000Y-117720934D01*
X121150000Y-117720934D01*
X121066293Y-117729178D01*
X120985804Y-117753595D01*
X120911624Y-117793245D01*
X120846605Y-117846605D01*
X120793245Y-117911624D01*
X120753595Y-117985804D01*
X120729178Y-118066293D01*
X120720934Y-118150000D01*
X120720934Y-118323000D01*
X112783245Y-118323000D01*
X112750000Y-118319726D01*
X112716755Y-118323000D01*
X112716748Y-118323000D01*
X112617285Y-118332796D01*
X112489670Y-118371508D01*
X112372059Y-118434372D01*
X112268973Y-118518973D01*
X112247778Y-118544799D01*
X95194800Y-135597778D01*
X95168974Y-135618973D01*
X95147779Y-135644799D01*
X95147776Y-135644802D01*
X95084372Y-135722060D01*
X95021508Y-135839671D01*
X94982796Y-135967286D01*
X94969726Y-136100000D01*
X94973001Y-136133255D01*
X94973000Y-158210934D01*
X94800000Y-158210934D01*
X94716293Y-158219178D01*
X94635804Y-158243595D01*
X94561624Y-158283245D01*
X94496605Y-158336605D01*
X94443245Y-158401624D01*
X94403595Y-158475804D01*
X94379178Y-158556293D01*
X94370934Y-158640000D01*
X90199066Y-158640000D01*
X90199066Y-157150000D01*
X90190822Y-157066293D01*
X90166405Y-156985804D01*
X90126755Y-156911624D01*
X90073395Y-156846605D01*
X90008376Y-156793245D01*
X89934196Y-156753595D01*
X89853707Y-156729178D01*
X89770000Y-156720934D01*
X88070000Y-156720934D01*
X87986293Y-156729178D01*
X87905804Y-156753595D01*
X87831624Y-156793245D01*
X87766605Y-156846605D01*
X87713245Y-156911624D01*
X87673595Y-156985804D01*
X87649178Y-157066293D01*
X87640934Y-157150000D01*
X79452000Y-157150000D01*
X79452000Y-119150000D01*
X84640934Y-119150000D01*
X84640934Y-120850000D01*
X84649178Y-120933707D01*
X84673595Y-121014196D01*
X84713245Y-121088376D01*
X84766605Y-121153395D01*
X84831624Y-121206755D01*
X84905804Y-121246405D01*
X84986293Y-121270822D01*
X85070000Y-121279066D01*
X86770000Y-121279066D01*
X86853707Y-121270822D01*
X86934196Y-121246405D01*
X87008376Y-121206755D01*
X87073395Y-121153395D01*
X87126755Y-121088376D01*
X87166405Y-121014196D01*
X87190822Y-120933707D01*
X87199066Y-120850000D01*
X87199066Y-119150000D01*
X87190822Y-119066293D01*
X87166405Y-118985804D01*
X87126755Y-118911624D01*
X87073395Y-118846605D01*
X87008376Y-118793245D01*
X86934196Y-118753595D01*
X86853707Y-118729178D01*
X86770000Y-118720934D01*
X85070000Y-118720934D01*
X84986293Y-118729178D01*
X84905804Y-118753595D01*
X84831624Y-118793245D01*
X84766605Y-118846605D01*
X84713245Y-118911624D01*
X84673595Y-118985804D01*
X84649178Y-119066293D01*
X84640934Y-119150000D01*
X79452000Y-119150000D01*
X79452000Y-114785584D01*
X86743000Y-114785584D01*
X86743000Y-115214416D01*
X86826660Y-115635008D01*
X86990767Y-116031196D01*
X87229013Y-116387757D01*
X87532243Y-116690987D01*
X87888804Y-116929233D01*
X88284992Y-117093340D01*
X88705584Y-117177000D01*
X89134416Y-117177000D01*
X89555008Y-117093340D01*
X89951196Y-116929233D01*
X90307757Y-116690987D01*
X90610987Y-116387757D01*
X90849233Y-116031196D01*
X91013340Y-115635008D01*
X91097000Y-115214416D01*
X91097000Y-114785584D01*
X117743000Y-114785584D01*
X117743000Y-115214416D01*
X117826660Y-115635008D01*
X117990767Y-116031196D01*
X118229013Y-116387757D01*
X118532243Y-116690987D01*
X118888804Y-116929233D01*
X119284992Y-117093340D01*
X119705584Y-117177000D01*
X120134416Y-117177000D01*
X120555008Y-117093340D01*
X120951196Y-116929233D01*
X121307757Y-116690987D01*
X121610987Y-116387757D01*
X121849233Y-116031196D01*
X122013340Y-115635008D01*
X122097000Y-115214416D01*
X122097000Y-114785584D01*
X122013340Y-114364992D01*
X121849233Y-113968804D01*
X121610987Y-113612243D01*
X121307757Y-113309013D01*
X120951196Y-113070767D01*
X120555008Y-112906660D01*
X120134416Y-112823000D01*
X119705584Y-112823000D01*
X119284992Y-112906660D01*
X118888804Y-113070767D01*
X118532243Y-113309013D01*
X118229013Y-113612243D01*
X117990767Y-113968804D01*
X117826660Y-114364992D01*
X117743000Y-114785584D01*
X91097000Y-114785584D01*
X91013340Y-114364992D01*
X90849233Y-113968804D01*
X90610987Y-113612243D01*
X90307757Y-113309013D01*
X89951196Y-113070767D01*
X89555008Y-112906660D01*
X89134416Y-112823000D01*
X88705584Y-112823000D01*
X88284992Y-112906660D01*
X87888804Y-113070767D01*
X87532243Y-113309013D01*
X87229013Y-113612243D01*
X86990767Y-113968804D01*
X86826660Y-114364992D01*
X86743000Y-114785584D01*
X79452000Y-114785584D01*
X79452000Y-111022109D01*
X79502654Y-110505508D01*
X79646259Y-110029863D01*
X79879522Y-109591157D01*
X80193551Y-109206120D01*
X80576390Y-108889408D01*
X81013447Y-108653093D01*
X81488091Y-108506165D01*
X82003439Y-108452000D01*
X121977891Y-108452000D01*
X122494492Y-108502654D01*
%TA.AperFunction,Conductor*%
D15*
G36*
X122494492Y-108502654D02*
G01*
X122970137Y-108646259D01*
X123408843Y-108879522D01*
X123793880Y-109193551D01*
X124110592Y-109576390D01*
X124346907Y-110013447D01*
X124493835Y-110488091D01*
X124548000Y-111003439D01*
X124548001Y-166977881D01*
X124497347Y-167494487D01*
X124353740Y-167970141D01*
X124120478Y-168408842D01*
X123806449Y-168793880D01*
X123423610Y-169110592D01*
X122986552Y-169346908D01*
X122511909Y-169493835D01*
X121996560Y-169548000D01*
X82022108Y-169548000D01*
X81505513Y-169497347D01*
X81029859Y-169353740D01*
X80591158Y-169120478D01*
X80206120Y-168806449D01*
X79889408Y-168423610D01*
X79653092Y-167986552D01*
X79506165Y-167511909D01*
X79452000Y-166996560D01*
X79452000Y-162785584D01*
X86743000Y-162785584D01*
X86743000Y-163214416D01*
X86826660Y-163635008D01*
X86990767Y-164031196D01*
X87229013Y-164387757D01*
X87532243Y-164690987D01*
X87888804Y-164929233D01*
X88284992Y-165093340D01*
X88705584Y-165177000D01*
X89134416Y-165177000D01*
X89555008Y-165093340D01*
X89951196Y-164929233D01*
X90307757Y-164690987D01*
X90610987Y-164387757D01*
X90849233Y-164031196D01*
X91013340Y-163635008D01*
X91097000Y-163214416D01*
X91097000Y-162785584D01*
X117743000Y-162785584D01*
X117743000Y-163214416D01*
X117826660Y-163635008D01*
X117990767Y-164031196D01*
X118229013Y-164387757D01*
X118532243Y-164690987D01*
X118888804Y-164929233D01*
X119284992Y-165093340D01*
X119705584Y-165177000D01*
X120134416Y-165177000D01*
X120555008Y-165093340D01*
X120951196Y-164929233D01*
X121307757Y-164690987D01*
X121610987Y-164387757D01*
X121849233Y-164031196D01*
X122013340Y-163635008D01*
X122097000Y-163214416D01*
X122097000Y-162785584D01*
X122013340Y-162364992D01*
X121849233Y-161968804D01*
X121610987Y-161612243D01*
X121307757Y-161309013D01*
X120951196Y-161070767D01*
X120555008Y-160906660D01*
X120134416Y-160823000D01*
X119705584Y-160823000D01*
X119284992Y-160906660D01*
X118888804Y-161070767D01*
X118532243Y-161309013D01*
X118229013Y-161612243D01*
X117990767Y-161968804D01*
X117826660Y-162364992D01*
X117743000Y-162785584D01*
X91097000Y-162785584D01*
X91013340Y-162364992D01*
X90849233Y-161968804D01*
X90610987Y-161612243D01*
X90307757Y-161309013D01*
X89951196Y-161070767D01*
X89555008Y-160906660D01*
X89134416Y-160823000D01*
X88705584Y-160823000D01*
X88284992Y-160906660D01*
X87888804Y-161070767D01*
X87532243Y-161309013D01*
X87229013Y-161612243D01*
X86990767Y-161968804D01*
X86826660Y-162364992D01*
X86743000Y-162785584D01*
X79452000Y-162785584D01*
X79452000Y-157150000D01*
X87640934Y-157150000D01*
X87640934Y-158850000D01*
X87649178Y-158933707D01*
X87673595Y-159014196D01*
X87713245Y-159088376D01*
X87766605Y-159153395D01*
X87831624Y-159206755D01*
X87905804Y-159246405D01*
X87986293Y-159270822D01*
X88070000Y-159279066D01*
X89770000Y-159279066D01*
X89853707Y-159270822D01*
X89934196Y-159246405D01*
X90008376Y-159206755D01*
X90073395Y-159153395D01*
X90126755Y-159088376D01*
X90166405Y-159014196D01*
X90190822Y-158933707D01*
X90199066Y-158850000D01*
X90199066Y-158640000D01*
X94370934Y-158640000D01*
X94370934Y-160340000D01*
X94379178Y-160423707D01*
X94403595Y-160504196D01*
X94443245Y-160578376D01*
X94496605Y-160643395D01*
X94561624Y-160696755D01*
X94635804Y-160736405D01*
X94716293Y-160760822D01*
X94800000Y-160769066D01*
X96500000Y-160769066D01*
X96583707Y-160760822D01*
X96664196Y-160736405D01*
X96738376Y-160696755D01*
X96803395Y-160643395D01*
X96856755Y-160578376D01*
X96896405Y-160504196D01*
X96920822Y-160423707D01*
X96929066Y-160340000D01*
X96929066Y-159696544D01*
X96962074Y-159862487D01*
X97058337Y-160094886D01*
X97198089Y-160304040D01*
X97375960Y-160481911D01*
X97585114Y-160621663D01*
X97817513Y-160717926D01*
X98064226Y-160767000D01*
X98315774Y-160767000D01*
X98562487Y-160717926D01*
X98794886Y-160621663D01*
X99004040Y-160481911D01*
X99181911Y-160304040D01*
X99321663Y-160094886D01*
X99351197Y-160023584D01*
X99385843Y-160121252D01*
X99534822Y-160371355D01*
X99729731Y-160587588D01*
X99963080Y-160761641D01*
X100225901Y-160886825D01*
X100373110Y-160931476D01*
X100603000Y-160810155D01*
X100603000Y-159617000D01*
X100583000Y-159617000D01*
X100583000Y-159363000D01*
X100603000Y-159363000D01*
X100603000Y-158169845D01*
X100857000Y-158169845D01*
X100857000Y-159363000D01*
X100877000Y-159363000D01*
X100877000Y-159617000D01*
X100857000Y-159617000D01*
X100857000Y-160810155D01*
X101086890Y-160931476D01*
X101234099Y-160886825D01*
X101496920Y-160761641D01*
X101730269Y-160587588D01*
X101925178Y-160371355D01*
X102074157Y-160121252D01*
X102108803Y-160023584D01*
X102138337Y-160094886D01*
X102278089Y-160304040D01*
X102455960Y-160481911D01*
X102665114Y-160621663D01*
X102897513Y-160717926D01*
X103144226Y-160767000D01*
X103395774Y-160767000D01*
X103642487Y-160717926D01*
X103874886Y-160621663D01*
X104084040Y-160481911D01*
X104261911Y-160304040D01*
X104401663Y-160094886D01*
X104497926Y-159862487D01*
X104540000Y-159650966D01*
X104582074Y-159862487D01*
X104678337Y-160094886D01*
X104818089Y-160304040D01*
X104995960Y-160481911D01*
X105205114Y-160621663D01*
X105437513Y-160717926D01*
X105684226Y-160767000D01*
X105935774Y-160767000D01*
X106182487Y-160717926D01*
X106414886Y-160621663D01*
X106624040Y-160481911D01*
X106801911Y-160304040D01*
X106941663Y-160094886D01*
X107037926Y-159862487D01*
X107080000Y-159650966D01*
X107122074Y-159862487D01*
X107218337Y-160094886D01*
X107358089Y-160304040D01*
X107535960Y-160481911D01*
X107745114Y-160621663D01*
X107977513Y-160717926D01*
X108224226Y-160767000D01*
X108475774Y-160767000D01*
X108722487Y-160717926D01*
X108954886Y-160621663D01*
X109164040Y-160481911D01*
X109341911Y-160304040D01*
X109433478Y-160167000D01*
X111726755Y-160167000D01*
X111760000Y-160170274D01*
X111793245Y-160167000D01*
X111793252Y-160167000D01*
X111892715Y-160157204D01*
X112020330Y-160118492D01*
X112137941Y-160055628D01*
X112241027Y-159971027D01*
X112262226Y-159945196D01*
X122455206Y-149752217D01*
X122481026Y-149731027D01*
X122502218Y-149705205D01*
X122502224Y-149705199D01*
X122565628Y-149627941D01*
X122628492Y-149510330D01*
X122667204Y-149382715D01*
X122667204Y-149382714D01*
X122677000Y-149283252D01*
X122677000Y-149283245D01*
X122680274Y-149250000D01*
X122677000Y-149216755D01*
X122677000Y-132783478D01*
X122814040Y-132691911D01*
X122991911Y-132514040D01*
X123131663Y-132304886D01*
X123227926Y-132072487D01*
X123277000Y-131825774D01*
X123277000Y-131574226D01*
X123227926Y-131327513D01*
X123131663Y-131095114D01*
X122991911Y-130885960D01*
X122814040Y-130708089D01*
X122604886Y-130568337D01*
X122372487Y-130472074D01*
X122160966Y-130430000D01*
X122372487Y-130387926D01*
X122604886Y-130291663D01*
X122814040Y-130151911D01*
X122991911Y-129974040D01*
X123131663Y-129764886D01*
X123227926Y-129532487D01*
X123277000Y-129285774D01*
X123277000Y-129034226D01*
X123227926Y-128787513D01*
X123131663Y-128555114D01*
X122991911Y-128345960D01*
X122814040Y-128168089D01*
X122604886Y-128028337D01*
X122372487Y-127932074D01*
X122160966Y-127890000D01*
X122372487Y-127847926D01*
X122604886Y-127751663D01*
X122814040Y-127611911D01*
X122991911Y-127434040D01*
X123131663Y-127224886D01*
X123227926Y-126992487D01*
X123277000Y-126745774D01*
X123277000Y-126494226D01*
X123227926Y-126247513D01*
X123131663Y-126015114D01*
X122991911Y-125805960D01*
X122814040Y-125628089D01*
X122604886Y-125488337D01*
X122533584Y-125458803D01*
X122631252Y-125424157D01*
X122881355Y-125275178D01*
X123097588Y-125080269D01*
X123271641Y-124846920D01*
X123396825Y-124584099D01*
X123441476Y-124436890D01*
X123320155Y-124207000D01*
X122127000Y-124207000D01*
X122127000Y-124227000D01*
X121873000Y-124227000D01*
X121873000Y-124207000D01*
X120679845Y-124207000D01*
X120558524Y-124436890D01*
X120603175Y-124584099D01*
X120728359Y-124846920D01*
X120902412Y-125080269D01*
X121118645Y-125275178D01*
X121368748Y-125424157D01*
X121466416Y-125458803D01*
X121395114Y-125488337D01*
X121185960Y-125628089D01*
X121008089Y-125805960D01*
X120916522Y-125943000D01*
X117653252Y-125943000D01*
X117620000Y-125939725D01*
X117586748Y-125943000D01*
X117153245Y-125943000D01*
X117120000Y-125939726D01*
X117086755Y-125943000D01*
X116653245Y-125943000D01*
X116620000Y-125939726D01*
X116586755Y-125943000D01*
X113413241Y-125943000D01*
X113379999Y-125939726D01*
X113346757Y-125943000D01*
X113346748Y-125943000D01*
X113247285Y-125952796D01*
X113119670Y-125991508D01*
X113002059Y-126054372D01*
X112898973Y-126138973D01*
X112877774Y-126164804D01*
X102814800Y-136227778D01*
X102788974Y-136248973D01*
X102767779Y-136274799D01*
X102767776Y-136274802D01*
X102704372Y-136352060D01*
X102641508Y-136469671D01*
X102602796Y-136597286D01*
X102589726Y-136730000D01*
X102593001Y-136763255D01*
X102593000Y-158406522D01*
X102455960Y-158498089D01*
X102278089Y-158675960D01*
X102138337Y-158885114D01*
X102108803Y-158956416D01*
X102074157Y-158858748D01*
X101925178Y-158608645D01*
X101730269Y-158392412D01*
X101496920Y-158218359D01*
X101234099Y-158093175D01*
X101086890Y-158048524D01*
X100857000Y-158169845D01*
X100603000Y-158169845D01*
X100373110Y-158048524D01*
X100225901Y-158093175D01*
X99963080Y-158218359D01*
X99729731Y-158392412D01*
X99534822Y-158608645D01*
X99385843Y-158858748D01*
X99351197Y-158956416D01*
X99321663Y-158885114D01*
X99181911Y-158675960D01*
X99004040Y-158498089D01*
X98867000Y-158406522D01*
X98867000Y-137590422D01*
X114240423Y-122217000D01*
X120916522Y-122217000D01*
X121008089Y-122354040D01*
X121185960Y-122531911D01*
X121395114Y-122671663D01*
X121466416Y-122701197D01*
X121368748Y-122735843D01*
X121118645Y-122884822D01*
X120902412Y-123079731D01*
X120728359Y-123313080D01*
X120603175Y-123575901D01*
X120558524Y-123723110D01*
X120679845Y-123953000D01*
X121873000Y-123953000D01*
X121873000Y-123933000D01*
X122127000Y-123933000D01*
X122127000Y-123953000D01*
X123320155Y-123953000D01*
X123441476Y-123723110D01*
X123396825Y-123575901D01*
X123271641Y-123313080D01*
X123097588Y-123079731D01*
X122881355Y-122884822D01*
X122631252Y-122735843D01*
X122533584Y-122701197D01*
X122604886Y-122671663D01*
X122814040Y-122531911D01*
X122991911Y-122354040D01*
X123131663Y-122144886D01*
X123227926Y-121912487D01*
X123277000Y-121665774D01*
X123277000Y-121414226D01*
X123227926Y-121167513D01*
X123131663Y-120935114D01*
X122991911Y-120725960D01*
X122814040Y-120548089D01*
X122604886Y-120408337D01*
X122372487Y-120312074D01*
X122206544Y-120279066D01*
X122850000Y-120279066D01*
X122933707Y-120270822D01*
X123014196Y-120246405D01*
X123088376Y-120206755D01*
X123153395Y-120153395D01*
X123206755Y-120088376D01*
X123246405Y-120014196D01*
X123270822Y-119933707D01*
X123279066Y-119850000D01*
X123279066Y-118150000D01*
X123270822Y-118066293D01*
X123246405Y-117985804D01*
X123206755Y-117911624D01*
X123153395Y-117846605D01*
X123088376Y-117793245D01*
X123014196Y-117753595D01*
X122933707Y-117729178D01*
X122850000Y-117720934D01*
X121150000Y-117720934D01*
X121066293Y-117729178D01*
X120985804Y-117753595D01*
X120911624Y-117793245D01*
X120846605Y-117846605D01*
X120793245Y-117911624D01*
X120753595Y-117985804D01*
X120729178Y-118066293D01*
X120720934Y-118150000D01*
X120720934Y-118323000D01*
X112783245Y-118323000D01*
X112750000Y-118319726D01*
X112716755Y-118323000D01*
X112716748Y-118323000D01*
X112617285Y-118332796D01*
X112489670Y-118371508D01*
X112372059Y-118434372D01*
X112268973Y-118518973D01*
X112247778Y-118544799D01*
X95194800Y-135597778D01*
X95168974Y-135618973D01*
X95147779Y-135644799D01*
X95147776Y-135644802D01*
X95084372Y-135722060D01*
X95021508Y-135839671D01*
X94982796Y-135967286D01*
X94969726Y-136100000D01*
X94973001Y-136133255D01*
X94973000Y-158210934D01*
X94800000Y-158210934D01*
X94716293Y-158219178D01*
X94635804Y-158243595D01*
X94561624Y-158283245D01*
X94496605Y-158336605D01*
X94443245Y-158401624D01*
X94403595Y-158475804D01*
X94379178Y-158556293D01*
X94370934Y-158640000D01*
X90199066Y-158640000D01*
X90199066Y-157150000D01*
X90190822Y-157066293D01*
X90166405Y-156985804D01*
X90126755Y-156911624D01*
X90073395Y-156846605D01*
X90008376Y-156793245D01*
X89934196Y-156753595D01*
X89853707Y-156729178D01*
X89770000Y-156720934D01*
X88070000Y-156720934D01*
X87986293Y-156729178D01*
X87905804Y-156753595D01*
X87831624Y-156793245D01*
X87766605Y-156846605D01*
X87713245Y-156911624D01*
X87673595Y-156985804D01*
X87649178Y-157066293D01*
X87640934Y-157150000D01*
X79452000Y-157150000D01*
X79452000Y-119150000D01*
X84640934Y-119150000D01*
X84640934Y-120850000D01*
X84649178Y-120933707D01*
X84673595Y-121014196D01*
X84713245Y-121088376D01*
X84766605Y-121153395D01*
X84831624Y-121206755D01*
X84905804Y-121246405D01*
X84986293Y-121270822D01*
X85070000Y-121279066D01*
X86770000Y-121279066D01*
X86853707Y-121270822D01*
X86934196Y-121246405D01*
X87008376Y-121206755D01*
X87073395Y-121153395D01*
X87126755Y-121088376D01*
X87166405Y-121014196D01*
X87190822Y-120933707D01*
X87199066Y-120850000D01*
X87199066Y-119150000D01*
X87190822Y-119066293D01*
X87166405Y-118985804D01*
X87126755Y-118911624D01*
X87073395Y-118846605D01*
X87008376Y-118793245D01*
X86934196Y-118753595D01*
X86853707Y-118729178D01*
X86770000Y-118720934D01*
X85070000Y-118720934D01*
X84986293Y-118729178D01*
X84905804Y-118753595D01*
X84831624Y-118793245D01*
X84766605Y-118846605D01*
X84713245Y-118911624D01*
X84673595Y-118985804D01*
X84649178Y-119066293D01*
X84640934Y-119150000D01*
X79452000Y-119150000D01*
X79452000Y-114785584D01*
X86743000Y-114785584D01*
X86743000Y-115214416D01*
X86826660Y-115635008D01*
X86990767Y-116031196D01*
X87229013Y-116387757D01*
X87532243Y-116690987D01*
X87888804Y-116929233D01*
X88284992Y-117093340D01*
X88705584Y-117177000D01*
X89134416Y-117177000D01*
X89555008Y-117093340D01*
X89951196Y-116929233D01*
X90307757Y-116690987D01*
X90610987Y-116387757D01*
X90849233Y-116031196D01*
X91013340Y-115635008D01*
X91097000Y-115214416D01*
X91097000Y-114785584D01*
X117743000Y-114785584D01*
X117743000Y-115214416D01*
X117826660Y-115635008D01*
X117990767Y-116031196D01*
X118229013Y-116387757D01*
X118532243Y-116690987D01*
X118888804Y-116929233D01*
X119284992Y-117093340D01*
X119705584Y-117177000D01*
X120134416Y-117177000D01*
X120555008Y-117093340D01*
X120951196Y-116929233D01*
X121307757Y-116690987D01*
X121610987Y-116387757D01*
X121849233Y-116031196D01*
X122013340Y-115635008D01*
X122097000Y-115214416D01*
X122097000Y-114785584D01*
X122013340Y-114364992D01*
X121849233Y-113968804D01*
X121610987Y-113612243D01*
X121307757Y-113309013D01*
X120951196Y-113070767D01*
X120555008Y-112906660D01*
X120134416Y-112823000D01*
X119705584Y-112823000D01*
X119284992Y-112906660D01*
X118888804Y-113070767D01*
X118532243Y-113309013D01*
X118229013Y-113612243D01*
X117990767Y-113968804D01*
X117826660Y-114364992D01*
X117743000Y-114785584D01*
X91097000Y-114785584D01*
X91013340Y-114364992D01*
X90849233Y-113968804D01*
X90610987Y-113612243D01*
X90307757Y-113309013D01*
X89951196Y-113070767D01*
X89555008Y-112906660D01*
X89134416Y-112823000D01*
X88705584Y-112823000D01*
X88284992Y-112906660D01*
X87888804Y-113070767D01*
X87532243Y-113309013D01*
X87229013Y-113612243D01*
X86990767Y-113968804D01*
X86826660Y-114364992D01*
X86743000Y-114785584D01*
X79452000Y-114785584D01*
X79452000Y-111022109D01*
X79502654Y-110505508D01*
X79646259Y-110029863D01*
X79879522Y-109591157D01*
X80193551Y-109206120D01*
X80576390Y-108889408D01*
X81013447Y-108653093D01*
X81488091Y-108506165D01*
X82003439Y-108452000D01*
X121977891Y-108452000D01*
X122494492Y-108502654D01*
G37*
%TD.AperFunction*%
%TD*%
M02*
