%TF.GenerationSoftware,KiCad,Pcbnew,(5.1.10)-1*%
%TF.CreationDate,2022-06-23T17:12:29+02:00*%
%TF.ProjectId,Stop_BBM_3PIC,53746f70-5f42-4424-9d5f-335049432e6b,1.1*%
%TF.SameCoordinates,Original*%
%TF.FileFunction,Legend,Top*%
%TF.FilePolarity,Positive*%
%FSLAX46Y46*%
G04 Gerber Fmt 4.6, Leading zero omitted, Abs format (unit mm)*
G04 Created by KiCad (PCBNEW (5.1.10)-1) date 2022-06-23 17:12:29*
%MOMM*%
%LPD*%
G01*
G04 APERTURE LIST*
%ADD10C,0.150000*%
%ADD11C,0.010000*%
%ADD12C,0.120000*%
G04 APERTURE END LIST*
D10*
X116336667Y-121611428D02*
X117098571Y-121611428D01*
X116717619Y-121992380D02*
X116717619Y-121230476D01*
X117479524Y-120992380D02*
X118098571Y-120992380D01*
X117765238Y-121373333D01*
X117908095Y-121373333D01*
X118003333Y-121420952D01*
X118050952Y-121468571D01*
X118098571Y-121563809D01*
X118098571Y-121801904D01*
X118050952Y-121897142D01*
X118003333Y-121944761D01*
X117908095Y-121992380D01*
X117622381Y-121992380D01*
X117527143Y-121944761D01*
X117479524Y-121897142D01*
X118527143Y-121897142D02*
X118574762Y-121944761D01*
X118527143Y-121992380D01*
X118479524Y-121944761D01*
X118527143Y-121897142D01*
X118527143Y-121992380D01*
X118908095Y-120992380D02*
X119527143Y-120992380D01*
X119193809Y-121373333D01*
X119336667Y-121373333D01*
X119431905Y-121420952D01*
X119479524Y-121468571D01*
X119527143Y-121563809D01*
X119527143Y-121801904D01*
X119479524Y-121897142D01*
X119431905Y-121944761D01*
X119336667Y-121992380D01*
X119050952Y-121992380D01*
X118955714Y-121944761D01*
X118908095Y-121897142D01*
X119812857Y-120992380D02*
X120146190Y-121992380D01*
X120479524Y-120992380D01*
X116857142Y-131202380D02*
X117190476Y-132202380D01*
X117523809Y-131202380D01*
X118190476Y-131678571D02*
X118333333Y-131726190D01*
X118380952Y-131773809D01*
X118428571Y-131869047D01*
X118428571Y-132011904D01*
X118380952Y-132107142D01*
X118333333Y-132154761D01*
X118238095Y-132202380D01*
X117857142Y-132202380D01*
X117857142Y-131202380D01*
X118190476Y-131202380D01*
X118285714Y-131250000D01*
X118333333Y-131297619D01*
X118380952Y-131392857D01*
X118380952Y-131488095D01*
X118333333Y-131583333D01*
X118285714Y-131630952D01*
X118190476Y-131678571D01*
X117857142Y-131678571D01*
X118809523Y-131916666D02*
X119285714Y-131916666D01*
X118714285Y-132202380D02*
X119047619Y-131202380D01*
X119380952Y-132202380D01*
X119571428Y-131202380D02*
X120142857Y-131202380D01*
X119857142Y-132202380D02*
X119857142Y-131202380D01*
X117480000Y-127072380D02*
X117480000Y-126072380D01*
X117718095Y-126072380D01*
X117860952Y-126120000D01*
X117956190Y-126215238D01*
X118003809Y-126310476D01*
X118051429Y-126500952D01*
X118051429Y-126643809D01*
X118003809Y-126834285D01*
X117956190Y-126929523D01*
X117860952Y-127024761D01*
X117718095Y-127072380D01*
X117480000Y-127072380D01*
X118432381Y-126786666D02*
X118908571Y-126786666D01*
X118337143Y-127072380D02*
X118670476Y-126072380D01*
X119003809Y-127072380D01*
X119194286Y-126072380D02*
X119765714Y-126072380D01*
X119480000Y-127072380D02*
X119480000Y-126072380D01*
X118051428Y-129517142D02*
X118003809Y-129564761D01*
X117860952Y-129612380D01*
X117765714Y-129612380D01*
X117622857Y-129564761D01*
X117527619Y-129469523D01*
X117480000Y-129374285D01*
X117432381Y-129183809D01*
X117432381Y-129040952D01*
X117480000Y-128850476D01*
X117527619Y-128755238D01*
X117622857Y-128660000D01*
X117765714Y-128612380D01*
X117860952Y-128612380D01*
X118003809Y-128660000D01*
X118051428Y-128707619D01*
X118956190Y-129612380D02*
X118480000Y-129612380D01*
X118480000Y-128612380D01*
X119289524Y-129612380D02*
X119289524Y-128612380D01*
X119860952Y-129612380D02*
X119432381Y-129040952D01*
X119860952Y-128612380D02*
X119289524Y-129183809D01*
X117670476Y-123550000D02*
X117575238Y-123502380D01*
X117432381Y-123502380D01*
X117289523Y-123550000D01*
X117194285Y-123645238D01*
X117146666Y-123740476D01*
X117099047Y-123930952D01*
X117099047Y-124073809D01*
X117146666Y-124264285D01*
X117194285Y-124359523D01*
X117289523Y-124454761D01*
X117432381Y-124502380D01*
X117527619Y-124502380D01*
X117670476Y-124454761D01*
X117718095Y-124407142D01*
X117718095Y-124073809D01*
X117527619Y-124073809D01*
X118146666Y-124502380D02*
X118146666Y-123502380D01*
X118718095Y-124502380D01*
X118718095Y-123502380D01*
X119194285Y-124502380D02*
X119194285Y-123502380D01*
X119432381Y-123502380D01*
X119575238Y-123550000D01*
X119670476Y-123645238D01*
X119718095Y-123740476D01*
X119765714Y-123930952D01*
X119765714Y-124073809D01*
X119718095Y-124264285D01*
X119670476Y-124359523D01*
X119575238Y-124454761D01*
X119432381Y-124502380D01*
X119194285Y-124502380D01*
X116261904Y-118952380D02*
X116261904Y-117952380D01*
X116595238Y-118666666D01*
X116928571Y-117952380D01*
X116928571Y-118952380D01*
X117976190Y-118857142D02*
X117928571Y-118904761D01*
X117785714Y-118952380D01*
X117690476Y-118952380D01*
X117547619Y-118904761D01*
X117452380Y-118809523D01*
X117404761Y-118714285D01*
X117357142Y-118523809D01*
X117357142Y-118380952D01*
X117404761Y-118190476D01*
X117452380Y-118095238D01*
X117547619Y-118000000D01*
X117690476Y-117952380D01*
X117785714Y-117952380D01*
X117928571Y-118000000D01*
X117976190Y-118047619D01*
X118880952Y-118952380D02*
X118404761Y-118952380D01*
X118404761Y-117952380D01*
X119785714Y-118952380D02*
X119452380Y-118476190D01*
X119214285Y-118952380D02*
X119214285Y-117952380D01*
X119595238Y-117952380D01*
X119690476Y-118000000D01*
X119738095Y-118047619D01*
X119785714Y-118142857D01*
X119785714Y-118285714D01*
X119738095Y-118380952D01*
X119690476Y-118428571D01*
X119595238Y-118476190D01*
X119214285Y-118476190D01*
X105309523Y-135904761D02*
X105404761Y-135952380D01*
X105595238Y-135952380D01*
X105690476Y-135904761D01*
X105738095Y-135809523D01*
X105738095Y-135761904D01*
X105690476Y-135666666D01*
X105595238Y-135619047D01*
X105452380Y-135619047D01*
X105357142Y-135571428D01*
X105309523Y-135476190D01*
X105309523Y-135428571D01*
X105357142Y-135333333D01*
X105452380Y-135285714D01*
X105595238Y-135285714D01*
X105690476Y-135333333D01*
X106166666Y-135285714D02*
X106166666Y-136285714D01*
X106166666Y-135333333D02*
X106261904Y-135285714D01*
X106452380Y-135285714D01*
X106547619Y-135333333D01*
X106595238Y-135380952D01*
X106642857Y-135476190D01*
X106642857Y-135761904D01*
X106595238Y-135857142D01*
X106547619Y-135904761D01*
X106452380Y-135952380D01*
X106261904Y-135952380D01*
X106166666Y-135904761D01*
X107452380Y-135904761D02*
X107357142Y-135952380D01*
X107166666Y-135952380D01*
X107071428Y-135904761D01*
X107023809Y-135809523D01*
X107023809Y-135428571D01*
X107071428Y-135333333D01*
X107166666Y-135285714D01*
X107357142Y-135285714D01*
X107452380Y-135333333D01*
X107500000Y-135428571D01*
X107500000Y-135523809D01*
X107023809Y-135619047D01*
X108357142Y-135952380D02*
X108357142Y-135428571D01*
X108309523Y-135333333D01*
X108214285Y-135285714D01*
X108023809Y-135285714D01*
X107928571Y-135333333D01*
X108357142Y-135904761D02*
X108261904Y-135952380D01*
X108023809Y-135952380D01*
X107928571Y-135904761D01*
X107880952Y-135809523D01*
X107880952Y-135714285D01*
X107928571Y-135619047D01*
X108023809Y-135571428D01*
X108261904Y-135571428D01*
X108357142Y-135523809D01*
X108833333Y-135952380D02*
X108833333Y-134952380D01*
X108928571Y-135571428D02*
X109214285Y-135952380D01*
X109214285Y-135285714D02*
X108833333Y-135666666D01*
X110023809Y-135904761D02*
X109928571Y-135952380D01*
X109738095Y-135952380D01*
X109642857Y-135904761D01*
X109595238Y-135809523D01*
X109595238Y-135428571D01*
X109642857Y-135333333D01*
X109738095Y-135285714D01*
X109928571Y-135285714D01*
X110023809Y-135333333D01*
X110071428Y-135428571D01*
X110071428Y-135523809D01*
X109595238Y-135619047D01*
X110500000Y-135952380D02*
X110500000Y-135285714D01*
X110500000Y-135476190D02*
X110547619Y-135380952D01*
X110595238Y-135333333D01*
X110690476Y-135285714D01*
X110785714Y-135285714D01*
X120523809Y-134152380D02*
X120523809Y-133152380D01*
X120904761Y-133152380D01*
X121000000Y-133200000D01*
X121047619Y-133247619D01*
X121095238Y-133342857D01*
X121095238Y-133485714D01*
X121047619Y-133580952D01*
X121000000Y-133628571D01*
X120904761Y-133676190D01*
X120523809Y-133676190D01*
X121523809Y-134152380D02*
X121523809Y-133485714D01*
X121523809Y-133676190D02*
X121571428Y-133580952D01*
X121619047Y-133533333D01*
X121714285Y-133485714D01*
X121809523Y-133485714D01*
X122285714Y-134152380D02*
X122190476Y-134104761D01*
X122142857Y-134057142D01*
X122095238Y-133961904D01*
X122095238Y-133676190D01*
X122142857Y-133580952D01*
X122190476Y-133533333D01*
X122285714Y-133485714D01*
X122428571Y-133485714D01*
X122523809Y-133533333D01*
X122571428Y-133580952D01*
X122619047Y-133676190D01*
X122619047Y-133961904D01*
X122571428Y-134057142D01*
X122523809Y-134104761D01*
X122428571Y-134152380D01*
X122285714Y-134152380D01*
X123476190Y-133485714D02*
X123476190Y-134295238D01*
X123428571Y-134390476D01*
X123380952Y-134438095D01*
X123285714Y-134485714D01*
X123142857Y-134485714D01*
X123047619Y-134438095D01*
X123476190Y-134104761D02*
X123380952Y-134152380D01*
X123190476Y-134152380D01*
X123095238Y-134104761D01*
X123047619Y-134057142D01*
X123000000Y-133961904D01*
X123000000Y-133676190D01*
X123047619Y-133580952D01*
X123095238Y-133533333D01*
X123190476Y-133485714D01*
X123380952Y-133485714D01*
X123476190Y-133533333D01*
D11*
%TO.C,G21*%
G36*
X113776679Y-110569369D02*
G01*
X113880625Y-110579375D01*
X113878056Y-110849692D01*
X113846769Y-111180175D01*
X113761892Y-111494302D01*
X113627340Y-111782647D01*
X113447028Y-112035787D01*
X113338537Y-112148459D01*
X113084500Y-112343689D01*
X112789155Y-112495415D01*
X112460442Y-112600221D01*
X112177522Y-112648123D01*
X112074914Y-112656897D01*
X112017981Y-112652217D01*
X111989557Y-112629755D01*
X111976229Y-112597405D01*
X111967623Y-112528873D01*
X111968167Y-112423339D01*
X111975085Y-112331306D01*
X111975188Y-112330703D01*
X112182000Y-112330703D01*
X112187176Y-112391157D01*
X112209432Y-112425393D01*
X112258857Y-112434596D01*
X112345539Y-112419955D01*
X112479568Y-112382654D01*
X112519968Y-112370441D01*
X112831165Y-112248593D01*
X113093087Y-112087157D01*
X113306574Y-111885113D01*
X113472465Y-111641436D01*
X113591600Y-111355106D01*
X113664822Y-111025099D01*
X113672316Y-110968312D01*
X113681116Y-110851571D01*
X113671973Y-110793509D01*
X113659847Y-110785750D01*
X113614400Y-110793779D01*
X113525543Y-110815024D01*
X113410913Y-110845216D01*
X113388087Y-110851498D01*
X113073603Y-110964649D01*
X112805631Y-111116168D01*
X112586686Y-111304237D01*
X112419285Y-111527036D01*
X112395618Y-111569196D01*
X112337257Y-111699198D01*
X112280609Y-111861143D01*
X112231793Y-112033213D01*
X112196930Y-112193593D01*
X112182139Y-112320465D01*
X112182000Y-112330703D01*
X111975188Y-112330703D01*
X112039324Y-111957008D01*
X112147357Y-111628458D01*
X112300104Y-111344565D01*
X112498480Y-111104240D01*
X112743405Y-110906392D01*
X113035794Y-110749931D01*
X113376568Y-110633767D01*
X113411554Y-110624772D01*
X113546543Y-110595219D01*
X113670850Y-110575371D01*
X113762014Y-110568635D01*
X113776679Y-110569369D01*
G37*
X113776679Y-110569369D02*
X113880625Y-110579375D01*
X113878056Y-110849692D01*
X113846769Y-111180175D01*
X113761892Y-111494302D01*
X113627340Y-111782647D01*
X113447028Y-112035787D01*
X113338537Y-112148459D01*
X113084500Y-112343689D01*
X112789155Y-112495415D01*
X112460442Y-112600221D01*
X112177522Y-112648123D01*
X112074914Y-112656897D01*
X112017981Y-112652217D01*
X111989557Y-112629755D01*
X111976229Y-112597405D01*
X111967623Y-112528873D01*
X111968167Y-112423339D01*
X111975085Y-112331306D01*
X111975188Y-112330703D01*
X112182000Y-112330703D01*
X112187176Y-112391157D01*
X112209432Y-112425393D01*
X112258857Y-112434596D01*
X112345539Y-112419955D01*
X112479568Y-112382654D01*
X112519968Y-112370441D01*
X112831165Y-112248593D01*
X113093087Y-112087157D01*
X113306574Y-111885113D01*
X113472465Y-111641436D01*
X113591600Y-111355106D01*
X113664822Y-111025099D01*
X113672316Y-110968312D01*
X113681116Y-110851571D01*
X113671973Y-110793509D01*
X113659847Y-110785750D01*
X113614400Y-110793779D01*
X113525543Y-110815024D01*
X113410913Y-110845216D01*
X113388087Y-110851498D01*
X113073603Y-110964649D01*
X112805631Y-111116168D01*
X112586686Y-111304237D01*
X112419285Y-111527036D01*
X112395618Y-111569196D01*
X112337257Y-111699198D01*
X112280609Y-111861143D01*
X112231793Y-112033213D01*
X112196930Y-112193593D01*
X112182139Y-112320465D01*
X112182000Y-112330703D01*
X111975188Y-112330703D01*
X112039324Y-111957008D01*
X112147357Y-111628458D01*
X112300104Y-111344565D01*
X112498480Y-111104240D01*
X112743405Y-110906392D01*
X113035794Y-110749931D01*
X113376568Y-110633767D01*
X113411554Y-110624772D01*
X113546543Y-110595219D01*
X113670850Y-110575371D01*
X113762014Y-110568635D01*
X113776679Y-110569369D01*
G36*
X114204415Y-110592207D02*
G01*
X114321229Y-110625506D01*
X114667968Y-110766298D01*
X114972955Y-110954222D01*
X115234489Y-111187701D01*
X115450870Y-111465159D01*
X115620397Y-111785022D01*
X115649365Y-111856092D01*
X115695885Y-111984987D01*
X115716875Y-112071075D01*
X115715031Y-112128430D01*
X115705956Y-112151548D01*
X115680517Y-112189941D01*
X115646679Y-112207321D01*
X115589186Y-112204550D01*
X115492783Y-112182486D01*
X115434078Y-112166879D01*
X115087482Y-112042432D01*
X114778341Y-111867205D01*
X114509116Y-111643408D01*
X114282266Y-111373248D01*
X114100251Y-111058933D01*
X114037402Y-110913356D01*
X114013156Y-110841176D01*
X114232423Y-110841176D01*
X114254967Y-110904893D01*
X114302169Y-110997678D01*
X114367448Y-111108560D01*
X114444225Y-111226567D01*
X114525920Y-111340729D01*
X114605954Y-111440073D01*
X114631437Y-111468333D01*
X114752919Y-111588723D01*
X114872494Y-111682537D01*
X115014447Y-111767351D01*
X115116027Y-111819065D01*
X115258911Y-111888264D01*
X115354504Y-111931806D01*
X115412197Y-111952657D01*
X115441381Y-111953782D01*
X115451449Y-111938148D01*
X115452250Y-111925256D01*
X115434035Y-111861078D01*
X115385407Y-111761851D01*
X115315387Y-111642294D01*
X115232999Y-111517129D01*
X115147266Y-111401076D01*
X115087721Y-111330536D01*
X114981434Y-111225027D01*
X114862949Y-111123658D01*
X114769625Y-111056233D01*
X114668739Y-110998345D01*
X114549369Y-110937853D01*
X114428777Y-110882556D01*
X114324226Y-110840252D01*
X114252978Y-110818737D01*
X114241116Y-110817500D01*
X114232423Y-110841176D01*
X114013156Y-110841176D01*
X113985801Y-110759745D01*
X113973425Y-110654148D01*
X114003550Y-110593242D01*
X114079455Y-110573703D01*
X114204415Y-110592207D01*
G37*
X114204415Y-110592207D02*
X114321229Y-110625506D01*
X114667968Y-110766298D01*
X114972955Y-110954222D01*
X115234489Y-111187701D01*
X115450870Y-111465159D01*
X115620397Y-111785022D01*
X115649365Y-111856092D01*
X115695885Y-111984987D01*
X115716875Y-112071075D01*
X115715031Y-112128430D01*
X115705956Y-112151548D01*
X115680517Y-112189941D01*
X115646679Y-112207321D01*
X115589186Y-112204550D01*
X115492783Y-112182486D01*
X115434078Y-112166879D01*
X115087482Y-112042432D01*
X114778341Y-111867205D01*
X114509116Y-111643408D01*
X114282266Y-111373248D01*
X114100251Y-111058933D01*
X114037402Y-110913356D01*
X114013156Y-110841176D01*
X114232423Y-110841176D01*
X114254967Y-110904893D01*
X114302169Y-110997678D01*
X114367448Y-111108560D01*
X114444225Y-111226567D01*
X114525920Y-111340729D01*
X114605954Y-111440073D01*
X114631437Y-111468333D01*
X114752919Y-111588723D01*
X114872494Y-111682537D01*
X115014447Y-111767351D01*
X115116027Y-111819065D01*
X115258911Y-111888264D01*
X115354504Y-111931806D01*
X115412197Y-111952657D01*
X115441381Y-111953782D01*
X115451449Y-111938148D01*
X115452250Y-111925256D01*
X115434035Y-111861078D01*
X115385407Y-111761851D01*
X115315387Y-111642294D01*
X115232999Y-111517129D01*
X115147266Y-111401076D01*
X115087721Y-111330536D01*
X114981434Y-111225027D01*
X114862949Y-111123658D01*
X114769625Y-111056233D01*
X114668739Y-110998345D01*
X114549369Y-110937853D01*
X114428777Y-110882556D01*
X114324226Y-110840252D01*
X114252978Y-110818737D01*
X114241116Y-110817500D01*
X114232423Y-110841176D01*
X114013156Y-110841176D01*
X113985801Y-110759745D01*
X113973425Y-110654148D01*
X114003550Y-110593242D01*
X114079455Y-110573703D01*
X114204415Y-110592207D01*
G36*
X117450800Y-109676512D02*
G01*
X117559008Y-109680537D01*
X117795725Y-109698974D01*
X117981163Y-109738608D01*
X118125455Y-109804486D01*
X118238737Y-109901657D01*
X118331140Y-110035171D01*
X118352752Y-110075979D01*
X118414559Y-110264304D01*
X118419520Y-110458691D01*
X118371719Y-110647316D01*
X118275239Y-110818353D01*
X118134163Y-110959974D01*
X118023706Y-111029032D01*
X117897267Y-111073573D01*
X117730748Y-111105439D01*
X117546767Y-111122017D01*
X117367941Y-111120693D01*
X117293750Y-111113368D01*
X117220620Y-111101386D01*
X117165590Y-111082476D01*
X117126090Y-111048382D01*
X117099546Y-110990846D01*
X117083387Y-110901611D01*
X117082056Y-110881000D01*
X117323846Y-110881000D01*
X117571230Y-110881000D01*
X117733867Y-110874551D01*
X117851719Y-110853272D01*
X117928453Y-110822093D01*
X118022985Y-110744644D01*
X118106868Y-110630488D01*
X118164960Y-110504373D01*
X118182750Y-110406483D01*
X118159329Y-110290539D01*
X118098946Y-110163245D01*
X118016413Y-110050014D01*
X117934430Y-109980548D01*
X117841367Y-109942840D01*
X117715893Y-109922346D01*
X117585180Y-109916321D01*
X117341375Y-109912625D01*
X117332610Y-110396812D01*
X117323846Y-110881000D01*
X117082056Y-110881000D01*
X117075042Y-110772422D01*
X117071938Y-110595019D01*
X117071500Y-110399829D01*
X117071558Y-110165151D01*
X117075087Y-109986532D01*
X117087117Y-109856553D01*
X117112675Y-109767792D01*
X117156794Y-109712829D01*
X117224501Y-109684241D01*
X117320826Y-109674609D01*
X117450800Y-109676512D01*
G37*
X117450800Y-109676512D02*
X117559008Y-109680537D01*
X117795725Y-109698974D01*
X117981163Y-109738608D01*
X118125455Y-109804486D01*
X118238737Y-109901657D01*
X118331140Y-110035171D01*
X118352752Y-110075979D01*
X118414559Y-110264304D01*
X118419520Y-110458691D01*
X118371719Y-110647316D01*
X118275239Y-110818353D01*
X118134163Y-110959974D01*
X118023706Y-111029032D01*
X117897267Y-111073573D01*
X117730748Y-111105439D01*
X117546767Y-111122017D01*
X117367941Y-111120693D01*
X117293750Y-111113368D01*
X117220620Y-111101386D01*
X117165590Y-111082476D01*
X117126090Y-111048382D01*
X117099546Y-110990846D01*
X117083387Y-110901611D01*
X117082056Y-110881000D01*
X117323846Y-110881000D01*
X117571230Y-110881000D01*
X117733867Y-110874551D01*
X117851719Y-110853272D01*
X117928453Y-110822093D01*
X118022985Y-110744644D01*
X118106868Y-110630488D01*
X118164960Y-110504373D01*
X118182750Y-110406483D01*
X118159329Y-110290539D01*
X118098946Y-110163245D01*
X118016413Y-110050014D01*
X117934430Y-109980548D01*
X117841367Y-109942840D01*
X117715893Y-109922346D01*
X117585180Y-109916321D01*
X117341375Y-109912625D01*
X117332610Y-110396812D01*
X117323846Y-110881000D01*
X117082056Y-110881000D01*
X117075042Y-110772422D01*
X117071938Y-110595019D01*
X117071500Y-110399829D01*
X117071558Y-110165151D01*
X117075087Y-109986532D01*
X117087117Y-109856553D01*
X117112675Y-109767792D01*
X117156794Y-109712829D01*
X117224501Y-109684241D01*
X117320826Y-109674609D01*
X117450800Y-109676512D01*
G36*
X116272810Y-109688437D02*
G01*
X116301444Y-109701938D01*
X116333801Y-109741445D01*
X116384177Y-109829457D01*
X116447869Y-109955187D01*
X116520173Y-110107843D01*
X116596387Y-110276636D01*
X116671809Y-110450778D01*
X116741735Y-110619477D01*
X116801462Y-110771945D01*
X116846288Y-110897392D01*
X116871511Y-110985027D01*
X116875015Y-111017886D01*
X116841522Y-111077612D01*
X116782875Y-111096932D01*
X116754073Y-111098979D01*
X116728869Y-111093259D01*
X116703580Y-111073082D01*
X116674522Y-111031758D01*
X116638008Y-110962594D01*
X116590357Y-110858901D01*
X116527882Y-110713988D01*
X116446899Y-110521162D01*
X116387809Y-110379483D01*
X116329628Y-110243676D01*
X116279573Y-110133897D01*
X116242740Y-110060831D01*
X116224226Y-110035164D01*
X116223725Y-110035441D01*
X116207481Y-110068172D01*
X116171425Y-110149980D01*
X116119715Y-110271136D01*
X116056508Y-110421914D01*
X115995776Y-110568707D01*
X115917494Y-110757035D01*
X115857817Y-110894304D01*
X115812265Y-110988608D01*
X115776356Y-111048042D01*
X115745610Y-111080702D01*
X115715545Y-111094682D01*
X115703462Y-111096770D01*
X115634725Y-111095824D01*
X115601874Y-111083540D01*
X115586303Y-111056937D01*
X115583668Y-111014951D01*
X115596223Y-110950465D01*
X115626224Y-110856358D01*
X115675927Y-110725512D01*
X115747587Y-110550808D01*
X115838474Y-110336757D01*
X115935841Y-110112946D01*
X116014396Y-109942518D01*
X116078363Y-109819682D01*
X116131964Y-109738647D01*
X116179423Y-109693622D01*
X116224964Y-109678816D01*
X116272810Y-109688437D01*
G37*
X116272810Y-109688437D02*
X116301444Y-109701938D01*
X116333801Y-109741445D01*
X116384177Y-109829457D01*
X116447869Y-109955187D01*
X116520173Y-110107843D01*
X116596387Y-110276636D01*
X116671809Y-110450778D01*
X116741735Y-110619477D01*
X116801462Y-110771945D01*
X116846288Y-110897392D01*
X116871511Y-110985027D01*
X116875015Y-111017886D01*
X116841522Y-111077612D01*
X116782875Y-111096932D01*
X116754073Y-111098979D01*
X116728869Y-111093259D01*
X116703580Y-111073082D01*
X116674522Y-111031758D01*
X116638008Y-110962594D01*
X116590357Y-110858901D01*
X116527882Y-110713988D01*
X116446899Y-110521162D01*
X116387809Y-110379483D01*
X116329628Y-110243676D01*
X116279573Y-110133897D01*
X116242740Y-110060831D01*
X116224226Y-110035164D01*
X116223725Y-110035441D01*
X116207481Y-110068172D01*
X116171425Y-110149980D01*
X116119715Y-110271136D01*
X116056508Y-110421914D01*
X115995776Y-110568707D01*
X115917494Y-110757035D01*
X115857817Y-110894304D01*
X115812265Y-110988608D01*
X115776356Y-111048042D01*
X115745610Y-111080702D01*
X115715545Y-111094682D01*
X115703462Y-111096770D01*
X115634725Y-111095824D01*
X115601874Y-111083540D01*
X115586303Y-111056937D01*
X115583668Y-111014951D01*
X115596223Y-110950465D01*
X115626224Y-110856358D01*
X115675927Y-110725512D01*
X115747587Y-110550808D01*
X115838474Y-110336757D01*
X115935841Y-110112946D01*
X116014396Y-109942518D01*
X116078363Y-109819682D01*
X116131964Y-109738647D01*
X116179423Y-109693622D01*
X116224964Y-109678816D01*
X116272810Y-109688437D01*
G36*
X119058425Y-109973928D02*
G01*
X119136742Y-109993584D01*
X119128058Y-110540479D01*
X119119375Y-111087375D01*
X119038811Y-111096770D01*
X118969458Y-111095923D01*
X118935624Y-111083540D01*
X118925687Y-111042975D01*
X118918581Y-110952610D01*
X118914177Y-110825259D01*
X118912351Y-110673738D01*
X118912976Y-110510863D01*
X118915924Y-110349447D01*
X118921071Y-110202307D01*
X118928289Y-110082257D01*
X118937453Y-110002112D01*
X118946554Y-109975009D01*
X119000727Y-109966188D01*
X119058425Y-109973928D01*
G37*
X119058425Y-109973928D02*
X119136742Y-109993584D01*
X119128058Y-110540479D01*
X119119375Y-111087375D01*
X119038811Y-111096770D01*
X118969458Y-111095923D01*
X118935624Y-111083540D01*
X118925687Y-111042975D01*
X118918581Y-110952610D01*
X118914177Y-110825259D01*
X118912351Y-110673738D01*
X118912976Y-110510863D01*
X118915924Y-110349447D01*
X118921071Y-110202307D01*
X118928289Y-110082257D01*
X118937453Y-110002112D01*
X118946554Y-109975009D01*
X119000727Y-109966188D01*
X119058425Y-109973928D01*
G36*
X120572657Y-109679343D02*
G01*
X120730035Y-109696021D01*
X120845620Y-109727751D01*
X120929972Y-109777752D01*
X120993652Y-109849243D01*
X121007686Y-109871026D01*
X121063716Y-110021044D01*
X121059533Y-110182435D01*
X121020093Y-110298162D01*
X120966856Y-110384695D01*
X120896203Y-110443356D01*
X120796755Y-110478224D01*
X120657135Y-110493378D01*
X120476055Y-110493204D01*
X120167125Y-110484125D01*
X120167125Y-110293625D01*
X120462065Y-110277750D01*
X120618123Y-110266062D01*
X120721174Y-110247595D01*
X120781692Y-110217194D01*
X120810149Y-110169708D01*
X120817027Y-110103125D01*
X120803420Y-110023857D01*
X120757414Y-109967367D01*
X120671234Y-109930157D01*
X120537103Y-109908727D01*
X120365562Y-109899960D01*
X120087750Y-109893593D01*
X120087750Y-110460321D01*
X120086066Y-110691996D01*
X120080841Y-110864463D01*
X120071807Y-110981927D01*
X120058701Y-111048597D01*
X120049650Y-111065150D01*
X119988799Y-111095402D01*
X119912042Y-111102188D01*
X119855226Y-111082389D01*
X119854916Y-111082083D01*
X119848423Y-111045213D01*
X119842736Y-110954841D01*
X119838181Y-110820964D01*
X119835084Y-110653579D01*
X119833772Y-110462683D01*
X119833750Y-110433512D01*
X119833750Y-109806108D01*
X119917406Y-109740304D01*
X119961481Y-109711234D01*
X120014506Y-109692134D01*
X120090124Y-109680988D01*
X120201982Y-109675782D01*
X120362926Y-109674500D01*
X120572657Y-109679343D01*
G37*
X120572657Y-109679343D02*
X120730035Y-109696021D01*
X120845620Y-109727751D01*
X120929972Y-109777752D01*
X120993652Y-109849243D01*
X121007686Y-109871026D01*
X121063716Y-110021044D01*
X121059533Y-110182435D01*
X121020093Y-110298162D01*
X120966856Y-110384695D01*
X120896203Y-110443356D01*
X120796755Y-110478224D01*
X120657135Y-110493378D01*
X120476055Y-110493204D01*
X120167125Y-110484125D01*
X120167125Y-110293625D01*
X120462065Y-110277750D01*
X120618123Y-110266062D01*
X120721174Y-110247595D01*
X120781692Y-110217194D01*
X120810149Y-110169708D01*
X120817027Y-110103125D01*
X120803420Y-110023857D01*
X120757414Y-109967367D01*
X120671234Y-109930157D01*
X120537103Y-109908727D01*
X120365562Y-109899960D01*
X120087750Y-109893593D01*
X120087750Y-110460321D01*
X120086066Y-110691996D01*
X120080841Y-110864463D01*
X120071807Y-110981927D01*
X120058701Y-111048597D01*
X120049650Y-111065150D01*
X119988799Y-111095402D01*
X119912042Y-111102188D01*
X119855226Y-111082389D01*
X119854916Y-111082083D01*
X119848423Y-111045213D01*
X119842736Y-110954841D01*
X119838181Y-110820964D01*
X119835084Y-110653579D01*
X119833772Y-110462683D01*
X119833750Y-110433512D01*
X119833750Y-109806108D01*
X119917406Y-109740304D01*
X119961481Y-109711234D01*
X120014506Y-109692134D01*
X120090124Y-109680988D01*
X120201982Y-109675782D01*
X120362926Y-109674500D01*
X120572657Y-109679343D01*
G36*
X116359033Y-110760033D02*
G01*
X116446357Y-110787281D01*
X116479204Y-110812062D01*
X116523436Y-110869684D01*
X116521510Y-110911802D01*
X116481857Y-110958107D01*
X116419482Y-110990560D01*
X116309284Y-111006045D01*
X116230125Y-111008000D01*
X116091438Y-111000603D01*
X116005385Y-110977191D01*
X115978392Y-110958107D01*
X115938371Y-110906884D01*
X115928500Y-110880532D01*
X115957066Y-110829253D01*
X116031422Y-110789448D01*
X116134547Y-110763232D01*
X116249423Y-110752722D01*
X116359033Y-110760033D01*
G37*
X116359033Y-110760033D02*
X116446357Y-110787281D01*
X116479204Y-110812062D01*
X116523436Y-110869684D01*
X116521510Y-110911802D01*
X116481857Y-110958107D01*
X116419482Y-110990560D01*
X116309284Y-111006045D01*
X116230125Y-111008000D01*
X116091438Y-111000603D01*
X116005385Y-110977191D01*
X115978392Y-110958107D01*
X115938371Y-110906884D01*
X115928500Y-110880532D01*
X115957066Y-110829253D01*
X116031422Y-110789448D01*
X116134547Y-110763232D01*
X116249423Y-110752722D01*
X116359033Y-110760033D01*
G36*
X112327641Y-108898639D02*
G01*
X112348856Y-108903030D01*
X112652188Y-108993937D01*
X112940781Y-109131258D01*
X113200639Y-109306627D01*
X113417766Y-109511673D01*
X113468342Y-109572428D01*
X113578748Y-109729164D01*
X113681308Y-109904050D01*
X113767632Y-110080090D01*
X113829327Y-110240288D01*
X113857243Y-110360135D01*
X113873008Y-110500000D01*
X113765691Y-110498292D01*
X113673757Y-110487268D01*
X113555405Y-110460908D01*
X113483750Y-110440018D01*
X113153543Y-110301367D01*
X112857792Y-110112726D01*
X112601639Y-109879095D01*
X112390223Y-109605472D01*
X112228685Y-109296859D01*
X112183885Y-109178211D01*
X112406599Y-109178211D01*
X112436034Y-109257674D01*
X112487015Y-109359263D01*
X112664805Y-109638336D01*
X112878667Y-109870142D01*
X113051231Y-110003900D01*
X113172299Y-110077615D01*
X113298098Y-110143252D01*
X113416735Y-110196024D01*
X113516317Y-110231146D01*
X113584952Y-110243831D01*
X113610748Y-110229293D01*
X113610750Y-110229069D01*
X113594426Y-110179567D01*
X113551513Y-110093409D01*
X113491096Y-109986470D01*
X113422262Y-109874626D01*
X113354097Y-109773750D01*
X113336256Y-109749483D01*
X113131417Y-109523104D01*
X112887477Y-109339658D01*
X112706770Y-109241218D01*
X112559832Y-109173284D01*
X112463893Y-109138490D01*
X112414350Y-109139307D01*
X112406599Y-109178211D01*
X112183885Y-109178211D01*
X112182486Y-109174508D01*
X112139484Y-109033894D01*
X112127972Y-108943386D01*
X112152478Y-108895597D01*
X112217525Y-108883143D01*
X112327641Y-108898639D01*
G37*
X112327641Y-108898639D02*
X112348856Y-108903030D01*
X112652188Y-108993937D01*
X112940781Y-109131258D01*
X113200639Y-109306627D01*
X113417766Y-109511673D01*
X113468342Y-109572428D01*
X113578748Y-109729164D01*
X113681308Y-109904050D01*
X113767632Y-110080090D01*
X113829327Y-110240288D01*
X113857243Y-110360135D01*
X113873008Y-110500000D01*
X113765691Y-110498292D01*
X113673757Y-110487268D01*
X113555405Y-110460908D01*
X113483750Y-110440018D01*
X113153543Y-110301367D01*
X112857792Y-110112726D01*
X112601639Y-109879095D01*
X112390223Y-109605472D01*
X112228685Y-109296859D01*
X112183885Y-109178211D01*
X112406599Y-109178211D01*
X112436034Y-109257674D01*
X112487015Y-109359263D01*
X112664805Y-109638336D01*
X112878667Y-109870142D01*
X113051231Y-110003900D01*
X113172299Y-110077615D01*
X113298098Y-110143252D01*
X113416735Y-110196024D01*
X113516317Y-110231146D01*
X113584952Y-110243831D01*
X113610748Y-110229293D01*
X113610750Y-110229069D01*
X113594426Y-110179567D01*
X113551513Y-110093409D01*
X113491096Y-109986470D01*
X113422262Y-109874626D01*
X113354097Y-109773750D01*
X113336256Y-109749483D01*
X113131417Y-109523104D01*
X112887477Y-109339658D01*
X112706770Y-109241218D01*
X112559832Y-109173284D01*
X112463893Y-109138490D01*
X112414350Y-109139307D01*
X112406599Y-109178211D01*
X112183885Y-109178211D01*
X112182486Y-109174508D01*
X112139484Y-109033894D01*
X112127972Y-108943386D01*
X112152478Y-108895597D01*
X112217525Y-108883143D01*
X112327641Y-108898639D01*
G36*
X115835051Y-108441966D02*
G01*
X115869930Y-108505115D01*
X115879631Y-108615872D01*
X115875762Y-108712793D01*
X115826890Y-109061271D01*
X115728904Y-109382856D01*
X115585058Y-109671679D01*
X115398604Y-109921876D01*
X115172794Y-110127580D01*
X115043858Y-110213270D01*
X114890899Y-110292580D01*
X114721102Y-110362260D01*
X114545158Y-110420013D01*
X114373755Y-110463538D01*
X114217586Y-110490537D01*
X114087338Y-110498711D01*
X113993704Y-110485760D01*
X113947372Y-110449385D01*
X113947268Y-110449118D01*
X113939355Y-110380494D01*
X113945105Y-110266101D01*
X113949495Y-110228786D01*
X114150500Y-110228786D01*
X114171411Y-110265768D01*
X114236892Y-110275331D01*
X114351065Y-110257273D01*
X114518051Y-110211392D01*
X114520218Y-110210725D01*
X114690351Y-110154361D01*
X114822977Y-110098487D01*
X114942792Y-110030828D01*
X115074493Y-109939109D01*
X115090242Y-109927415D01*
X115259828Y-109767814D01*
X115409035Y-109562556D01*
X115525597Y-109328962D01*
X115539159Y-109293500D01*
X115571308Y-109191823D01*
X115603314Y-109067064D01*
X115632157Y-108934824D01*
X115654818Y-108810706D01*
X115668276Y-108710313D01*
X115669513Y-108649248D01*
X115665789Y-108639205D01*
X115629760Y-108638674D01*
X115549192Y-108651517D01*
X115440967Y-108674997D01*
X115432383Y-108677068D01*
X115110231Y-108783032D01*
X114833528Y-108933051D01*
X114602949Y-109126437D01*
X114419168Y-109362502D01*
X114282857Y-109640558D01*
X114199509Y-109935098D01*
X114176115Y-110057892D01*
X114158794Y-110160198D01*
X114150725Y-110222969D01*
X114150500Y-110228786D01*
X113949495Y-110228786D01*
X113962108Y-110121603D01*
X113987952Y-109962662D01*
X114020229Y-109804942D01*
X114056526Y-109664106D01*
X114078549Y-109596111D01*
X114218356Y-109293335D01*
X114403973Y-109034250D01*
X114635571Y-108818730D01*
X114913319Y-108646651D01*
X115237386Y-108517886D01*
X115607942Y-108432311D01*
X115664283Y-108423662D01*
X115768625Y-108417718D01*
X115835051Y-108441966D01*
G37*
X115835051Y-108441966D02*
X115869930Y-108505115D01*
X115879631Y-108615872D01*
X115875762Y-108712793D01*
X115826890Y-109061271D01*
X115728904Y-109382856D01*
X115585058Y-109671679D01*
X115398604Y-109921876D01*
X115172794Y-110127580D01*
X115043858Y-110213270D01*
X114890899Y-110292580D01*
X114721102Y-110362260D01*
X114545158Y-110420013D01*
X114373755Y-110463538D01*
X114217586Y-110490537D01*
X114087338Y-110498711D01*
X113993704Y-110485760D01*
X113947372Y-110449385D01*
X113947268Y-110449118D01*
X113939355Y-110380494D01*
X113945105Y-110266101D01*
X113949495Y-110228786D01*
X114150500Y-110228786D01*
X114171411Y-110265768D01*
X114236892Y-110275331D01*
X114351065Y-110257273D01*
X114518051Y-110211392D01*
X114520218Y-110210725D01*
X114690351Y-110154361D01*
X114822977Y-110098487D01*
X114942792Y-110030828D01*
X115074493Y-109939109D01*
X115090242Y-109927415D01*
X115259828Y-109767814D01*
X115409035Y-109562556D01*
X115525597Y-109328962D01*
X115539159Y-109293500D01*
X115571308Y-109191823D01*
X115603314Y-109067064D01*
X115632157Y-108934824D01*
X115654818Y-108810706D01*
X115668276Y-108710313D01*
X115669513Y-108649248D01*
X115665789Y-108639205D01*
X115629760Y-108638674D01*
X115549192Y-108651517D01*
X115440967Y-108674997D01*
X115432383Y-108677068D01*
X115110231Y-108783032D01*
X114833528Y-108933051D01*
X114602949Y-109126437D01*
X114419168Y-109362502D01*
X114282857Y-109640558D01*
X114199509Y-109935098D01*
X114176115Y-110057892D01*
X114158794Y-110160198D01*
X114150725Y-110222969D01*
X114150500Y-110228786D01*
X113949495Y-110228786D01*
X113962108Y-110121603D01*
X113987952Y-109962662D01*
X114020229Y-109804942D01*
X114056526Y-109664106D01*
X114078549Y-109596111D01*
X114218356Y-109293335D01*
X114403973Y-109034250D01*
X114635571Y-108818730D01*
X114913319Y-108646651D01*
X115237386Y-108517886D01*
X115607942Y-108432311D01*
X115664283Y-108423662D01*
X115768625Y-108417718D01*
X115835051Y-108441966D01*
G36*
X119232436Y-109675053D02*
G01*
X119386098Y-109677237D01*
X119493958Y-109681840D01*
X119564861Y-109689649D01*
X119607653Y-109701453D01*
X119631180Y-109718037D01*
X119638980Y-109729242D01*
X119650859Y-109809949D01*
X119639440Y-109840367D01*
X119623449Y-109860378D01*
X119594124Y-109875045D01*
X119542586Y-109885183D01*
X119459958Y-109891605D01*
X119337361Y-109895124D01*
X119165917Y-109896555D01*
X119024125Y-109896750D01*
X118816179Y-109896241D01*
X118662851Y-109894171D01*
X118555261Y-109889728D01*
X118484532Y-109882097D01*
X118441783Y-109870466D01*
X118418138Y-109854020D01*
X118408809Y-109840367D01*
X118397601Y-109759038D01*
X118409269Y-109729242D01*
X118426079Y-109709752D01*
X118457383Y-109695468D01*
X118512028Y-109685603D01*
X118598860Y-109679368D01*
X118726724Y-109675978D01*
X118904466Y-109674643D01*
X119024124Y-109674500D01*
X119232436Y-109675053D01*
G37*
X119232436Y-109675053D02*
X119386098Y-109677237D01*
X119493958Y-109681840D01*
X119564861Y-109689649D01*
X119607653Y-109701453D01*
X119631180Y-109718037D01*
X119638980Y-109729242D01*
X119650859Y-109809949D01*
X119639440Y-109840367D01*
X119623449Y-109860378D01*
X119594124Y-109875045D01*
X119542586Y-109885183D01*
X119459958Y-109891605D01*
X119337361Y-109895124D01*
X119165917Y-109896555D01*
X119024125Y-109896750D01*
X118816179Y-109896241D01*
X118662851Y-109894171D01*
X118555261Y-109889728D01*
X118484532Y-109882097D01*
X118441783Y-109870466D01*
X118418138Y-109854020D01*
X118408809Y-109840367D01*
X118397601Y-109759038D01*
X118409269Y-109729242D01*
X118426079Y-109709752D01*
X118457383Y-109695468D01*
X118512028Y-109685603D01*
X118598860Y-109679368D01*
X118726724Y-109675978D01*
X118904466Y-109674643D01*
X119024124Y-109674500D01*
X119232436Y-109675053D01*
D12*
%TO.C,J3*%
X120670000Y-133030000D02*
X123330000Y-133030000D01*
X120670000Y-120270000D02*
X120670000Y-133030000D01*
X123330000Y-120270000D02*
X123330000Y-133030000D01*
X120670000Y-120270000D02*
X123330000Y-120270000D01*
X120670000Y-119000000D02*
X120670000Y-117670000D01*
X120670000Y-117670000D02*
X122000000Y-117670000D01*
%TO.C,J4*%
X115870000Y-136780000D02*
X118530000Y-136780000D01*
X115870000Y-136720000D02*
X115870000Y-136780000D01*
X118530000Y-136720000D02*
X118530000Y-136780000D01*
X115870000Y-136720000D02*
X118530000Y-136720000D01*
X115870000Y-135450000D02*
X115870000Y-134120000D01*
X115870000Y-134120000D02*
X117200000Y-134120000D01*
%TO.C,J5*%
X84590000Y-121330000D02*
X87250000Y-121330000D01*
X84590000Y-121270000D02*
X84590000Y-121330000D01*
X87250000Y-121270000D02*
X87250000Y-121330000D01*
X84590000Y-121270000D02*
X87250000Y-121270000D01*
X84590000Y-120000000D02*
X84590000Y-118670000D01*
X84590000Y-118670000D02*
X85920000Y-118670000D01*
%TO.C,J6*%
X87590000Y-156670000D02*
X88920000Y-156670000D01*
X87590000Y-158000000D02*
X87590000Y-156670000D01*
X87590000Y-159270000D02*
X90250000Y-159270000D01*
X90250000Y-159270000D02*
X90250000Y-159330000D01*
X87590000Y-159270000D02*
X87590000Y-159330000D01*
X87590000Y-159330000D02*
X90250000Y-159330000D01*
%TO.C,H1*%
D10*
X119158095Y-168452380D02*
X119158095Y-167452380D01*
X119158095Y-167928571D02*
X119729523Y-167928571D01*
X119729523Y-168452380D02*
X119729523Y-167452380D01*
X120729523Y-168452380D02*
X120158095Y-168452380D01*
X120443809Y-168452380D02*
X120443809Y-167452380D01*
X120348571Y-167595238D01*
X120253333Y-167690476D01*
X120158095Y-167738095D01*
%TO.C,H4*%
X112238095Y-115452380D02*
X112238095Y-114452380D01*
X112238095Y-114928571D02*
X112809523Y-114928571D01*
X112809523Y-115452380D02*
X112809523Y-114452380D01*
X113714285Y-114785714D02*
X113714285Y-115452380D01*
X113476190Y-114404761D02*
X113238095Y-115119047D01*
X113857142Y-115119047D01*
%TO.C,H2*%
X88238095Y-168452380D02*
X88238095Y-167452380D01*
X88238095Y-167928571D02*
X88809523Y-167928571D01*
X88809523Y-168452380D02*
X88809523Y-167452380D01*
X89238095Y-167547619D02*
X89285714Y-167500000D01*
X89380952Y-167452380D01*
X89619047Y-167452380D01*
X89714285Y-167500000D01*
X89761904Y-167547619D01*
X89809523Y-167642857D01*
X89809523Y-167738095D01*
X89761904Y-167880952D01*
X89190476Y-168452380D01*
X89809523Y-168452380D01*
%TO.C,H3*%
X88238095Y-120452380D02*
X88238095Y-119452380D01*
X88238095Y-119928571D02*
X88809523Y-119928571D01*
X88809523Y-120452380D02*
X88809523Y-119452380D01*
X89190476Y-119452380D02*
X89809523Y-119452380D01*
X89476190Y-119833333D01*
X89619047Y-119833333D01*
X89714285Y-119880952D01*
X89761904Y-119928571D01*
X89809523Y-120023809D01*
X89809523Y-120261904D01*
X89761904Y-120357142D01*
X89714285Y-120404761D01*
X89619047Y-120452380D01*
X89333333Y-120452380D01*
X89238095Y-120404761D01*
X89190476Y-120357142D01*
%TO.C,J3*%
X121766666Y-134852380D02*
X121766666Y-135566666D01*
X121719047Y-135709523D01*
X121623809Y-135804761D01*
X121480952Y-135852380D01*
X121385714Y-135852380D01*
X122147619Y-134852380D02*
X122766666Y-134852380D01*
X122433333Y-135233333D01*
X122576190Y-135233333D01*
X122671428Y-135280952D01*
X122719047Y-135328571D01*
X122766666Y-135423809D01*
X122766666Y-135661904D01*
X122719047Y-135757142D01*
X122671428Y-135804761D01*
X122576190Y-135852380D01*
X122290476Y-135852380D01*
X122195238Y-135804761D01*
X122147619Y-135757142D01*
%TO.C,J1*%
X115166666Y-139202380D02*
X115166666Y-139916666D01*
X115119047Y-140059523D01*
X115023809Y-140154761D01*
X114880952Y-140202380D01*
X114785714Y-140202380D01*
X116166666Y-140202380D02*
X115595238Y-140202380D01*
X115880952Y-140202380D02*
X115880952Y-139202380D01*
X115785714Y-139345238D01*
X115690476Y-139440476D01*
X115595238Y-139488095D01*
%TO.C,J4*%
X119666666Y-134952380D02*
X119666666Y-135666666D01*
X119619047Y-135809523D01*
X119523809Y-135904761D01*
X119380952Y-135952380D01*
X119285714Y-135952380D01*
X120571428Y-135285714D02*
X120571428Y-135952380D01*
X120333333Y-134904761D02*
X120095238Y-135619047D01*
X120714285Y-135619047D01*
%TO.C,J5*%
X85666666Y-122452380D02*
X85666666Y-123166666D01*
X85619047Y-123309523D01*
X85523809Y-123404761D01*
X85380952Y-123452380D01*
X85285714Y-123452380D01*
X86619047Y-122452380D02*
X86142857Y-122452380D01*
X86095238Y-122928571D01*
X86142857Y-122880952D01*
X86238095Y-122833333D01*
X86476190Y-122833333D01*
X86571428Y-122880952D01*
X86619047Y-122928571D01*
X86666666Y-123023809D01*
X86666666Y-123261904D01*
X86619047Y-123357142D01*
X86571428Y-123404761D01*
X86476190Y-123452380D01*
X86238095Y-123452380D01*
X86142857Y-123404761D01*
X86095238Y-123357142D01*
%TO.C,J6*%
X88586666Y-155122380D02*
X88586666Y-155836666D01*
X88539047Y-155979523D01*
X88443809Y-156074761D01*
X88300952Y-156122380D01*
X88205714Y-156122380D01*
X89491428Y-155122380D02*
X89300952Y-155122380D01*
X89205714Y-155170000D01*
X89158095Y-155217619D01*
X89062857Y-155360476D01*
X89015238Y-155550952D01*
X89015238Y-155931904D01*
X89062857Y-156027142D01*
X89110476Y-156074761D01*
X89205714Y-156122380D01*
X89396190Y-156122380D01*
X89491428Y-156074761D01*
X89539047Y-156027142D01*
X89586666Y-155931904D01*
X89586666Y-155693809D01*
X89539047Y-155598571D01*
X89491428Y-155550952D01*
X89396190Y-155503333D01*
X89205714Y-155503333D01*
X89110476Y-155550952D01*
X89062857Y-155598571D01*
X89015238Y-155693809D01*
%TD*%
M02*
