%TF.GenerationSoftware,KiCad,Pcbnew,(5.1.10)-1*%
%TF.CreationDate,2022-06-29T16:45:49+02:00*%
%TF.ProjectId,Stop_BBM_3PIC,53746f70-5f42-4424-9d5f-335049432e6b,FOR 1.1*%
%TF.SameCoordinates,Original*%
%TF.FileFunction,Legend,Bot*%
%TF.FilePolarity,Positive*%
%FSLAX46Y46*%
G04 Gerber Fmt 4.6, Leading zero omitted, Abs format (unit mm)*
G04 Created by KiCad (PCBNEW (5.1.10)-1) date 2022-06-29 16:45:49*
%MOMM*%
%LPD*%
G01*
G04 APERTURE LIST*
%ADD10C,0.150000*%
%ADD11C,0.120000*%
G04 APERTURE END LIST*
D10*
X123692857Y-133272380D02*
X123359523Y-134272380D01*
X123026190Y-133272380D01*
X122359523Y-133748571D02*
X122216666Y-133796190D01*
X122169047Y-133843809D01*
X122121428Y-133939047D01*
X122121428Y-134081904D01*
X122169047Y-134177142D01*
X122216666Y-134224761D01*
X122311904Y-134272380D01*
X122692857Y-134272380D01*
X122692857Y-133272380D01*
X122359523Y-133272380D01*
X122264285Y-133320000D01*
X122216666Y-133367619D01*
X122169047Y-133462857D01*
X122169047Y-133558095D01*
X122216666Y-133653333D01*
X122264285Y-133700952D01*
X122359523Y-133748571D01*
X122692857Y-133748571D01*
X121740476Y-133986666D02*
X121264285Y-133986666D01*
X121835714Y-134272380D02*
X121502380Y-133272380D01*
X121169047Y-134272380D01*
X120978571Y-133272380D02*
X120407142Y-133272380D01*
X120692857Y-134272380D02*
X120692857Y-133272380D01*
X119738095Y-118952380D02*
X119738095Y-117952380D01*
X119404761Y-118666666D01*
X119071428Y-117952380D01*
X119071428Y-118952380D01*
X118023809Y-118857142D02*
X118071428Y-118904761D01*
X118214285Y-118952380D01*
X118309523Y-118952380D01*
X118452380Y-118904761D01*
X118547619Y-118809523D01*
X118595238Y-118714285D01*
X118642857Y-118523809D01*
X118642857Y-118380952D01*
X118595238Y-118190476D01*
X118547619Y-118095238D01*
X118452380Y-118000000D01*
X118309523Y-117952380D01*
X118214285Y-117952380D01*
X118071428Y-118000000D01*
X118023809Y-118047619D01*
X117119047Y-118952380D02*
X117595238Y-118952380D01*
X117595238Y-117952380D01*
X116214285Y-118952380D02*
X116547619Y-118476190D01*
X116785714Y-118952380D02*
X116785714Y-117952380D01*
X116404761Y-117952380D01*
X116309523Y-118000000D01*
X116261904Y-118047619D01*
X116214285Y-118142857D01*
X116214285Y-118285714D01*
X116261904Y-118380952D01*
X116309523Y-118428571D01*
X116404761Y-118476190D01*
X116785714Y-118476190D01*
D11*
%TO.C,J2*%
X94320000Y-160930000D02*
X109680000Y-160930000D01*
X109680000Y-160930000D02*
X109680000Y-163590000D01*
X109680000Y-163590000D02*
X94320000Y-163590000D01*
X94320000Y-163590000D02*
X94320000Y-160930000D01*
X95270000Y-163590000D02*
X95270000Y-169590000D01*
X95270000Y-169590000D02*
X96030000Y-169590000D01*
X96030000Y-169590000D02*
X96030000Y-163590000D01*
X95330000Y-163590000D02*
X95330000Y-169590000D01*
X95450000Y-163590000D02*
X95450000Y-169590000D01*
X95570000Y-163590000D02*
X95570000Y-169590000D01*
X95690000Y-163590000D02*
X95690000Y-169590000D01*
X95810000Y-163590000D02*
X95810000Y-169590000D01*
X95930000Y-163590000D02*
X95930000Y-169590000D01*
X95270000Y-160600000D02*
X95270000Y-160930000D01*
X96030000Y-160600000D02*
X96030000Y-160930000D01*
X96920000Y-160930000D02*
X96920000Y-163590000D01*
X97810000Y-163590000D02*
X97810000Y-169590000D01*
X97810000Y-169590000D02*
X98570000Y-169590000D01*
X98570000Y-169590000D02*
X98570000Y-163590000D01*
X97810000Y-160532929D02*
X97810000Y-160930000D01*
X98570000Y-160532929D02*
X98570000Y-160930000D01*
X99460000Y-160930000D02*
X99460000Y-163590000D01*
X100350000Y-163590000D02*
X100350000Y-169590000D01*
X100350000Y-169590000D02*
X101110000Y-169590000D01*
X101110000Y-169590000D02*
X101110000Y-163590000D01*
X100350000Y-160532929D02*
X100350000Y-160930000D01*
X101110000Y-160532929D02*
X101110000Y-160930000D01*
X102000000Y-160930000D02*
X102000000Y-163590000D01*
X102890000Y-163590000D02*
X102890000Y-169590000D01*
X102890000Y-169590000D02*
X103650000Y-169590000D01*
X103650000Y-169590000D02*
X103650000Y-163590000D01*
X102890000Y-160532929D02*
X102890000Y-160930000D01*
X103650000Y-160532929D02*
X103650000Y-160930000D01*
X104540000Y-160930000D02*
X104540000Y-163590000D01*
X105430000Y-163590000D02*
X105430000Y-169590000D01*
X105430000Y-169590000D02*
X106190000Y-169590000D01*
X106190000Y-169590000D02*
X106190000Y-163590000D01*
X105430000Y-160532929D02*
X105430000Y-160930000D01*
X106190000Y-160532929D02*
X106190000Y-160930000D01*
X107080000Y-160930000D02*
X107080000Y-163590000D01*
X107970000Y-163590000D02*
X107970000Y-169590000D01*
X107970000Y-169590000D02*
X108730000Y-169590000D01*
X108730000Y-169590000D02*
X108730000Y-163590000D01*
X107970000Y-160532929D02*
X107970000Y-160930000D01*
X108730000Y-160532929D02*
X108730000Y-160930000D01*
X95650000Y-158220000D02*
X94380000Y-158220000D01*
X94380000Y-158220000D02*
X94380000Y-159490000D01*
D10*
X92832380Y-163541666D02*
X93546666Y-163541666D01*
X93689523Y-163494047D01*
X93784761Y-163398809D01*
X93832380Y-163255952D01*
X93832380Y-163160714D01*
X92927619Y-163970238D02*
X92880000Y-164017857D01*
X92832380Y-164113095D01*
X92832380Y-164351190D01*
X92880000Y-164446428D01*
X92927619Y-164494047D01*
X93022857Y-164541666D01*
X93118095Y-164541666D01*
X93260952Y-164494047D01*
X93832380Y-163922619D01*
X93832380Y-164541666D01*
%TD*%
M02*
