%TF.GenerationSoftware,KiCad,Pcbnew,(5.1.10)-1*%
%TF.CreationDate,2022-06-29T16:45:49+02:00*%
%TF.ProjectId,Stop_BBM_3PIC,53746f70-5f42-4424-9d5f-335049432e6b,FOR 1.1*%
%TF.SameCoordinates,Original*%
%TF.FileFunction,Copper,L1,Top*%
%TF.FilePolarity,Positive*%
%FSLAX46Y46*%
G04 Gerber Fmt 4.6, Leading zero omitted, Abs format (unit mm)*
G04 Created by KiCad (PCBNEW (5.1.10)-1) date 2022-06-29 16:45:49*
%MOMM*%
%LPD*%
G01*
G04 APERTURE LIST*
%TA.AperFunction,ComponentPad*%
%ADD10O,1.700000X1.700000*%
%TD*%
%TA.AperFunction,ComponentPad*%
%ADD11R,1.700000X1.700000*%
%TD*%
%TA.AperFunction,SMDPad,CuDef*%
%ADD12R,2.500000X5.000000*%
%TD*%
%TA.AperFunction,Conductor*%
%ADD13C,0.500000*%
%TD*%
%TA.AperFunction,Conductor*%
%ADD14C,0.200000*%
%TD*%
%TA.AperFunction,Conductor*%
%ADD15C,0.100000*%
%TD*%
G04 APERTURE END LIST*
D10*
%TO.P,J3,6*%
%TO.N,Vbatt*%
X122000000Y-131700000D03*
%TO.P,J3,5*%
%TO.N,ISCPCLK*%
X122000000Y-129160000D03*
%TO.P,J3,4*%
%TO.N,ISCPDAT*%
X122000000Y-126620000D03*
%TO.P,J3,3*%
%TO.N,GND*%
X122000000Y-124080000D03*
%TO.P,J3,2*%
%TO.N,+3V3_5V*%
X122000000Y-121540000D03*
D11*
%TO.P,J3,1*%
%TO.N,MCLR*%
X122000000Y-119000000D03*
%TD*%
D12*
%TO.P,J1,2*%
%TO.N,ISCPDAT*%
X117200000Y-135450000D03*
%TO.P,J1,1*%
%TO.N,Net-(J1-Pad1)*%
X113700000Y-135450000D03*
%TD*%
D10*
%TO.P,J2,6*%
%TO.N,Vbatt*%
X108350000Y-159490000D03*
%TO.P,J2,5*%
%TO.N,ISCPCLK*%
X105810000Y-159490000D03*
%TO.P,J2,4*%
%TO.N,ISCPDAT*%
X103270000Y-159490000D03*
%TO.P,J2,3*%
%TO.N,GND*%
X100730000Y-159490000D03*
%TO.P,J2,2*%
%TO.N,+3V3_5V*%
X98190000Y-159490000D03*
D11*
%TO.P,J2,1*%
%TO.N,MCLR*%
X95650000Y-159490000D03*
%TD*%
%TO.P,J4,1*%
%TO.N,ISCPDAT*%
X117200000Y-135450000D03*
%TD*%
%TO.P,J5,1*%
%TO.N,Net-(J5-Pad1)*%
X85920000Y-120000000D03*
%TD*%
%TO.P,J6,1*%
%TO.N,Net-(J6-Pad1)*%
X88920000Y-158000000D03*
%TD*%
D13*
%TO.N,Vbatt*%
X108350000Y-159490000D02*
X111760000Y-159490000D01*
X122000000Y-149250000D02*
X122000000Y-131700000D01*
X111760000Y-159490000D02*
X122000000Y-149250000D01*
%TO.N,+3V3_5V*%
X122000000Y-121540000D02*
X113960000Y-121540000D01*
X98190000Y-137310000D02*
X98190000Y-159490000D01*
X113960000Y-121540000D02*
X98190000Y-137310000D01*
%TO.N,MCLR*%
X95650000Y-159490000D02*
X95650000Y-136100000D01*
X112750000Y-119000000D02*
X122000000Y-119000000D01*
X95650000Y-136100000D02*
X112750000Y-119000000D01*
%TO.N,ISCPDAT*%
X103270000Y-159490000D02*
X103270000Y-136730000D01*
X103270000Y-136730000D02*
X113380000Y-126620000D01*
X117120000Y-126620000D02*
X117620000Y-126620000D01*
X117620000Y-126620000D02*
X122000000Y-126620000D01*
X116620000Y-126620000D02*
X117120000Y-126620000D01*
X113380000Y-126620000D02*
X116620000Y-126620000D01*
X117200000Y-126700000D02*
X117120000Y-126620000D01*
X117620000Y-126880000D02*
X117200000Y-127300000D01*
X117620000Y-126620000D02*
X117620000Y-126880000D01*
X117200000Y-127300000D02*
X117200000Y-126700000D01*
X117200000Y-135450000D02*
X117200000Y-127300000D01*
X117200000Y-127200000D02*
X116620000Y-126620000D01*
X117200000Y-127300000D02*
X117200000Y-127200000D01*
%TO.N,ISCPCLK*%
X122000000Y-129160000D02*
X121090000Y-129160000D01*
X121090000Y-129160000D02*
X120250000Y-130000000D01*
X120250000Y-130000000D02*
X120250000Y-140500000D01*
X120250000Y-140500000D02*
X117250000Y-143500000D01*
X117250000Y-143500000D02*
X113750000Y-143500000D01*
X105810000Y-151440000D02*
X105810000Y-159490000D01*
X113750000Y-143500000D02*
X105810000Y-151440000D01*
%TD*%
D14*
%TO.N,GND*%
X122499759Y-108476041D02*
X122980480Y-108621179D01*
X123423856Y-108856925D01*
X123812996Y-109174300D01*
X124133081Y-109561216D01*
X124371919Y-110002939D01*
X124520410Y-110482634D01*
X124575000Y-111002025D01*
X124575001Y-166979200D01*
X124523959Y-167499759D01*
X124378821Y-167980480D01*
X124143075Y-168423856D01*
X123825697Y-168812998D01*
X123438784Y-169133081D01*
X122997061Y-169371919D01*
X122517368Y-169520410D01*
X121997975Y-169575000D01*
X82020790Y-169575000D01*
X81500241Y-169523959D01*
X81019520Y-169378821D01*
X80576144Y-169143075D01*
X80187002Y-168825697D01*
X79866919Y-168438784D01*
X79628081Y-167997061D01*
X79479590Y-167517368D01*
X79425000Y-166997975D01*
X79425000Y-162788243D01*
X86770000Y-162788243D01*
X86770000Y-163211757D01*
X86852623Y-163627132D01*
X87014695Y-164018407D01*
X87249986Y-164370545D01*
X87549455Y-164670014D01*
X87901593Y-164905305D01*
X88292868Y-165067377D01*
X88708243Y-165150000D01*
X89131757Y-165150000D01*
X89547132Y-165067377D01*
X89938407Y-164905305D01*
X90290545Y-164670014D01*
X90590014Y-164370545D01*
X90825305Y-164018407D01*
X90987377Y-163627132D01*
X91070000Y-163211757D01*
X91070000Y-162788243D01*
X117770000Y-162788243D01*
X117770000Y-163211757D01*
X117852623Y-163627132D01*
X118014695Y-164018407D01*
X118249986Y-164370545D01*
X118549455Y-164670014D01*
X118901593Y-164905305D01*
X119292868Y-165067377D01*
X119708243Y-165150000D01*
X120131757Y-165150000D01*
X120547132Y-165067377D01*
X120938407Y-164905305D01*
X121290545Y-164670014D01*
X121590014Y-164370545D01*
X121825305Y-164018407D01*
X121987377Y-163627132D01*
X122070000Y-163211757D01*
X122070000Y-162788243D01*
X121987377Y-162372868D01*
X121825305Y-161981593D01*
X121590014Y-161629455D01*
X121290545Y-161329986D01*
X120938407Y-161094695D01*
X120547132Y-160932623D01*
X120131757Y-160850000D01*
X119708243Y-160850000D01*
X119292868Y-160932623D01*
X118901593Y-161094695D01*
X118549455Y-161329986D01*
X118249986Y-161629455D01*
X118014695Y-161981593D01*
X117852623Y-162372868D01*
X117770000Y-162788243D01*
X91070000Y-162788243D01*
X90987377Y-162372868D01*
X90825305Y-161981593D01*
X90590014Y-161629455D01*
X90290545Y-161329986D01*
X89938407Y-161094695D01*
X89547132Y-160932623D01*
X89131757Y-160850000D01*
X88708243Y-160850000D01*
X88292868Y-160932623D01*
X87901593Y-161094695D01*
X87549455Y-161329986D01*
X87249986Y-161629455D01*
X87014695Y-161981593D01*
X86852623Y-162372868D01*
X86770000Y-162788243D01*
X79425000Y-162788243D01*
X79425000Y-157150000D01*
X87668065Y-157150000D01*
X87668065Y-158850000D01*
X87675788Y-158928414D01*
X87698660Y-159003814D01*
X87735803Y-159073303D01*
X87785789Y-159134211D01*
X87846697Y-159184197D01*
X87916186Y-159221340D01*
X87991586Y-159244212D01*
X88070000Y-159251935D01*
X89770000Y-159251935D01*
X89848414Y-159244212D01*
X89923814Y-159221340D01*
X89993303Y-159184197D01*
X90054211Y-159134211D01*
X90104197Y-159073303D01*
X90141340Y-159003814D01*
X90164212Y-158928414D01*
X90171935Y-158850000D01*
X90171935Y-158640000D01*
X94398065Y-158640000D01*
X94398065Y-160340000D01*
X94405788Y-160418414D01*
X94428660Y-160493814D01*
X94465803Y-160563303D01*
X94515789Y-160624211D01*
X94576697Y-160674197D01*
X94646186Y-160711340D01*
X94721586Y-160734212D01*
X94800000Y-160741935D01*
X96500000Y-160741935D01*
X96578414Y-160734212D01*
X96653814Y-160711340D01*
X96723303Y-160674197D01*
X96784211Y-160624211D01*
X96834197Y-160563303D01*
X96871340Y-160493814D01*
X96894212Y-160418414D01*
X96901935Y-160340000D01*
X96901935Y-159366886D01*
X96940000Y-159366886D01*
X96940000Y-159613114D01*
X96988037Y-159854611D01*
X97082265Y-160082097D01*
X97219062Y-160286828D01*
X97393172Y-160460938D01*
X97597903Y-160597735D01*
X97825389Y-160691963D01*
X98066886Y-160740000D01*
X98313114Y-160740000D01*
X98554611Y-160691963D01*
X98782097Y-160597735D01*
X98986828Y-160460938D01*
X99160938Y-160286828D01*
X99297735Y-160082097D01*
X99352588Y-159949670D01*
X99423065Y-160136300D01*
X99574264Y-160378852D01*
X99769878Y-160587246D01*
X100002389Y-160753473D01*
X100262861Y-160871146D01*
X100351090Y-160897903D01*
X100576000Y-160786889D01*
X100576000Y-159644000D01*
X100556000Y-159644000D01*
X100556000Y-159336000D01*
X100576000Y-159336000D01*
X100576000Y-158193111D01*
X100884000Y-158193111D01*
X100884000Y-159336000D01*
X100904000Y-159336000D01*
X100904000Y-159644000D01*
X100884000Y-159644000D01*
X100884000Y-160786889D01*
X101108910Y-160897903D01*
X101197139Y-160871146D01*
X101457611Y-160753473D01*
X101690122Y-160587246D01*
X101885736Y-160378852D01*
X102036935Y-160136300D01*
X102107412Y-159949670D01*
X102162265Y-160082097D01*
X102299062Y-160286828D01*
X102473172Y-160460938D01*
X102677903Y-160597735D01*
X102905389Y-160691963D01*
X103146886Y-160740000D01*
X103393114Y-160740000D01*
X103634611Y-160691963D01*
X103862097Y-160597735D01*
X104066828Y-160460938D01*
X104240938Y-160286828D01*
X104377735Y-160082097D01*
X104471963Y-159854611D01*
X104520000Y-159613114D01*
X104520000Y-159366886D01*
X104560000Y-159366886D01*
X104560000Y-159613114D01*
X104608037Y-159854611D01*
X104702265Y-160082097D01*
X104839062Y-160286828D01*
X105013172Y-160460938D01*
X105217903Y-160597735D01*
X105445389Y-160691963D01*
X105686886Y-160740000D01*
X105933114Y-160740000D01*
X106174611Y-160691963D01*
X106402097Y-160597735D01*
X106606828Y-160460938D01*
X106780938Y-160286828D01*
X106917735Y-160082097D01*
X107011963Y-159854611D01*
X107060000Y-159613114D01*
X107060000Y-159366886D01*
X107011963Y-159125389D01*
X106917735Y-158897903D01*
X106780938Y-158693172D01*
X106606828Y-158519062D01*
X106460000Y-158420955D01*
X106460000Y-151709238D01*
X114019238Y-144150000D01*
X117218079Y-144150000D01*
X117250000Y-144153144D01*
X117281921Y-144150000D01*
X117281932Y-144150000D01*
X117377422Y-144140595D01*
X117499948Y-144103427D01*
X117612868Y-144043070D01*
X117711843Y-143961843D01*
X117732200Y-143937038D01*
X120687038Y-140982200D01*
X120711843Y-140961843D01*
X120793070Y-140862868D01*
X120853427Y-140749948D01*
X120890595Y-140627422D01*
X120900000Y-140531932D01*
X120900000Y-140531924D01*
X120903144Y-140500000D01*
X120900000Y-140468076D01*
X120900000Y-132303673D01*
X121029062Y-132496828D01*
X121203172Y-132670938D01*
X121350001Y-132769046D01*
X121350000Y-148980762D01*
X111490762Y-158840000D01*
X109419045Y-158840000D01*
X109320938Y-158693172D01*
X109146828Y-158519062D01*
X108942097Y-158382265D01*
X108714611Y-158288037D01*
X108473114Y-158240000D01*
X108226886Y-158240000D01*
X107985389Y-158288037D01*
X107757903Y-158382265D01*
X107553172Y-158519062D01*
X107379062Y-158693172D01*
X107242265Y-158897903D01*
X107148037Y-159125389D01*
X107100000Y-159366886D01*
X107100000Y-159613114D01*
X107148037Y-159854611D01*
X107242265Y-160082097D01*
X107379062Y-160286828D01*
X107553172Y-160460938D01*
X107757903Y-160597735D01*
X107985389Y-160691963D01*
X108226886Y-160740000D01*
X108473114Y-160740000D01*
X108714611Y-160691963D01*
X108942097Y-160597735D01*
X109146828Y-160460938D01*
X109320938Y-160286828D01*
X109419045Y-160140000D01*
X111728079Y-160140000D01*
X111760000Y-160143144D01*
X111791921Y-160140000D01*
X111791932Y-160140000D01*
X111887422Y-160130595D01*
X112009948Y-160093427D01*
X112122868Y-160033070D01*
X112221843Y-159951843D01*
X112242200Y-159927038D01*
X122437039Y-149732199D01*
X122461843Y-149711843D01*
X122501303Y-149663760D01*
X122543070Y-149612869D01*
X122603427Y-149499948D01*
X122603427Y-149499947D01*
X122640595Y-149377422D01*
X122650000Y-149281932D01*
X122650000Y-149281921D01*
X122653144Y-149250000D01*
X122650000Y-149218079D01*
X122650000Y-132769045D01*
X122796828Y-132670938D01*
X122970938Y-132496828D01*
X123107735Y-132292097D01*
X123201963Y-132064611D01*
X123250000Y-131823114D01*
X123250000Y-131576886D01*
X123201963Y-131335389D01*
X123107735Y-131107903D01*
X122970938Y-130903172D01*
X122796828Y-130729062D01*
X122592097Y-130592265D01*
X122364611Y-130498037D01*
X122123114Y-130450000D01*
X121876886Y-130450000D01*
X121635389Y-130498037D01*
X121407903Y-130592265D01*
X121203172Y-130729062D01*
X121029062Y-130903172D01*
X120900000Y-131096327D01*
X120900000Y-130269238D01*
X121120736Y-130048502D01*
X121203172Y-130130938D01*
X121407903Y-130267735D01*
X121635389Y-130361963D01*
X121876886Y-130410000D01*
X122123114Y-130410000D01*
X122364611Y-130361963D01*
X122592097Y-130267735D01*
X122796828Y-130130938D01*
X122970938Y-129956828D01*
X123107735Y-129752097D01*
X123201963Y-129524611D01*
X123250000Y-129283114D01*
X123250000Y-129036886D01*
X123201963Y-128795389D01*
X123107735Y-128567903D01*
X122970938Y-128363172D01*
X122796828Y-128189062D01*
X122592097Y-128052265D01*
X122364611Y-127958037D01*
X122123114Y-127910000D01*
X121876886Y-127910000D01*
X121635389Y-127958037D01*
X121407903Y-128052265D01*
X121203172Y-128189062D01*
X121029062Y-128363172D01*
X120915034Y-128533828D01*
X120840052Y-128556573D01*
X120727132Y-128616930D01*
X120727130Y-128616931D01*
X120727131Y-128616931D01*
X120652959Y-128677802D01*
X120652957Y-128677804D01*
X120628157Y-128698157D01*
X120607804Y-128722957D01*
X119812962Y-129517800D01*
X119788157Y-129538157D01*
X119767802Y-129562960D01*
X119706930Y-129637132D01*
X119671686Y-129703070D01*
X119646573Y-129750053D01*
X119609405Y-129872579D01*
X119600000Y-129968069D01*
X119600000Y-129968079D01*
X119596856Y-130000000D01*
X119600000Y-130031922D01*
X119600001Y-140230761D01*
X116980762Y-142850000D01*
X113781924Y-142850000D01*
X113750000Y-142846856D01*
X113718076Y-142850000D01*
X113718068Y-142850000D01*
X113622578Y-142859405D01*
X113500052Y-142896573D01*
X113387132Y-142956930D01*
X113288157Y-143038157D01*
X113267802Y-143062960D01*
X105372962Y-150957800D01*
X105348157Y-150978157D01*
X105327802Y-151002960D01*
X105266930Y-151077132D01*
X105206574Y-151190052D01*
X105206573Y-151190053D01*
X105169405Y-151312579D01*
X105160000Y-151408069D01*
X105160000Y-151408079D01*
X105156856Y-151440000D01*
X105160000Y-151471922D01*
X105160001Y-158420954D01*
X105013172Y-158519062D01*
X104839062Y-158693172D01*
X104702265Y-158897903D01*
X104608037Y-159125389D01*
X104560000Y-159366886D01*
X104520000Y-159366886D01*
X104471963Y-159125389D01*
X104377735Y-158897903D01*
X104240938Y-158693172D01*
X104066828Y-158519062D01*
X103920000Y-158420955D01*
X103920000Y-136999238D01*
X107969238Y-132950000D01*
X112048065Y-132950000D01*
X112048065Y-137950000D01*
X112055788Y-138028414D01*
X112078660Y-138103814D01*
X112115803Y-138173303D01*
X112165789Y-138234211D01*
X112226697Y-138284197D01*
X112296186Y-138321340D01*
X112371586Y-138344212D01*
X112450000Y-138351935D01*
X114950000Y-138351935D01*
X115028414Y-138344212D01*
X115103814Y-138321340D01*
X115173303Y-138284197D01*
X115234211Y-138234211D01*
X115284197Y-138173303D01*
X115321340Y-138103814D01*
X115344212Y-138028414D01*
X115351935Y-137950000D01*
X115351935Y-132950000D01*
X115344212Y-132871586D01*
X115321340Y-132796186D01*
X115284197Y-132726697D01*
X115234211Y-132665789D01*
X115173303Y-132615803D01*
X115103814Y-132578660D01*
X115028414Y-132555788D01*
X114950000Y-132548065D01*
X112450000Y-132548065D01*
X112371586Y-132555788D01*
X112296186Y-132578660D01*
X112226697Y-132615803D01*
X112165789Y-132665789D01*
X112115803Y-132726697D01*
X112078660Y-132796186D01*
X112055788Y-132871586D01*
X112048065Y-132950000D01*
X107969238Y-132950000D01*
X113649239Y-127270000D01*
X116350762Y-127270000D01*
X116550001Y-127469239D01*
X116550000Y-132548065D01*
X115950000Y-132548065D01*
X115871586Y-132555788D01*
X115796186Y-132578660D01*
X115726697Y-132615803D01*
X115665789Y-132665789D01*
X115615803Y-132726697D01*
X115578660Y-132796186D01*
X115555788Y-132871586D01*
X115548065Y-132950000D01*
X115548065Y-137950000D01*
X115555788Y-138028414D01*
X115578660Y-138103814D01*
X115615803Y-138173303D01*
X115665789Y-138234211D01*
X115726697Y-138284197D01*
X115796186Y-138321340D01*
X115871586Y-138344212D01*
X115950000Y-138351935D01*
X118450000Y-138351935D01*
X118528414Y-138344212D01*
X118603814Y-138321340D01*
X118673303Y-138284197D01*
X118734211Y-138234211D01*
X118784197Y-138173303D01*
X118821340Y-138103814D01*
X118844212Y-138028414D01*
X118851935Y-137950000D01*
X118851935Y-132950000D01*
X118844212Y-132871586D01*
X118821340Y-132796186D01*
X118784197Y-132726697D01*
X118734211Y-132665789D01*
X118673303Y-132615803D01*
X118603814Y-132578660D01*
X118528414Y-132555788D01*
X118450000Y-132548065D01*
X117850000Y-132548065D01*
X117850000Y-127569238D01*
X118057033Y-127362204D01*
X118081843Y-127341843D01*
X118140803Y-127270000D01*
X120930955Y-127270000D01*
X121029062Y-127416828D01*
X121203172Y-127590938D01*
X121407903Y-127727735D01*
X121635389Y-127821963D01*
X121876886Y-127870000D01*
X122123114Y-127870000D01*
X122364611Y-127821963D01*
X122592097Y-127727735D01*
X122796828Y-127590938D01*
X122970938Y-127416828D01*
X123107735Y-127212097D01*
X123201963Y-126984611D01*
X123250000Y-126743114D01*
X123250000Y-126496886D01*
X123201963Y-126255389D01*
X123107735Y-126027903D01*
X122970938Y-125823172D01*
X122796828Y-125649062D01*
X122592097Y-125512265D01*
X122459670Y-125457412D01*
X122646300Y-125386935D01*
X122888852Y-125235736D01*
X123097246Y-125040122D01*
X123263473Y-124807611D01*
X123381146Y-124547139D01*
X123407903Y-124458910D01*
X123296889Y-124234000D01*
X122154000Y-124234000D01*
X122154000Y-124254000D01*
X121846000Y-124254000D01*
X121846000Y-124234000D01*
X120703111Y-124234000D01*
X120592097Y-124458910D01*
X120618854Y-124547139D01*
X120736527Y-124807611D01*
X120902754Y-125040122D01*
X121111148Y-125235736D01*
X121353700Y-125386935D01*
X121540330Y-125457412D01*
X121407903Y-125512265D01*
X121203172Y-125649062D01*
X121029062Y-125823172D01*
X120930955Y-125970000D01*
X117651931Y-125970000D01*
X117620000Y-125966855D01*
X117588068Y-125970000D01*
X117151921Y-125970000D01*
X117120000Y-125966856D01*
X117088079Y-125970000D01*
X116651921Y-125970000D01*
X116620000Y-125966856D01*
X116588079Y-125970000D01*
X113411920Y-125970000D01*
X113379999Y-125966856D01*
X113348078Y-125970000D01*
X113348068Y-125970000D01*
X113252578Y-125979405D01*
X113130052Y-126016573D01*
X113017132Y-126076930D01*
X113017130Y-126076931D01*
X113017131Y-126076931D01*
X112942959Y-126137802D01*
X112942957Y-126137804D01*
X112918157Y-126158157D01*
X112897804Y-126182957D01*
X102832957Y-136247805D01*
X102808158Y-136268157D01*
X102787805Y-136292957D01*
X102787802Y-136292960D01*
X102726930Y-136367132D01*
X102666573Y-136480053D01*
X102629406Y-136602578D01*
X102622634Y-136671340D01*
X102616856Y-136730000D01*
X102620001Y-136761932D01*
X102620000Y-158420955D01*
X102473172Y-158519062D01*
X102299062Y-158693172D01*
X102162265Y-158897903D01*
X102107412Y-159030330D01*
X102036935Y-158843700D01*
X101885736Y-158601148D01*
X101690122Y-158392754D01*
X101457611Y-158226527D01*
X101197139Y-158108854D01*
X101108910Y-158082097D01*
X100884000Y-158193111D01*
X100576000Y-158193111D01*
X100351090Y-158082097D01*
X100262861Y-158108854D01*
X100002389Y-158226527D01*
X99769878Y-158392754D01*
X99574264Y-158601148D01*
X99423065Y-158843700D01*
X99352588Y-159030330D01*
X99297735Y-158897903D01*
X99160938Y-158693172D01*
X98986828Y-158519062D01*
X98840000Y-158420955D01*
X98840000Y-137579238D01*
X114229238Y-122190000D01*
X120930955Y-122190000D01*
X121029062Y-122336828D01*
X121203172Y-122510938D01*
X121407903Y-122647735D01*
X121540330Y-122702588D01*
X121353700Y-122773065D01*
X121111148Y-122924264D01*
X120902754Y-123119878D01*
X120736527Y-123352389D01*
X120618854Y-123612861D01*
X120592097Y-123701090D01*
X120703111Y-123926000D01*
X121846000Y-123926000D01*
X121846000Y-123906000D01*
X122154000Y-123906000D01*
X122154000Y-123926000D01*
X123296889Y-123926000D01*
X123407903Y-123701090D01*
X123381146Y-123612861D01*
X123263473Y-123352389D01*
X123097246Y-123119878D01*
X122888852Y-122924264D01*
X122646300Y-122773065D01*
X122459670Y-122702588D01*
X122592097Y-122647735D01*
X122796828Y-122510938D01*
X122970938Y-122336828D01*
X123107735Y-122132097D01*
X123201963Y-121904611D01*
X123250000Y-121663114D01*
X123250000Y-121416886D01*
X123201963Y-121175389D01*
X123107735Y-120947903D01*
X122970938Y-120743172D01*
X122796828Y-120569062D01*
X122592097Y-120432265D01*
X122364611Y-120338037D01*
X122123114Y-120290000D01*
X121876886Y-120290000D01*
X121635389Y-120338037D01*
X121407903Y-120432265D01*
X121203172Y-120569062D01*
X121029062Y-120743172D01*
X120930955Y-120890000D01*
X113991921Y-120890000D01*
X113960000Y-120886856D01*
X113928079Y-120890000D01*
X113928068Y-120890000D01*
X113832578Y-120899405D01*
X113736949Y-120928414D01*
X113710052Y-120936573D01*
X113597131Y-120996930D01*
X113546240Y-121038697D01*
X113498157Y-121078157D01*
X113477800Y-121102962D01*
X97752962Y-136827800D01*
X97728157Y-136848157D01*
X97707802Y-136872960D01*
X97646930Y-136947132D01*
X97586574Y-137060052D01*
X97586573Y-137060053D01*
X97549405Y-137182579D01*
X97540000Y-137278069D01*
X97540000Y-137278079D01*
X97536856Y-137310000D01*
X97540000Y-137341922D01*
X97540001Y-158420954D01*
X97393172Y-158519062D01*
X97219062Y-158693172D01*
X97082265Y-158897903D01*
X96988037Y-159125389D01*
X96940000Y-159366886D01*
X96901935Y-159366886D01*
X96901935Y-158640000D01*
X96894212Y-158561586D01*
X96871340Y-158486186D01*
X96834197Y-158416697D01*
X96784211Y-158355789D01*
X96723303Y-158305803D01*
X96653814Y-158268660D01*
X96578414Y-158245788D01*
X96500000Y-158238065D01*
X96300000Y-158238065D01*
X96300000Y-136369238D01*
X113019239Y-119650000D01*
X120748065Y-119650000D01*
X120748065Y-119850000D01*
X120755788Y-119928414D01*
X120778660Y-120003814D01*
X120815803Y-120073303D01*
X120865789Y-120134211D01*
X120926697Y-120184197D01*
X120996186Y-120221340D01*
X121071586Y-120244212D01*
X121150000Y-120251935D01*
X122850000Y-120251935D01*
X122928414Y-120244212D01*
X123003814Y-120221340D01*
X123073303Y-120184197D01*
X123134211Y-120134211D01*
X123184197Y-120073303D01*
X123221340Y-120003814D01*
X123244212Y-119928414D01*
X123251935Y-119850000D01*
X123251935Y-118150000D01*
X123244212Y-118071586D01*
X123221340Y-117996186D01*
X123184197Y-117926697D01*
X123134211Y-117865789D01*
X123073303Y-117815803D01*
X123003814Y-117778660D01*
X122928414Y-117755788D01*
X122850000Y-117748065D01*
X121150000Y-117748065D01*
X121071586Y-117755788D01*
X120996186Y-117778660D01*
X120926697Y-117815803D01*
X120865789Y-117865789D01*
X120815803Y-117926697D01*
X120778660Y-117996186D01*
X120755788Y-118071586D01*
X120748065Y-118150000D01*
X120748065Y-118350000D01*
X112781921Y-118350000D01*
X112750000Y-118346856D01*
X112718079Y-118350000D01*
X112718068Y-118350000D01*
X112622578Y-118359405D01*
X112500052Y-118396573D01*
X112387131Y-118456930D01*
X112312959Y-118517802D01*
X112312957Y-118517804D01*
X112288157Y-118538157D01*
X112267804Y-118562957D01*
X95212958Y-135617804D01*
X95188158Y-135638157D01*
X95167805Y-135662957D01*
X95167802Y-135662960D01*
X95106930Y-135737132D01*
X95046573Y-135850053D01*
X95009406Y-135972578D01*
X94996856Y-136100000D01*
X95000001Y-136131932D01*
X95000000Y-158238065D01*
X94800000Y-158238065D01*
X94721586Y-158245788D01*
X94646186Y-158268660D01*
X94576697Y-158305803D01*
X94515789Y-158355789D01*
X94465803Y-158416697D01*
X94428660Y-158486186D01*
X94405788Y-158561586D01*
X94398065Y-158640000D01*
X90171935Y-158640000D01*
X90171935Y-157150000D01*
X90164212Y-157071586D01*
X90141340Y-156996186D01*
X90104197Y-156926697D01*
X90054211Y-156865789D01*
X89993303Y-156815803D01*
X89923814Y-156778660D01*
X89848414Y-156755788D01*
X89770000Y-156748065D01*
X88070000Y-156748065D01*
X87991586Y-156755788D01*
X87916186Y-156778660D01*
X87846697Y-156815803D01*
X87785789Y-156865789D01*
X87735803Y-156926697D01*
X87698660Y-156996186D01*
X87675788Y-157071586D01*
X87668065Y-157150000D01*
X79425000Y-157150000D01*
X79425000Y-119150000D01*
X84668065Y-119150000D01*
X84668065Y-120850000D01*
X84675788Y-120928414D01*
X84698660Y-121003814D01*
X84735803Y-121073303D01*
X84785789Y-121134211D01*
X84846697Y-121184197D01*
X84916186Y-121221340D01*
X84991586Y-121244212D01*
X85070000Y-121251935D01*
X86770000Y-121251935D01*
X86848414Y-121244212D01*
X86923814Y-121221340D01*
X86993303Y-121184197D01*
X87054211Y-121134211D01*
X87104197Y-121073303D01*
X87141340Y-121003814D01*
X87164212Y-120928414D01*
X87171935Y-120850000D01*
X87171935Y-119150000D01*
X87164212Y-119071586D01*
X87141340Y-118996186D01*
X87104197Y-118926697D01*
X87054211Y-118865789D01*
X86993303Y-118815803D01*
X86923814Y-118778660D01*
X86848414Y-118755788D01*
X86770000Y-118748065D01*
X85070000Y-118748065D01*
X84991586Y-118755788D01*
X84916186Y-118778660D01*
X84846697Y-118815803D01*
X84785789Y-118865789D01*
X84735803Y-118926697D01*
X84698660Y-118996186D01*
X84675788Y-119071586D01*
X84668065Y-119150000D01*
X79425000Y-119150000D01*
X79425000Y-114788243D01*
X86770000Y-114788243D01*
X86770000Y-115211757D01*
X86852623Y-115627132D01*
X87014695Y-116018407D01*
X87249986Y-116370545D01*
X87549455Y-116670014D01*
X87901593Y-116905305D01*
X88292868Y-117067377D01*
X88708243Y-117150000D01*
X89131757Y-117150000D01*
X89547132Y-117067377D01*
X89938407Y-116905305D01*
X90290545Y-116670014D01*
X90590014Y-116370545D01*
X90825305Y-116018407D01*
X90987377Y-115627132D01*
X91070000Y-115211757D01*
X91070000Y-114788243D01*
X117770000Y-114788243D01*
X117770000Y-115211757D01*
X117852623Y-115627132D01*
X118014695Y-116018407D01*
X118249986Y-116370545D01*
X118549455Y-116670014D01*
X118901593Y-116905305D01*
X119292868Y-117067377D01*
X119708243Y-117150000D01*
X120131757Y-117150000D01*
X120547132Y-117067377D01*
X120938407Y-116905305D01*
X121290545Y-116670014D01*
X121590014Y-116370545D01*
X121825305Y-116018407D01*
X121987377Y-115627132D01*
X122070000Y-115211757D01*
X122070000Y-114788243D01*
X121987377Y-114372868D01*
X121825305Y-113981593D01*
X121590014Y-113629455D01*
X121290545Y-113329986D01*
X120938407Y-113094695D01*
X120547132Y-112932623D01*
X120131757Y-112850000D01*
X119708243Y-112850000D01*
X119292868Y-112932623D01*
X118901593Y-113094695D01*
X118549455Y-113329986D01*
X118249986Y-113629455D01*
X118014695Y-113981593D01*
X117852623Y-114372868D01*
X117770000Y-114788243D01*
X91070000Y-114788243D01*
X90987377Y-114372868D01*
X90825305Y-113981593D01*
X90590014Y-113629455D01*
X90290545Y-113329986D01*
X89938407Y-113094695D01*
X89547132Y-112932623D01*
X89131757Y-112850000D01*
X88708243Y-112850000D01*
X88292868Y-112932623D01*
X87901593Y-113094695D01*
X87549455Y-113329986D01*
X87249986Y-113629455D01*
X87014695Y-113981593D01*
X86852623Y-114372868D01*
X86770000Y-114788243D01*
X79425000Y-114788243D01*
X79425000Y-111020790D01*
X79476041Y-110500241D01*
X79621179Y-110019520D01*
X79856925Y-109576144D01*
X80174300Y-109187004D01*
X80561216Y-108866919D01*
X81002939Y-108628081D01*
X81482634Y-108479590D01*
X82002025Y-108425000D01*
X121979210Y-108425000D01*
X122499759Y-108476041D01*
%TA.AperFunction,Conductor*%
D15*
G36*
X122499759Y-108476041D02*
G01*
X122980480Y-108621179D01*
X123423856Y-108856925D01*
X123812996Y-109174300D01*
X124133081Y-109561216D01*
X124371919Y-110002939D01*
X124520410Y-110482634D01*
X124575000Y-111002025D01*
X124575001Y-166979200D01*
X124523959Y-167499759D01*
X124378821Y-167980480D01*
X124143075Y-168423856D01*
X123825697Y-168812998D01*
X123438784Y-169133081D01*
X122997061Y-169371919D01*
X122517368Y-169520410D01*
X121997975Y-169575000D01*
X82020790Y-169575000D01*
X81500241Y-169523959D01*
X81019520Y-169378821D01*
X80576144Y-169143075D01*
X80187002Y-168825697D01*
X79866919Y-168438784D01*
X79628081Y-167997061D01*
X79479590Y-167517368D01*
X79425000Y-166997975D01*
X79425000Y-162788243D01*
X86770000Y-162788243D01*
X86770000Y-163211757D01*
X86852623Y-163627132D01*
X87014695Y-164018407D01*
X87249986Y-164370545D01*
X87549455Y-164670014D01*
X87901593Y-164905305D01*
X88292868Y-165067377D01*
X88708243Y-165150000D01*
X89131757Y-165150000D01*
X89547132Y-165067377D01*
X89938407Y-164905305D01*
X90290545Y-164670014D01*
X90590014Y-164370545D01*
X90825305Y-164018407D01*
X90987377Y-163627132D01*
X91070000Y-163211757D01*
X91070000Y-162788243D01*
X117770000Y-162788243D01*
X117770000Y-163211757D01*
X117852623Y-163627132D01*
X118014695Y-164018407D01*
X118249986Y-164370545D01*
X118549455Y-164670014D01*
X118901593Y-164905305D01*
X119292868Y-165067377D01*
X119708243Y-165150000D01*
X120131757Y-165150000D01*
X120547132Y-165067377D01*
X120938407Y-164905305D01*
X121290545Y-164670014D01*
X121590014Y-164370545D01*
X121825305Y-164018407D01*
X121987377Y-163627132D01*
X122070000Y-163211757D01*
X122070000Y-162788243D01*
X121987377Y-162372868D01*
X121825305Y-161981593D01*
X121590014Y-161629455D01*
X121290545Y-161329986D01*
X120938407Y-161094695D01*
X120547132Y-160932623D01*
X120131757Y-160850000D01*
X119708243Y-160850000D01*
X119292868Y-160932623D01*
X118901593Y-161094695D01*
X118549455Y-161329986D01*
X118249986Y-161629455D01*
X118014695Y-161981593D01*
X117852623Y-162372868D01*
X117770000Y-162788243D01*
X91070000Y-162788243D01*
X90987377Y-162372868D01*
X90825305Y-161981593D01*
X90590014Y-161629455D01*
X90290545Y-161329986D01*
X89938407Y-161094695D01*
X89547132Y-160932623D01*
X89131757Y-160850000D01*
X88708243Y-160850000D01*
X88292868Y-160932623D01*
X87901593Y-161094695D01*
X87549455Y-161329986D01*
X87249986Y-161629455D01*
X87014695Y-161981593D01*
X86852623Y-162372868D01*
X86770000Y-162788243D01*
X79425000Y-162788243D01*
X79425000Y-157150000D01*
X87668065Y-157150000D01*
X87668065Y-158850000D01*
X87675788Y-158928414D01*
X87698660Y-159003814D01*
X87735803Y-159073303D01*
X87785789Y-159134211D01*
X87846697Y-159184197D01*
X87916186Y-159221340D01*
X87991586Y-159244212D01*
X88070000Y-159251935D01*
X89770000Y-159251935D01*
X89848414Y-159244212D01*
X89923814Y-159221340D01*
X89993303Y-159184197D01*
X90054211Y-159134211D01*
X90104197Y-159073303D01*
X90141340Y-159003814D01*
X90164212Y-158928414D01*
X90171935Y-158850000D01*
X90171935Y-158640000D01*
X94398065Y-158640000D01*
X94398065Y-160340000D01*
X94405788Y-160418414D01*
X94428660Y-160493814D01*
X94465803Y-160563303D01*
X94515789Y-160624211D01*
X94576697Y-160674197D01*
X94646186Y-160711340D01*
X94721586Y-160734212D01*
X94800000Y-160741935D01*
X96500000Y-160741935D01*
X96578414Y-160734212D01*
X96653814Y-160711340D01*
X96723303Y-160674197D01*
X96784211Y-160624211D01*
X96834197Y-160563303D01*
X96871340Y-160493814D01*
X96894212Y-160418414D01*
X96901935Y-160340000D01*
X96901935Y-159366886D01*
X96940000Y-159366886D01*
X96940000Y-159613114D01*
X96988037Y-159854611D01*
X97082265Y-160082097D01*
X97219062Y-160286828D01*
X97393172Y-160460938D01*
X97597903Y-160597735D01*
X97825389Y-160691963D01*
X98066886Y-160740000D01*
X98313114Y-160740000D01*
X98554611Y-160691963D01*
X98782097Y-160597735D01*
X98986828Y-160460938D01*
X99160938Y-160286828D01*
X99297735Y-160082097D01*
X99352588Y-159949670D01*
X99423065Y-160136300D01*
X99574264Y-160378852D01*
X99769878Y-160587246D01*
X100002389Y-160753473D01*
X100262861Y-160871146D01*
X100351090Y-160897903D01*
X100576000Y-160786889D01*
X100576000Y-159644000D01*
X100556000Y-159644000D01*
X100556000Y-159336000D01*
X100576000Y-159336000D01*
X100576000Y-158193111D01*
X100884000Y-158193111D01*
X100884000Y-159336000D01*
X100904000Y-159336000D01*
X100904000Y-159644000D01*
X100884000Y-159644000D01*
X100884000Y-160786889D01*
X101108910Y-160897903D01*
X101197139Y-160871146D01*
X101457611Y-160753473D01*
X101690122Y-160587246D01*
X101885736Y-160378852D01*
X102036935Y-160136300D01*
X102107412Y-159949670D01*
X102162265Y-160082097D01*
X102299062Y-160286828D01*
X102473172Y-160460938D01*
X102677903Y-160597735D01*
X102905389Y-160691963D01*
X103146886Y-160740000D01*
X103393114Y-160740000D01*
X103634611Y-160691963D01*
X103862097Y-160597735D01*
X104066828Y-160460938D01*
X104240938Y-160286828D01*
X104377735Y-160082097D01*
X104471963Y-159854611D01*
X104520000Y-159613114D01*
X104520000Y-159366886D01*
X104560000Y-159366886D01*
X104560000Y-159613114D01*
X104608037Y-159854611D01*
X104702265Y-160082097D01*
X104839062Y-160286828D01*
X105013172Y-160460938D01*
X105217903Y-160597735D01*
X105445389Y-160691963D01*
X105686886Y-160740000D01*
X105933114Y-160740000D01*
X106174611Y-160691963D01*
X106402097Y-160597735D01*
X106606828Y-160460938D01*
X106780938Y-160286828D01*
X106917735Y-160082097D01*
X107011963Y-159854611D01*
X107060000Y-159613114D01*
X107060000Y-159366886D01*
X107011963Y-159125389D01*
X106917735Y-158897903D01*
X106780938Y-158693172D01*
X106606828Y-158519062D01*
X106460000Y-158420955D01*
X106460000Y-151709238D01*
X114019238Y-144150000D01*
X117218079Y-144150000D01*
X117250000Y-144153144D01*
X117281921Y-144150000D01*
X117281932Y-144150000D01*
X117377422Y-144140595D01*
X117499948Y-144103427D01*
X117612868Y-144043070D01*
X117711843Y-143961843D01*
X117732200Y-143937038D01*
X120687038Y-140982200D01*
X120711843Y-140961843D01*
X120793070Y-140862868D01*
X120853427Y-140749948D01*
X120890595Y-140627422D01*
X120900000Y-140531932D01*
X120900000Y-140531924D01*
X120903144Y-140500000D01*
X120900000Y-140468076D01*
X120900000Y-132303673D01*
X121029062Y-132496828D01*
X121203172Y-132670938D01*
X121350001Y-132769046D01*
X121350000Y-148980762D01*
X111490762Y-158840000D01*
X109419045Y-158840000D01*
X109320938Y-158693172D01*
X109146828Y-158519062D01*
X108942097Y-158382265D01*
X108714611Y-158288037D01*
X108473114Y-158240000D01*
X108226886Y-158240000D01*
X107985389Y-158288037D01*
X107757903Y-158382265D01*
X107553172Y-158519062D01*
X107379062Y-158693172D01*
X107242265Y-158897903D01*
X107148037Y-159125389D01*
X107100000Y-159366886D01*
X107100000Y-159613114D01*
X107148037Y-159854611D01*
X107242265Y-160082097D01*
X107379062Y-160286828D01*
X107553172Y-160460938D01*
X107757903Y-160597735D01*
X107985389Y-160691963D01*
X108226886Y-160740000D01*
X108473114Y-160740000D01*
X108714611Y-160691963D01*
X108942097Y-160597735D01*
X109146828Y-160460938D01*
X109320938Y-160286828D01*
X109419045Y-160140000D01*
X111728079Y-160140000D01*
X111760000Y-160143144D01*
X111791921Y-160140000D01*
X111791932Y-160140000D01*
X111887422Y-160130595D01*
X112009948Y-160093427D01*
X112122868Y-160033070D01*
X112221843Y-159951843D01*
X112242200Y-159927038D01*
X122437039Y-149732199D01*
X122461843Y-149711843D01*
X122501303Y-149663760D01*
X122543070Y-149612869D01*
X122603427Y-149499948D01*
X122603427Y-149499947D01*
X122640595Y-149377422D01*
X122650000Y-149281932D01*
X122650000Y-149281921D01*
X122653144Y-149250000D01*
X122650000Y-149218079D01*
X122650000Y-132769045D01*
X122796828Y-132670938D01*
X122970938Y-132496828D01*
X123107735Y-132292097D01*
X123201963Y-132064611D01*
X123250000Y-131823114D01*
X123250000Y-131576886D01*
X123201963Y-131335389D01*
X123107735Y-131107903D01*
X122970938Y-130903172D01*
X122796828Y-130729062D01*
X122592097Y-130592265D01*
X122364611Y-130498037D01*
X122123114Y-130450000D01*
X121876886Y-130450000D01*
X121635389Y-130498037D01*
X121407903Y-130592265D01*
X121203172Y-130729062D01*
X121029062Y-130903172D01*
X120900000Y-131096327D01*
X120900000Y-130269238D01*
X121120736Y-130048502D01*
X121203172Y-130130938D01*
X121407903Y-130267735D01*
X121635389Y-130361963D01*
X121876886Y-130410000D01*
X122123114Y-130410000D01*
X122364611Y-130361963D01*
X122592097Y-130267735D01*
X122796828Y-130130938D01*
X122970938Y-129956828D01*
X123107735Y-129752097D01*
X123201963Y-129524611D01*
X123250000Y-129283114D01*
X123250000Y-129036886D01*
X123201963Y-128795389D01*
X123107735Y-128567903D01*
X122970938Y-128363172D01*
X122796828Y-128189062D01*
X122592097Y-128052265D01*
X122364611Y-127958037D01*
X122123114Y-127910000D01*
X121876886Y-127910000D01*
X121635389Y-127958037D01*
X121407903Y-128052265D01*
X121203172Y-128189062D01*
X121029062Y-128363172D01*
X120915034Y-128533828D01*
X120840052Y-128556573D01*
X120727132Y-128616930D01*
X120727130Y-128616931D01*
X120727131Y-128616931D01*
X120652959Y-128677802D01*
X120652957Y-128677804D01*
X120628157Y-128698157D01*
X120607804Y-128722957D01*
X119812962Y-129517800D01*
X119788157Y-129538157D01*
X119767802Y-129562960D01*
X119706930Y-129637132D01*
X119671686Y-129703070D01*
X119646573Y-129750053D01*
X119609405Y-129872579D01*
X119600000Y-129968069D01*
X119600000Y-129968079D01*
X119596856Y-130000000D01*
X119600000Y-130031922D01*
X119600001Y-140230761D01*
X116980762Y-142850000D01*
X113781924Y-142850000D01*
X113750000Y-142846856D01*
X113718076Y-142850000D01*
X113718068Y-142850000D01*
X113622578Y-142859405D01*
X113500052Y-142896573D01*
X113387132Y-142956930D01*
X113288157Y-143038157D01*
X113267802Y-143062960D01*
X105372962Y-150957800D01*
X105348157Y-150978157D01*
X105327802Y-151002960D01*
X105266930Y-151077132D01*
X105206574Y-151190052D01*
X105206573Y-151190053D01*
X105169405Y-151312579D01*
X105160000Y-151408069D01*
X105160000Y-151408079D01*
X105156856Y-151440000D01*
X105160000Y-151471922D01*
X105160001Y-158420954D01*
X105013172Y-158519062D01*
X104839062Y-158693172D01*
X104702265Y-158897903D01*
X104608037Y-159125389D01*
X104560000Y-159366886D01*
X104520000Y-159366886D01*
X104471963Y-159125389D01*
X104377735Y-158897903D01*
X104240938Y-158693172D01*
X104066828Y-158519062D01*
X103920000Y-158420955D01*
X103920000Y-136999238D01*
X107969238Y-132950000D01*
X112048065Y-132950000D01*
X112048065Y-137950000D01*
X112055788Y-138028414D01*
X112078660Y-138103814D01*
X112115803Y-138173303D01*
X112165789Y-138234211D01*
X112226697Y-138284197D01*
X112296186Y-138321340D01*
X112371586Y-138344212D01*
X112450000Y-138351935D01*
X114950000Y-138351935D01*
X115028414Y-138344212D01*
X115103814Y-138321340D01*
X115173303Y-138284197D01*
X115234211Y-138234211D01*
X115284197Y-138173303D01*
X115321340Y-138103814D01*
X115344212Y-138028414D01*
X115351935Y-137950000D01*
X115351935Y-132950000D01*
X115344212Y-132871586D01*
X115321340Y-132796186D01*
X115284197Y-132726697D01*
X115234211Y-132665789D01*
X115173303Y-132615803D01*
X115103814Y-132578660D01*
X115028414Y-132555788D01*
X114950000Y-132548065D01*
X112450000Y-132548065D01*
X112371586Y-132555788D01*
X112296186Y-132578660D01*
X112226697Y-132615803D01*
X112165789Y-132665789D01*
X112115803Y-132726697D01*
X112078660Y-132796186D01*
X112055788Y-132871586D01*
X112048065Y-132950000D01*
X107969238Y-132950000D01*
X113649239Y-127270000D01*
X116350762Y-127270000D01*
X116550001Y-127469239D01*
X116550000Y-132548065D01*
X115950000Y-132548065D01*
X115871586Y-132555788D01*
X115796186Y-132578660D01*
X115726697Y-132615803D01*
X115665789Y-132665789D01*
X115615803Y-132726697D01*
X115578660Y-132796186D01*
X115555788Y-132871586D01*
X115548065Y-132950000D01*
X115548065Y-137950000D01*
X115555788Y-138028414D01*
X115578660Y-138103814D01*
X115615803Y-138173303D01*
X115665789Y-138234211D01*
X115726697Y-138284197D01*
X115796186Y-138321340D01*
X115871586Y-138344212D01*
X115950000Y-138351935D01*
X118450000Y-138351935D01*
X118528414Y-138344212D01*
X118603814Y-138321340D01*
X118673303Y-138284197D01*
X118734211Y-138234211D01*
X118784197Y-138173303D01*
X118821340Y-138103814D01*
X118844212Y-138028414D01*
X118851935Y-137950000D01*
X118851935Y-132950000D01*
X118844212Y-132871586D01*
X118821340Y-132796186D01*
X118784197Y-132726697D01*
X118734211Y-132665789D01*
X118673303Y-132615803D01*
X118603814Y-132578660D01*
X118528414Y-132555788D01*
X118450000Y-132548065D01*
X117850000Y-132548065D01*
X117850000Y-127569238D01*
X118057033Y-127362204D01*
X118081843Y-127341843D01*
X118140803Y-127270000D01*
X120930955Y-127270000D01*
X121029062Y-127416828D01*
X121203172Y-127590938D01*
X121407903Y-127727735D01*
X121635389Y-127821963D01*
X121876886Y-127870000D01*
X122123114Y-127870000D01*
X122364611Y-127821963D01*
X122592097Y-127727735D01*
X122796828Y-127590938D01*
X122970938Y-127416828D01*
X123107735Y-127212097D01*
X123201963Y-126984611D01*
X123250000Y-126743114D01*
X123250000Y-126496886D01*
X123201963Y-126255389D01*
X123107735Y-126027903D01*
X122970938Y-125823172D01*
X122796828Y-125649062D01*
X122592097Y-125512265D01*
X122459670Y-125457412D01*
X122646300Y-125386935D01*
X122888852Y-125235736D01*
X123097246Y-125040122D01*
X123263473Y-124807611D01*
X123381146Y-124547139D01*
X123407903Y-124458910D01*
X123296889Y-124234000D01*
X122154000Y-124234000D01*
X122154000Y-124254000D01*
X121846000Y-124254000D01*
X121846000Y-124234000D01*
X120703111Y-124234000D01*
X120592097Y-124458910D01*
X120618854Y-124547139D01*
X120736527Y-124807611D01*
X120902754Y-125040122D01*
X121111148Y-125235736D01*
X121353700Y-125386935D01*
X121540330Y-125457412D01*
X121407903Y-125512265D01*
X121203172Y-125649062D01*
X121029062Y-125823172D01*
X120930955Y-125970000D01*
X117651931Y-125970000D01*
X117620000Y-125966855D01*
X117588068Y-125970000D01*
X117151921Y-125970000D01*
X117120000Y-125966856D01*
X117088079Y-125970000D01*
X116651921Y-125970000D01*
X116620000Y-125966856D01*
X116588079Y-125970000D01*
X113411920Y-125970000D01*
X113379999Y-125966856D01*
X113348078Y-125970000D01*
X113348068Y-125970000D01*
X113252578Y-125979405D01*
X113130052Y-126016573D01*
X113017132Y-126076930D01*
X113017130Y-126076931D01*
X113017131Y-126076931D01*
X112942959Y-126137802D01*
X112942957Y-126137804D01*
X112918157Y-126158157D01*
X112897804Y-126182957D01*
X102832957Y-136247805D01*
X102808158Y-136268157D01*
X102787805Y-136292957D01*
X102787802Y-136292960D01*
X102726930Y-136367132D01*
X102666573Y-136480053D01*
X102629406Y-136602578D01*
X102622634Y-136671340D01*
X102616856Y-136730000D01*
X102620001Y-136761932D01*
X102620000Y-158420955D01*
X102473172Y-158519062D01*
X102299062Y-158693172D01*
X102162265Y-158897903D01*
X102107412Y-159030330D01*
X102036935Y-158843700D01*
X101885736Y-158601148D01*
X101690122Y-158392754D01*
X101457611Y-158226527D01*
X101197139Y-158108854D01*
X101108910Y-158082097D01*
X100884000Y-158193111D01*
X100576000Y-158193111D01*
X100351090Y-158082097D01*
X100262861Y-158108854D01*
X100002389Y-158226527D01*
X99769878Y-158392754D01*
X99574264Y-158601148D01*
X99423065Y-158843700D01*
X99352588Y-159030330D01*
X99297735Y-158897903D01*
X99160938Y-158693172D01*
X98986828Y-158519062D01*
X98840000Y-158420955D01*
X98840000Y-137579238D01*
X114229238Y-122190000D01*
X120930955Y-122190000D01*
X121029062Y-122336828D01*
X121203172Y-122510938D01*
X121407903Y-122647735D01*
X121540330Y-122702588D01*
X121353700Y-122773065D01*
X121111148Y-122924264D01*
X120902754Y-123119878D01*
X120736527Y-123352389D01*
X120618854Y-123612861D01*
X120592097Y-123701090D01*
X120703111Y-123926000D01*
X121846000Y-123926000D01*
X121846000Y-123906000D01*
X122154000Y-123906000D01*
X122154000Y-123926000D01*
X123296889Y-123926000D01*
X123407903Y-123701090D01*
X123381146Y-123612861D01*
X123263473Y-123352389D01*
X123097246Y-123119878D01*
X122888852Y-122924264D01*
X122646300Y-122773065D01*
X122459670Y-122702588D01*
X122592097Y-122647735D01*
X122796828Y-122510938D01*
X122970938Y-122336828D01*
X123107735Y-122132097D01*
X123201963Y-121904611D01*
X123250000Y-121663114D01*
X123250000Y-121416886D01*
X123201963Y-121175389D01*
X123107735Y-120947903D01*
X122970938Y-120743172D01*
X122796828Y-120569062D01*
X122592097Y-120432265D01*
X122364611Y-120338037D01*
X122123114Y-120290000D01*
X121876886Y-120290000D01*
X121635389Y-120338037D01*
X121407903Y-120432265D01*
X121203172Y-120569062D01*
X121029062Y-120743172D01*
X120930955Y-120890000D01*
X113991921Y-120890000D01*
X113960000Y-120886856D01*
X113928079Y-120890000D01*
X113928068Y-120890000D01*
X113832578Y-120899405D01*
X113736949Y-120928414D01*
X113710052Y-120936573D01*
X113597131Y-120996930D01*
X113546240Y-121038697D01*
X113498157Y-121078157D01*
X113477800Y-121102962D01*
X97752962Y-136827800D01*
X97728157Y-136848157D01*
X97707802Y-136872960D01*
X97646930Y-136947132D01*
X97586574Y-137060052D01*
X97586573Y-137060053D01*
X97549405Y-137182579D01*
X97540000Y-137278069D01*
X97540000Y-137278079D01*
X97536856Y-137310000D01*
X97540000Y-137341922D01*
X97540001Y-158420954D01*
X97393172Y-158519062D01*
X97219062Y-158693172D01*
X97082265Y-158897903D01*
X96988037Y-159125389D01*
X96940000Y-159366886D01*
X96901935Y-159366886D01*
X96901935Y-158640000D01*
X96894212Y-158561586D01*
X96871340Y-158486186D01*
X96834197Y-158416697D01*
X96784211Y-158355789D01*
X96723303Y-158305803D01*
X96653814Y-158268660D01*
X96578414Y-158245788D01*
X96500000Y-158238065D01*
X96300000Y-158238065D01*
X96300000Y-136369238D01*
X113019239Y-119650000D01*
X120748065Y-119650000D01*
X120748065Y-119850000D01*
X120755788Y-119928414D01*
X120778660Y-120003814D01*
X120815803Y-120073303D01*
X120865789Y-120134211D01*
X120926697Y-120184197D01*
X120996186Y-120221340D01*
X121071586Y-120244212D01*
X121150000Y-120251935D01*
X122850000Y-120251935D01*
X122928414Y-120244212D01*
X123003814Y-120221340D01*
X123073303Y-120184197D01*
X123134211Y-120134211D01*
X123184197Y-120073303D01*
X123221340Y-120003814D01*
X123244212Y-119928414D01*
X123251935Y-119850000D01*
X123251935Y-118150000D01*
X123244212Y-118071586D01*
X123221340Y-117996186D01*
X123184197Y-117926697D01*
X123134211Y-117865789D01*
X123073303Y-117815803D01*
X123003814Y-117778660D01*
X122928414Y-117755788D01*
X122850000Y-117748065D01*
X121150000Y-117748065D01*
X121071586Y-117755788D01*
X120996186Y-117778660D01*
X120926697Y-117815803D01*
X120865789Y-117865789D01*
X120815803Y-117926697D01*
X120778660Y-117996186D01*
X120755788Y-118071586D01*
X120748065Y-118150000D01*
X120748065Y-118350000D01*
X112781921Y-118350000D01*
X112750000Y-118346856D01*
X112718079Y-118350000D01*
X112718068Y-118350000D01*
X112622578Y-118359405D01*
X112500052Y-118396573D01*
X112387131Y-118456930D01*
X112312959Y-118517802D01*
X112312957Y-118517804D01*
X112288157Y-118538157D01*
X112267804Y-118562957D01*
X95212958Y-135617804D01*
X95188158Y-135638157D01*
X95167805Y-135662957D01*
X95167802Y-135662960D01*
X95106930Y-135737132D01*
X95046573Y-135850053D01*
X95009406Y-135972578D01*
X94996856Y-136100000D01*
X95000001Y-136131932D01*
X95000000Y-158238065D01*
X94800000Y-158238065D01*
X94721586Y-158245788D01*
X94646186Y-158268660D01*
X94576697Y-158305803D01*
X94515789Y-158355789D01*
X94465803Y-158416697D01*
X94428660Y-158486186D01*
X94405788Y-158561586D01*
X94398065Y-158640000D01*
X90171935Y-158640000D01*
X90171935Y-157150000D01*
X90164212Y-157071586D01*
X90141340Y-156996186D01*
X90104197Y-156926697D01*
X90054211Y-156865789D01*
X89993303Y-156815803D01*
X89923814Y-156778660D01*
X89848414Y-156755788D01*
X89770000Y-156748065D01*
X88070000Y-156748065D01*
X87991586Y-156755788D01*
X87916186Y-156778660D01*
X87846697Y-156815803D01*
X87785789Y-156865789D01*
X87735803Y-156926697D01*
X87698660Y-156996186D01*
X87675788Y-157071586D01*
X87668065Y-157150000D01*
X79425000Y-157150000D01*
X79425000Y-119150000D01*
X84668065Y-119150000D01*
X84668065Y-120850000D01*
X84675788Y-120928414D01*
X84698660Y-121003814D01*
X84735803Y-121073303D01*
X84785789Y-121134211D01*
X84846697Y-121184197D01*
X84916186Y-121221340D01*
X84991586Y-121244212D01*
X85070000Y-121251935D01*
X86770000Y-121251935D01*
X86848414Y-121244212D01*
X86923814Y-121221340D01*
X86993303Y-121184197D01*
X87054211Y-121134211D01*
X87104197Y-121073303D01*
X87141340Y-121003814D01*
X87164212Y-120928414D01*
X87171935Y-120850000D01*
X87171935Y-119150000D01*
X87164212Y-119071586D01*
X87141340Y-118996186D01*
X87104197Y-118926697D01*
X87054211Y-118865789D01*
X86993303Y-118815803D01*
X86923814Y-118778660D01*
X86848414Y-118755788D01*
X86770000Y-118748065D01*
X85070000Y-118748065D01*
X84991586Y-118755788D01*
X84916186Y-118778660D01*
X84846697Y-118815803D01*
X84785789Y-118865789D01*
X84735803Y-118926697D01*
X84698660Y-118996186D01*
X84675788Y-119071586D01*
X84668065Y-119150000D01*
X79425000Y-119150000D01*
X79425000Y-114788243D01*
X86770000Y-114788243D01*
X86770000Y-115211757D01*
X86852623Y-115627132D01*
X87014695Y-116018407D01*
X87249986Y-116370545D01*
X87549455Y-116670014D01*
X87901593Y-116905305D01*
X88292868Y-117067377D01*
X88708243Y-117150000D01*
X89131757Y-117150000D01*
X89547132Y-117067377D01*
X89938407Y-116905305D01*
X90290545Y-116670014D01*
X90590014Y-116370545D01*
X90825305Y-116018407D01*
X90987377Y-115627132D01*
X91070000Y-115211757D01*
X91070000Y-114788243D01*
X117770000Y-114788243D01*
X117770000Y-115211757D01*
X117852623Y-115627132D01*
X118014695Y-116018407D01*
X118249986Y-116370545D01*
X118549455Y-116670014D01*
X118901593Y-116905305D01*
X119292868Y-117067377D01*
X119708243Y-117150000D01*
X120131757Y-117150000D01*
X120547132Y-117067377D01*
X120938407Y-116905305D01*
X121290545Y-116670014D01*
X121590014Y-116370545D01*
X121825305Y-116018407D01*
X121987377Y-115627132D01*
X122070000Y-115211757D01*
X122070000Y-114788243D01*
X121987377Y-114372868D01*
X121825305Y-113981593D01*
X121590014Y-113629455D01*
X121290545Y-113329986D01*
X120938407Y-113094695D01*
X120547132Y-112932623D01*
X120131757Y-112850000D01*
X119708243Y-112850000D01*
X119292868Y-112932623D01*
X118901593Y-113094695D01*
X118549455Y-113329986D01*
X118249986Y-113629455D01*
X118014695Y-113981593D01*
X117852623Y-114372868D01*
X117770000Y-114788243D01*
X91070000Y-114788243D01*
X90987377Y-114372868D01*
X90825305Y-113981593D01*
X90590014Y-113629455D01*
X90290545Y-113329986D01*
X89938407Y-113094695D01*
X89547132Y-112932623D01*
X89131757Y-112850000D01*
X88708243Y-112850000D01*
X88292868Y-112932623D01*
X87901593Y-113094695D01*
X87549455Y-113329986D01*
X87249986Y-113629455D01*
X87014695Y-113981593D01*
X86852623Y-114372868D01*
X86770000Y-114788243D01*
X79425000Y-114788243D01*
X79425000Y-111020790D01*
X79476041Y-110500241D01*
X79621179Y-110019520D01*
X79856925Y-109576144D01*
X80174300Y-109187004D01*
X80561216Y-108866919D01*
X81002939Y-108628081D01*
X81482634Y-108479590D01*
X82002025Y-108425000D01*
X121979210Y-108425000D01*
X122499759Y-108476041D01*
G37*
%TD.AperFunction*%
%TD*%
M02*
